<?xml version="1.0" encoding="utf-8"?>
<!-- Generator: Adobe Illustrator 25.1.0, SVG Export Plug-In . SVG Version: 6.00 Build 0)  -->
<svg version="1.1" id="Calque_1" xmlns="http://www.w3.org/2000/svg" xmlns:xlink="http://www.w3.org/1999/xlink" x="0px" y="0px"
	 viewBox="0 0 227.7 62.4" style="enable-background:new 0 0 227.7 62.4;" xml:space="preserve">
<style type="text/css">
	.st0{fill:#059CF5;}
	.st1{fill:#009FE3;}
</style>
<g id="Calque_2_1_">
	<g id="Calque_1-2">
		<g>
			<g>
				<path class="st0" d="M134.9,13.4c0.1,0,0.1,0,0.1,0c0.2,0,0.5,0,0.7,0c1.5-0.2,2.6-1.6,2.5-3.1c-0.2-1.4-1.4-2.5-2.9-2.5
					c-0.3,0-0.4,0.1-0.4,0.4L134.9,13.4L134.9,13.4z M132.6,15.8c-0.1,0-0.2,0-0.3,0c-0.9,0-1.7,0-2.6,0c-1.8-0.1-3.4-1.2-4.2-2.8
					c-1.3-2.5-0.4-5.7,2.2-7c0.5-0.3,1-0.4,1.6-0.5c0.3-0.1,0.7-0.1,1-0.1c0.6,0,1.1,0.6,1.1,1.2c0,0,0,0.1,0,0.1
					c0,0.6-0.6,1.1-1.2,1.1c-1.3,0-2.4,0.8-2.7,2c-0.5,1.5,0.4,3,1.8,3.5c0.2,0.1,0.4,0.1,0.5,0.1c0.9,0.1,1.8,0,2.7,0v-0.2
					c0-2.2,0-4.3,0-6.5c0-0.6,0.3-1.1,0.9-1.2c0.1,0,0.1,0,0.2,0c0.7,0,1.4,0,2.1,0c2.9,0.2,5,2.6,4.9,5.5c-0.1,2.4-1.9,4.4-4.3,4.8
					c-0.3,0.1-0.7,0.1-1,0.1c-0.1,0-0.3,0-0.4,0V16c0,1.4,0,2.7,0,4.1c0,0.7-0.5,1.3-1.2,1.3c0,0,0,0,0,0c-2.6,0.2-5.1-0.2-7.5-1.2
					c-3.2-1.4-5.5-4.3-6.1-7.8c-0.5-2.9,0.3-5.9,2.2-8.2c1.7-2.1,4.1-3.5,6.8-4c1.6-0.3,3.2-0.4,4.9-0.2c1.3,0.1,2.6,0.4,3.8,0.9
					c0.6,0.2,0.9,0.9,0.7,1.5c-0.2,0.6-0.9,0.9-1.5,0.7c0,0,0,0,0,0c-1.1-0.4-2.2-0.7-3.3-0.8c-2.9-0.3-5.9,0.5-8.3,2.3
					c-1.6,1.2-2.7,3.1-2.9,5.1c-0.3,2.3,0.4,4.6,2.1,6.3c1.4,1.5,3.4,2.5,5.4,2.8c0.7,0.1,1.5,0.1,2.3,0.2c0.2,0,0.3,0,0.3-0.3
					L132.6,15.8L132.6,15.8z"/>
				<path class="st0" d="M157,12.2c-0.4,0-0.7,0.3-0.7,0.7c0,0.4,0.3,0.7,0.7,0.7c0.4,0,0.7-0.3,0.7-0.7c0,0,0,0,0,0
					C157.7,12.6,157.4,12.3,157,12.2C157,12.2,157,12.2,157,12.2 M156.4,14.1v1.5h-0.9c0-0.1,0-0.1,0-0.2c0-1.2,0-2.5,0-3.7
					c0-0.2,0-0.2,0.2-0.2c0.2,0,0.4,0,0.6,0c0,0.1,0,0.2,0,0.3c0.2-0.3,0.5-0.4,0.9-0.4c0.7,0,1.4,0.6,1.4,1.3c0,0.1,0,0.2,0,0.2
					c0,0.2-0.1,0.5-0.2,0.7c-0.3,0.6-1,0.9-1.6,0.6C156.6,14.3,156.5,14.2,156.4,14.1C156.4,14.1,156.4,14.1,156.4,14.1"/>
				<path class="st0" d="M167,12.2c-0.4,0-0.7,0.3-0.7,0.7c0,0.4,0.3,0.7,0.7,0.7c0.4,0,0.7-0.3,0.7-0.7
					C167.7,12.6,167.4,12.3,167,12.2 M165.5,11.5h0.8v0.3c0,0,0.1,0,0.1,0c0.3-0.4,0.9-0.5,1.3-0.3c0.5,0.2,0.8,0.6,0.8,1.1
					c0.1,0.4,0,0.9-0.3,1.3c-0.4,0.5-1.2,0.6-1.7,0.2c0,0,0,0,0,0c0,0,0,0-0.1,0v1.5h-0.9L165.5,11.5z"/>
				<path class="st0" d="M154.1,13c0-0.4-0.3-0.7-0.7-0.7c-0.4,0-0.7,0.3-0.7,0.7c0,0.4,0.3,0.7,0.7,0.7
					C153.7,13.7,154.1,13.4,154.1,13C154.1,13,154.1,13,154.1,13 M153.4,14.4c-0.8,0-1.5-0.6-1.5-1.4c0-0.8,0.6-1.5,1.4-1.5
					c0.1,0,0.1,0,0.2,0c0.8,0,1.5,0.6,1.5,1.4c0,0.4-0.1,0.7-0.3,1C154.3,14.3,153.8,14.4,153.4,14.4"/>
				<path class="st0" d="M177.8,12.6c0-0.3-0.2-0.5-0.5-0.5c0,0,0,0,0,0c-0.3,0-0.5,0.2-0.6,0.5c0,0,0,0,0,0H177.8z M178,13.4
					c0.2,0.1,0.4,0.3,0.6,0.4c-0.3,0.3-0.7,0.5-1.1,0.6c-0.7,0.1-1.4-0.4-1.6-1.1c-0.2-0.8,0.2-1.6,1-1.8c0.2,0,0.3-0.1,0.5,0
					c0.7,0,1.3,0.6,1.3,1.3c0,0,0,0,0,0.1c0,0.1,0,0.2,0,0.4h-2c0,0.2,0.2,0.4,0.4,0.5C177.4,13.8,177.6,13.8,178,13.4"/>
				<path class="st0" d="M162.4,12.6c0-0.3-0.2-0.5-0.4-0.5c0,0-0.1,0-0.1,0c-0.3,0-0.5,0.2-0.5,0.5c0,0,0,0,0,0H162.4z M163.3,13.2
					h-2c0,0.2,0.2,0.4,0.4,0.5c0.3,0.1,0.6,0,0.8-0.3c0.2,0.1,0.4,0.3,0.6,0.4c-0.5,0.7-1.5,0.7-2.2,0.2c-0.5-0.4-0.7-1.1-0.5-1.7
					c0.4-0.8,1.3-1.1,2.1-0.7c0,0,0.1,0,0.1,0c0.4,0.3,0.6,0.7,0.6,1.1C163.3,12.9,163.3,13.1,163.3,13.2"/>
				<path class="st0" d="M180,12.6h1.1c0-0.3-0.2-0.5-0.5-0.5C180.3,12.1,180.1,12.3,180,12.6C180,12.6,180,12.6,180,12.6 M182,13.2
					h-2c0,0.2,0.2,0.4,0.4,0.5c0.3,0.1,0.7,0,0.8-0.3c0.2,0.1,0.4,0.3,0.6,0.4c-0.3,0.3-0.7,0.5-1.1,0.6c-0.8,0.1-1.5-0.5-1.6-1.3
					c-0.1-0.8,0.5-1.5,1.3-1.6c0.1,0,0.2,0,0.3,0c0.7,0,1.3,0.6,1.3,1.3c0,0,0,0.1,0,0.1C182,13,182,13.1,182,13.2"/>
				<path class="st0" d="M146.2,13.1c-0.3,0-0.6,0-0.8,0.1c-0.1,0-0.2,0.2-0.2,0.3c0,0.1,0.1,0.1,0.1,0.2c0.2,0.1,0.5,0.1,0.7-0.1
					C146.2,13.6,146.3,13.3,146.2,13.1 M144.5,11.9c0.4-0.3,0.8-0.5,1.3-0.4c0.1,0,0.2,0,0.3,0c0.4,0,0.8,0.4,0.8,0.8
					c0.1,0.7,0.1,1.3,0.1,2h-0.8c0-0.1,0-0.2,0-0.3c-0.4,0.4-1.1,0.5-1.6,0.1c-0.4-0.3-0.4-0.8-0.1-1.2c0.1-0.1,0.2-0.2,0.3-0.2
					c0.3-0.1,0.7-0.2,1-0.2c0.1,0,0.2,0,0.3,0c0-0.2-0.1-0.4-0.3-0.4c-0.3-0.1-0.7,0-1,0.3C144.8,12.2,144.7,12.1,144.5,11.9"/>
				<path class="st0" d="M172.5,11.5c0.3,0,0.6,0,0.9,0c0,0,0.1,0.1,0.1,0.1c0.2,0.5,0.4,1,0.6,1.5c0,0.1,0.1,0.1,0.1,0.3
					c0.2-0.6,0.4-1.1,0.6-1.7c0-0.1,0.1-0.2,0.3-0.2c0,0,0,0,0,0c0.2,0,0.4,0,0.7,0c0,0.1,0,0.1,0,0.2c-0.3,0.8-0.7,1.7-1,2.5
					c0,0.1-0.1,0.2-0.2,0.2c-0.2,0-0.4,0-0.6,0c-0.1,0-0.1,0-0.2-0.1C173.2,13.4,172.9,12.5,172.5,11.5"/>
				<path class="st0" d="M151.7,11.9c-0.2,0.2-0.4,0.4-0.6,0.5c-0.1-0.1-0.3-0.2-0.5-0.2c-0.1,0-0.3,0.1-0.4,0.2
					c-0.2,0.3-0.2,0.7,0,1c0.2,0.2,0.6,0.2,0.9,0c0.2,0.2,0.4,0.4,0.6,0.6c-0.6,0.5-1.5,0.5-2.1,0c-0.6-0.6-0.6-1.5-0.1-2.1
					C150.1,11.3,151.1,11.3,151.7,11.9"/>
			</g>
		</g>
		<rect x="143" y="10" class="st0" width="0.8" height="4.3"/>
		<g>
			<g>
				<path class="st0" d="M171,12.3c-0.2,0-0.3,0-0.5,0c-0.3,0-0.6,0.2-0.6,0.5c0,0,0,0,0,0.1c0,0.4,0,0.8,0,1.3c0,0.1,0,0.2,0,0.3
					H169v-2.8h0.8v0.3l0,0c0.2-0.4,0.7-0.6,1.1-0.4V12.3z"/>
				<path class="st0" d="M171.3,14.3v-2.8c0.3,0,0.5,0,0.8,0c0,0,0.1,0.1,0.1,0.1c0,0.9,0,1.8,0,2.6c0,0,0,0,0,0L171.3,14.3z"/>
			</g>
		</g>
		<rect x="159" y="11.6" class="st0" width="0.9" height="2.8"/>
		<g>
			<g>
				<path class="st0" d="M171.1,8c0-0.4-0.2-0.7-0.6-0.7c0,0-0.1,0-0.1,0c-0.4,0-0.8,0.3-0.8,0.7H171.1z M171.4,8.3h-1.9
					c0,0.3,0.2,0.6,0.5,0.7c0.4,0.2,0.8,0,1-0.3c0.1,0.1,0.2,0.1,0.2,0.2c-0.4,0.5-1.1,0.7-1.7,0.3c0,0-0.1,0-0.1-0.1
					c-0.4-0.4-0.5-1-0.3-1.5c0.3-0.5,0.8-0.7,1.3-0.6C171.2,7.2,171.5,7.8,171.4,8.3"/>
				<path class="st0" d="M162.1,8c0-0.4-0.2-0.7-0.6-0.7c0,0-0.1,0-0.1,0c-0.4,0-0.8,0.3-0.8,0.7H162.1z M162.4,8.3h-1.8
					c0,0.3,0.1,0.6,0.4,0.7c0.4,0.2,0.9,0.1,1.1-0.3c0.1,0.1,0.2,0.1,0.2,0.2c-0.4,0.5-1.1,0.7-1.7,0.3c-0.3-0.2-0.4-0.5-0.5-0.8
					c-0.1-0.6,0.3-1.2,0.9-1.4c0.6-0.2,1.2,0.2,1.3,0.8C162.4,8,162.5,8.2,162.4,8.3"/>
				<path class="st0" d="M145.6,8.2c-0.3,0.1-0.6,0.1-0.9,0.2c-0.2,0-0.3,0.2-0.3,0.4c0,0.2,0.2,0.3,0.3,0.4
					C145.2,9.3,145.6,8.9,145.6,8.2 M145.9,9.4h-0.3c0-0.1,0-0.2-0.1-0.3c-0.2,0.3-0.6,0.4-1,0.3c-0.3,0-0.5-0.3-0.6-0.6
					c-0.1-0.3,0.1-0.6,0.4-0.7c0.3-0.1,0.6-0.1,1-0.2c0.1,0,0.1,0,0.2,0c0-0.2,0-0.4-0.2-0.5c-0.4-0.2-0.8-0.1-1.1,0.2l-0.2-0.2
					c0.4-0.4,1-0.5,1.5-0.2c0.2,0.1,0.3,0.4,0.3,0.6C145.9,8.3,145.9,8.8,145.9,9.4"/>
				<path class="st0" d="M165.8,8.2c-0.3,0-0.7,0-1,0.2c-0.1,0.1-0.2,0.2-0.2,0.4c0,0.2,0.1,0.3,0.3,0.3c0.2,0,0.3,0.1,0.5,0
					C165.7,9,165.9,8.7,165.8,8.2 M166.2,9.4h-0.3c0-0.1,0-0.2,0-0.2c-0.2,0.1-0.4,0.2-0.6,0.3c-0.2,0-0.4,0-0.6-0.1
					c-0.2-0.1-0.4-0.3-0.4-0.6c0-0.3,0.1-0.5,0.3-0.6c0.3-0.1,0.7-0.2,1-0.2c0.1,0,0.1,0,0.2,0c0.1-0.2-0.1-0.5-0.3-0.6
					c0,0-0.1,0-0.1,0c-0.3,0-0.6,0.1-0.8,0.3c-0.1-0.1-0.1-0.1-0.2-0.3c0.2-0.1,0.4-0.2,0.5-0.3c0.2,0,0.4-0.1,0.6,0
					c0.4,0,0.7,0.3,0.7,0.7C166.2,8.3,166.2,8.8,166.2,9.4"/>
				<path class="st0" d="M152,7.1h0.3v2.3h-0.3c0-0.1,0-0.2,0-0.2c-0.2,0.1-0.4,0.2-0.6,0.3c-0.4,0.2-0.8,0-1-0.4
					c0-0.1-0.1-0.2-0.1-0.3c0-0.5,0-1,0-1.6h0.3v1.1c0,0.1,0,0.2,0,0.4c0,0.3,0.1,0.5,0.4,0.6c0.3,0.1,0.6,0,0.7-0.3
					c0.1-0.2,0.2-0.3,0.2-0.5C152.1,7.9,152,7.5,152,7.1"/>
				<path class="st0" d="M155.9,7.1h0.3c0,0.4,0,0.7,0,1.1c0,0.1,0,0.3,0,0.4c0,0.3,0.2,0.5,0.4,0.6c0.3,0.1,0.6,0,0.7-0.3
					c0.1-0.2,0.1-0.4,0.2-0.6c0-0.4,0-0.8,0-1.1h0.3v2.3h-0.3c0-0.1,0-0.2,0-0.3c-0.1,0-0.1,0.1-0.1,0.1c-0.3,0.3-0.7,0.3-1.1,0.2
					c-0.3-0.1-0.5-0.5-0.4-0.8C155.9,8.1,155.9,7.6,155.9,7.1"/>
				<path class="st0" d="M173.7,8.8c0.1,0.1,0.2,0.1,0.2,0.2c-0.4,0.5-1.1,0.6-1.6,0.2c-0.5-0.5-0.6-1.3-0.1-1.8
					c0.5-0.5,1.3-0.4,1.7,0c0,0,0,0,0,0c0,0-0.1,0.1-0.1,0.1c0,0-0.1,0.1-0.1,0.1c-0.2-0.2-0.4-0.3-0.7-0.3c-0.2,0-0.4,0.1-0.5,0.3
					c-0.3,0.4-0.3,0.9,0,1.3C172.9,9.2,173.4,9.2,173.7,8.8C173.7,8.9,173.7,8.8,173.7,8.8"/>
				<path class="st0" d="M149.7,8.8c0.1,0.1,0.2,0.1,0.2,0.2c-0.3,0.4-0.7,0.5-1.2,0.4c-0.5-0.1-0.9-0.6-0.9-1.1
					c-0.1-0.5,0.2-1,0.7-1.2c0.5-0.2,1-0.1,1.3,0.3c-0.1,0.1-0.2,0.1-0.2,0.2c-0.3-0.3-0.8-0.4-1.2-0.1c0,0,0,0,0,0
					c-0.3,0.4-0.3,0.9,0,1.3C148.8,9.2,149.4,9.2,149.7,8.8C149.7,8.9,149.7,8.9,149.7,8.8"/>
				<path class="st0" d="M166.7,7.1C167,7,167,7,167.1,7.4c0.2,0.5,0.4,1.1,0.6,1.7c0.1-0.4,0.3-0.7,0.4-1c0.1-0.2,0.2-0.4,0.2-0.7
					c0.1-0.3,0.1-0.3,0.5-0.2c0,0.1-0.1,0.2-0.1,0.3c-0.2,0.6-0.5,1.2-0.7,1.8c0,0.1-0.1,0.2-0.3,0.2c-0.1,0-0.2,0-0.3-0.2
					C167.2,8.5,166.9,7.8,166.7,7.1"/>
				<path class="st0" d="M154,7.1h0.5V6.4h0.3v0.6h0.7v0.3h-0.6v0.9c0,0.1,0,0.3,0,0.4c0,0.4,0.2,0.5,0.5,0.4c0,0,0.1,0,0.1,0
					c0,0.3,0,0.3-0.3,0.4c-0.3,0.1-0.6-0.1-0.7-0.4c0-0.1,0-0.2,0-0.2c0-0.5,0-0.9,0-1.4H154L154,7.1z"/>
			</g>
		</g>
		<rect x="143" y="5.7" class="st0" width="0.3" height="3.7"/>
		<rect x="153.2" y="5.7" class="st0" width="0.3" height="3.7"/>
		<g>
			<g>
				<path class="st0" d="M159,9.4h-0.3V7.1h0.3v0.3c0.1-0.1,0.3-0.2,0.4-0.3c0.2,0,0.4-0.1,0.6-0.1c0,0.1,0,0.2-0.1,0.3
					c-0.1,0-0.2,0-0.2,0c-0.3,0-0.6,0.3-0.6,0.6c0,0.4,0,0.7,0,1.1C159,9.2,159,9.3,159,9.4"/>
				<path class="st0" d="M178.5,10.3c-0.4,0.3-0.7,0.6-1,0.8c-0.1,0.1-0.2,0-0.4,0s-0.3,0-0.4,0c0.2-0.3,0.4-0.5,0.6-0.8
					c0,0,0.1,0,0.1,0C177.7,10.3,178.1,10.3,178.5,10.3"/>
				<path class="st0" d="M160,10.7c0,0.3-0.2,0.5-0.5,0.5c-0.3,0-0.5-0.2-0.5-0.5c0-0.3,0.2-0.5,0.5-0.5
					C159.7,10.2,160,10.4,160,10.7C160,10.7,160,10.7,160,10.7"/>
				<path class="st0" d="M172.3,10.7c0,0.3-0.2,0.5-0.5,0.5c-0.3,0-0.5-0.2-0.5-0.5c0-0.3,0.2-0.5,0.5-0.5c0,0,0,0,0,0
					C172,10.2,172.3,10.4,172.3,10.7C172.3,10.7,172.3,10.7,172.3,10.7"/>
			</g>
		</g>
		<polygon class="st0" points="198.2,10.4 198.2,9.3 194.3,9.3 194.3,14.5 195.6,14.5 195.6,12.4 198.1,12.4 198.1,11.3 195.6,11.3 
			195.6,10.4 		"/>
		<polygon class="st0" points="225,9.3 223.7,9.3 223.7,11.3 221.6,11.3 221.6,9.3 220.3,9.3 220.3,14.5 221.6,14.5 221.6,12.4 
			223.7,12.4 223.7,14.5 225,14.5 		"/>
		<g>
			<g>
				<path class="st0" d="M218.3,12.5c-0.2,0.8-0.6,1-1.1,1c-0.8,0-1.1-0.5-1.1-1.6c0-1.1,0.4-1.6,1.1-1.6c0.6,0,0.9,0.3,1.1,1
					l1.3-0.2c-0.1-1.1-1.1-2-2.3-1.9c-1.7,0-2.5,1-2.5,2.7c0,1.7,0.8,2.7,2.5,2.7c1.2,0.1,2.2-0.7,2.3-1.9L218.3,12.5z"/>
				<path class="st0" d="M210.4,11l1.6,2.9c0.3-0.1,0.5-0.1,0.8-0.1c0.3,0,0.6,0,0.8,0.1c0.1,0,0.2,0.1,0.3,0.1V9.3h-1.3v3.5
					l-1.9-3.5h-1.6v5.2h1.3L210.4,11z"/>
				<path class="st0" d="M208.1,13.4h-2.6v-1h2.4v-1.1h-2.4v-0.9h2.6V9.3h-1.6c-0.5,0.3-0.9,0.7-1.3,1.1c-0.3,0.2-0.6,0.5-0.9,0.7
					v3.4h3.9V13.4z"/>
				<path class="st0" d="M194.3,20.6h1.5c0.1,0,0.2,0,0.3,0c0.1,0,0.2,0,0.3,0c0.1,0,0.2,0,0.3,0c1.4-0.2,2.5-0.9,2.5-2.6
					c0-0.4-0.1-0.8-0.2-1.2c-0.3,0.4-0.6,0.8-0.8,1.2c-0.1,0.2-0.3,0.5-0.4,0.7c0,0.1-0.1,0.2-0.2,0.3c-0.1,0.1-0.3,0.3-0.5,0.3
					c-0.1,0-0.2,0.1-0.3,0.1c-0.3,0-0.6,0.1-0.8,0.1h-0.3v-3h0.3c0.3,0,0.5,0,0.8,0c0.2-0.3,0.4-0.6,0.7-1c-0.5-0.1-1-0.2-1.5-0.2
					h-1.5L194.3,20.6z"/>
			</g>
		</g>
		<polygon class="st0" points="204.4,16.5 204.4,15.4 200.2,15.4 200.2,20.6 204.4,20.6 204.4,19.5 201.4,19.5 201.4,18.5 
			204.2,18.5 204.2,17.4 201.4,17.4 201.4,16.5 		"/>
		<g>
			<g>
				<path class="st0" d="M206.9,18.4c0.1-0.4,0.3-0.7,0.5-1l0,0c-0.4-0.1-0.7-0.3-0.7-0.5c0-0.3,0.4-0.4,0.9-0.4
					c0.2,0,0.3,0,0.5,0.1c0.2-0.2,0.4-0.4,0.6-0.6c0.1-0.1,0.2-0.2,0.3-0.2c-0.4-0.2-0.8-0.3-1.3-0.3c-1,0-2.2,0.5-2.2,1.6
					C205.4,17.8,206.1,18.2,206.9,18.4"/>
				<path class="st0" d="M216.3,20.7c0.6,0.1,1.2-0.2,1.7-0.7l0,0.6h1v-2.9h-2.6v1h1.3v0.1c0,0.7-0.6,0.9-1.2,0.9
					c-0.9,0-1.4-0.5-1.4-1.7c0,0,0,0,0,0c-0.1,0.2-0.1,0.3-0.2,0.5c-0.2,0.4-0.5,0.8-0.7,1.2C214.6,20.4,215.4,20.8,216.3,20.7"/>
				<path class="st0" d="M216.4,16.4c0.5-0.1,1,0.3,1.2,0.7l1.3-0.2c-0.3-1-1.3-1.7-2.4-1.6c-0.4,0-0.8,0.1-1.2,0.2c0,0,0,0.1,0,0.1
					c0.1,0.4,0.1,0.8,0,1.2C215.6,16.6,216,16.4,216.4,16.4"/>
			</g>
		</g>
		<polygon class="st0" points="223.7,19 221.6,15.4 220,15.4 220,20.6 221.2,20.6 221.2,17.1 223.4,20.6 225,20.6 225,15.4 
			223.7,15.4 		"/>
		<g>
			<g>
				<path class="st0" d="M206.2,6.9c-4-0.6-7.9-2-11.4-3.9l-0.6,0.9c3.4,1.9,7,3.2,10.8,3.9C205.4,7.5,205.8,7.2,206.2,6.9"/>
				<path class="st0" d="M204.7,8.7c-0.1,0.1-0.2,0.2-0.4,0.3c-0.1,0.1-0.1,0.1-0.2,0.2c0,0-0.1,0.1-0.1,0.1
					c-0.1,0.1-0.2,0.2-0.3,0.2c-0.1,0.1-0.1,0.1-0.2,0.2c0.1,0.1,0.1,0.2,0.2,0.3c0.1,0.3,0.2,0.5,0.2,0.8c0,0,0.1-0.1,0.1-0.1
					c0.1-0.1,0.2-0.2,0.3-0.3c0.2-0.2,0.4-0.3,0.6-0.5c0.3-0.2,0.6-0.5,0.9-0.7c0.1-0.1,0.2-0.2,0.4-0.3c0.1-0.1,0.2-0.2,0.4-0.3
					c0.2-0.2,0.5-0.4,0.7-0.5c0.4-0.3,0.9-0.7,1.3-0.9c3.3-2.3,6.9-4.2,10.7-5.7c0.7-0.3,1.5-0.4,2.2-0.5c0.4,0,0.7,0,1.1,0.1
					c0.7,0.2,1.3,0.6,1.5,1.3c0.2,0.6,0.2,1.3-0.2,1.8c-0.6,0.9-1.4,1.5-2.4,1.8c-2.7,0.9-5.5,1.3-8.3,1.2c-0.3,0-0.6,0-0.9,0
					c-0.3,0-0.5,0-0.8,0c-0.7,0-1.4,0-2.2-0.1c-0.4,0.3-0.9,0.6-1.4,0.9c1.2,0.1,2.4,0.2,3.5,0.2c0.2,0,0.5,0,0.8,0
					c0.3,0,0.6,0,0.9,0c3,0.1,5.9-0.3,8.7-1.3c3.1-1.2,3.8-3.5,3.2-5.1c-0.4-0.9-1.3-1.7-2.3-1.9c-0.4-0.1-0.9-0.2-1.4-0.2
					c-0.9,0-1.8,0.2-2.6,0.5c-4.2,1.6-8.2,3.8-11.9,6.5c-0.5,0.4-0.8,0.6-1.2,0.9C205.3,8.2,205,8.4,204.7,8.7"/>
				<path class="st0" d="M208.7,22.4c0.1,0.3,0.3,0.7,0.5,1c1-0.7,1.9-1.4,2.8-2.2h-1.7C209.9,21.5,209.2,22,208.7,22.4"/>
				<path class="st0" d="M202.5,25.8c-1.3,0.6-2.7,0.9-4.1,1.1c-0.2,0-0.5,0-0.7,0c-0.6,0-1.2-0.1-1.8-0.5c-0.6-0.5-0.8-1.2-0.8-1.9
					c0-1,0.3-2.1,0.7-3c0-0.1,0.1-0.2,0.2-0.4h-1.2c-0.5,1.1-0.7,2.3-0.7,3.4c-0.1,1.1,0.4,2.1,1.2,2.8c0.7,0.5,1.6,0.7,2.4,0.7
					c1.8-0.1,3.6-0.5,5.3-1.3c1.6-0.7,3.1-1.4,4.6-2.3c-0.2-0.3-0.4-0.6-0.5-0.9C205.5,24.4,204,25.2,202.5,25.8"/>
				<path class="st0" d="M199.7,15.1h-1.4v0c-0.1,0.1-0.1,0.2-0.2,0.2s-0.1,0.2-0.2,0.2s-0.1,0.2-0.2,0.2c-0.2,0.3-0.5,0.6-0.7,0.9
					c-0.1,0.1-0.1,0.2-0.2,0.2l-0.2,0.2l0,0c-0.2,0.3-0.4,0.7-0.6,1v0.7c0.3,0,0.5,0,0.7-0.2c0,0,0.1,0,0.1-0.1
					c0.2-0.2,0.4-0.4,0.5-0.6c0,0,0-0.1,0.1-0.1c0-0.1,0.1-0.1,0.1-0.2c0,0,0.1-0.1,0.1-0.1c0.3-0.4,0.6-0.8,0.9-1.3
					c0.1-0.1,0.1-0.2,0.2-0.2s0.1-0.2,0.2-0.2c0.2-0.2,0.3-0.4,0.5-0.7C199.6,15.2,199.7,15.1,199.7,15.1"/>
				<path class="st0" d="M213.4,17.7L213.4,17.7c-0.2,0.3-0.4,0.6-0.6,0.9v1.7c0.1-0.1,0.5-0.5,0.6-0.7c0.1-0.1,0.1-0.2,0.2-0.3
					c0.1-0.1,0.1-0.2,0.2-0.3c0.8-0.9,1.1-2.1,0.9-3.3l0,0c0-0.1-0.1-0.2-0.1-0.3c0-0.1-0.1-0.2-0.1-0.3c0-0.1-0.1-0.1-0.1-0.2
					c-0.1-0.1-0.2-0.2-0.3-0.3c-0.1-0.1-0.3-0.2-0.4-0.3c-0.1-0.1-0.2-0.1-0.4-0.1c-0.2-0.1-0.5-0.1-0.7-0.1c-0.2,0-0.4,0-0.5,0.1
					c-0.1,0-0.2,0-0.3,0.1c-0.1,0-0.2,0.1-0.3,0.1c-0.2,0.1-0.5,0.2-0.7,0.3c-0.1,0-0.1,0.1-0.2,0.1c0,0-0.1,0-0.1,0.1
					c-0.1,0-0.2,0.1-0.3,0.2c-0.2,0.1-0.4,0.3-0.6,0.4c-0.1,0.1-0.2,0.1-0.2,0.2c-0.1,0.1-0.1,0.1-0.2,0.2c-0.1,0.1-0.2,0.2-0.4,0.3
					c-0.2,0.2-0.3,0.3-0.5,0.5c-0.1,0.1-0.1,0.1-0.2,0.2c-0.1,0.1-0.1,0.2-0.2,0.3c-0.1,0.1-0.1,0.2-0.2,0.3c-0.2,0.3-0.4,0.7-0.5,1
					c0,0.1-0.2,0.4-0.2,0.5c0.2,0.1,0.4,0.2,0.7,0.2c0.1,0,0.3,0,0.4-0.1c0-0.1,0.1-0.3,0.2-0.4c0.2-0.4,0.4-0.7,0.6-1
					c0.1-0.1,0.1-0.2,0.2-0.2c0.1-0.1,0.2-0.2,0.3-0.3c0.1-0.1,0.1-0.2,0.2-0.2c0,0,0.1-0.1,0.1-0.1c0,0,0,0,0.1-0.1
					c0.1-0.1,0.2-0.1,0.2-0.2s0.2-0.1,0.2-0.2c0.1-0.1,0.1-0.1,0.2-0.2c0.1-0.1,0.2-0.1,0.3-0.2c0.1-0.1,0.2-0.1,0.3-0.2
					c0.3-0.2,0.6-0.3,1-0.4c0.2,0,0.4-0.1,0.5-0.1c0,0,0,0,0.1,0c0.1,0,0.2,0,0.3,0l0,0c0.3,0.1,0.5,0.3,0.6,0.6c0,0,0,0,0,0
					c0,0.1,0,0.3,0,0.4C213.7,16.9,213.6,17.3,213.4,17.7"/>
				<path class="st0" d="M212.3,15.9c-0.3,0.1-0.6,0.1-0.8,0.3c-0.2,0.1-0.3,0.2-0.5,0.3v4.2h1.3V15.9z"/>
				<path class="st0" d="M200.9,11.5h-0.7v-1.1h0.7c0.3,0,0.6,0,0.9,0.2c0.1,0.1,0.1,0.1,0.1,0.2c0,0.1,0,0.2,0,0.3
					c0,0.1-0.2,0.2-0.3,0.3c-0.1,0-0.3,0.1-0.4,0.1C201.1,11.5,201,11.5,200.9,11.5 M200.2,12.6h0.8l1.1,1.9h1.4l-1.1-1.9l-0.1-0.2
					c0.5-0.1,0.9-0.5,1-1c0-0.1,0.1-0.3,0.1-0.5c0-0.3-0.1-0.6-0.2-0.9c0-0.1-0.1-0.1-0.1-0.2c-0.1-0.1-0.1-0.1-0.2-0.2
					c-0.6-0.3-1.2-0.5-1.9-0.4h-1.9v5.2h1.3V12.6z"/>
				<path class="st0" d="M213.9,23.9c0,0.2,0.1,0.3,0.2,0.3c0.1,0,0.2-0.1,0.2-0.3c0-0.2-0.1-0.3-0.2-0.3
					C214,23.6,213.9,23.7,213.9,23.9 M213.5,22.9h0.4v0.6c0.1-0.1,0.2-0.2,0.3-0.2c0.3,0,0.5,0.2,0.5,0.7c0,0.4-0.2,0.7-0.5,0.7
					c-0.1,0-0.2-0.1-0.3-0.1v0.1h-0.4V22.9z"/>
				<path class="st0" d="M215,25v-0.3h0.1c0.1,0,0.2,0,0.2-0.1l0,0l-0.4-1.3h0.4l0.2,0.8l0.2-0.8h0.4l-0.5,1.3
					c-0.1,0.3-0.2,0.4-0.5,0.4L215,25z"/>
			</g>
		</g>
		<polygon class="st0" points="217.2,22.9 217.5,24.1 217.9,22.9 218.3,22.9 217.8,24.6 217.3,24.6 216.8,22.9 		"/>
		<rect x="218.6" y="22.9" class="st0" width="0.4" height="1.7"/>
		<path class="st0" d="M219.9,23.9h0.4l-0.2-0.6L219.9,23.9z M219.9,22.9h0.4l0.6,1.7h-0.4l-0.1-0.3h-0.6l-0.1,0.3h-0.4L219.9,22.9z
			"/>
		<g>
			<g>
				<path class="st0" d="M208,20.7c0.1,0,0.2,0,0.2,0s0.2,0,0.2,0c0.9-0.1,1.5-0.8,1.6-1.6c0-0.4-0.2-0.8-0.6-1
					c-0.3,0.4-0.5,0.8-0.7,1.3l0,0c-0.1,0.2-0.2,0.3-0.4,0.3c-0.1,0-0.2,0.1-0.3,0.1c-0.1,0-0.2,0-0.3,0c-0.3,0-0.5,0-0.8-0.2
					c-0.1,0-0.2-0.1-0.2-0.1c-0.1-0.1-0.1-0.1-0.2-0.2c0-0.1-0.1-0.2-0.1-0.2l-1.3,0.2c0.1,0.6,0.6,1.1,1.1,1.4
					c0.1,0,0.2,0.1,0.2,0.1c0.1,0,0.2,0.1,0.2,0.1C207.2,20.7,207.6,20.7,208,20.7"/>
				<path class="st0" d="M224.6,25c-2.3,1.3-4.9,2-7.6,2c-0.2,0-0.4,0-0.6,0c-2.3,0-4.6-0.8-6.4-2.1c-0.4-0.3-0.8-0.7-1.1-1.2
					c-0.2-0.3-0.4-0.6-0.5-1c-0.2-0.4-0.3-0.9-0.3-1.4c0,0,0-0.1,0-0.1c-0.4,0-0.7,0-1.1-0.1c0,0,0,0.1,0,0.1l0,0.1
					c0,0.7,0.2,1.4,0.5,2c0.1,0.3,0.3,0.7,0.5,1c0.4,0.6,0.9,1,1.4,1.5c2.1,1.5,4.5,2.3,7.1,2.3c0.2,0,0.4,0,0.6,0
					c2.8,0,5.6-0.8,8.1-2.1L224.6,25z"/>
				<path class="st0" d="M7.7,14.5c0.2,0,0.3,0,0.5,0c0,0,0.1,0,0.1,0c1.5-0.2,2.8-0.9,3.8-2c2.3-2.6,2.2-6.5-0.4-8.9
					c-0.1-0.1-0.2-0.2-0.3-0.2c-1.3-1.1-3.1-1.6-4.8-1.2C5.3,2.4,4.2,3.1,3.3,4.1c-1.9,2.1-2.2,5.2-0.7,7.6
					C3.7,13.5,5.6,14.5,7.7,14.5 M15.4,8.6c-0.1,2.6-1.6,4.9-4,6c-2.9,1.6-6.6,1.1-9-1.1c-1.4-1.3-2.3-3.1-2.4-5
					c-0.1-1.9,0.6-3.8,2-5.2c1.6-1.7,4-2.6,6.3-2.4c1.8,0.1,3.6,0.9,4.9,2.2C14.6,4.6,15.4,6.6,15.4,8.6"/>
				<path class="st0" d="M37.5,7.4c0,0.4,0.1,0.9,0.2,1.3c0.2,0.6,0.9,1,1.5,0.9c0.6,0,1.2-0.4,1.4-1c0.3-0.8,0.3-1.7,0-2.5
					c-0.2-0.6-0.8-1-1.5-1c-0.7,0-1.3,0.4-1.5,1C37.6,6.5,37.5,7,37.5,7.4 M37.1,10.1c-0.7-0.5-1.1-1.2-1.3-2
					c-0.4-1.7,0.7-3.5,2.5-3.8c0.2,0,0.3-0.1,0.5-0.1c0.7-0.1,1.5,0,2.2,0.3c0,0,0.1,0,0.1,0c0-0.2,0.1-0.5,0.1-0.7
					c0.3-1.1,1.4-1.7,2.5-1.5c0.5,0,0.8,0.4,0.8,0.9c0,0,0,0,0,0c0,0.4-0.4,0.7-0.7,0.7c-0.1,0-0.2,0-0.3-0.1
					c-0.2-0.2-0.6-0.2-0.9-0.1C42.2,3.9,42,4.2,42,4.6c0,0.2,0,0.4,0,0.6c0,0.1,0.1,0.1,0.1,0.2c1,1.3,0.9,3.1-0.2,4.3
					c-0.8,0.8-1.8,1.1-2.9,1c-0.2,0-0.3,0-0.5-0.1c-0.8-0.1-1.5,0.4-1.6,1.2c-0.1,0.5,0.3,1,0.8,1.1c0.1,0,0.1,0,0.2,0
					c0.5,0,1.1,0,1.7,0c0.8,0,1.6,0,2.4,0c0.2,0,0.3,0,0.4,0.1c0.5,0.1,0.9,0.7,0.8,1.2c0,0.2-0.2,0.4-0.3,0.6
					c-0.1,0.1-0.3,0.2-0.4,0.3c-0.2-0.6-0.7-0.6-1.2-0.6c-1.1,0-2.1,0-3.2,0c-0.5,0-1-0.1-1.5-0.4c-0.7-0.4-1.1-1.1-1.1-1.8
					C35.4,11.3,36,10.4,37.1,10.1C37,10.1,37.1,10.1,37.1,10.1"/>
				<path class="st0" d="M51.5,8.5c0-0.1,0-0.2,0-0.3c0-0.6-0.1-1.1-0.3-1.7c-0.2-0.9-1.2-1.5-2.1-1.2c0,0,0,0-0.1,0
					c-0.7,0.2-1.3,0.6-1.8,1.2c0,0.1,0,0.1,0,0.2c0,0.4,0.1,0.9,0.1,1.3c0,0.7,0,1.4,0,2.1c0,0.1,0,0.1,0.1,0.2
					c0.3,0.4,0.7,0.7,1.1,0.9c0.8,0.5,1.9,0.2,2.4-0.6c0-0.1,0.1-0.1,0.1-0.2C51.4,9.9,51.5,9.2,51.5,8.5 M47.4,11.8
					c0,0.9,0,1.7,0,2.5c0,0.2,0.1,0.3,0.4,0.3c0.2,0,0.5,0,0.7,0v0.8h-3.7v-0.9c0.2,0,0.4,0,0.6,0c0.3,0,0.4-0.1,0.4-0.4
					c0-0.2,0-0.4,0-0.6c0-1.8,0-3.6,0-5.4c0-0.8-0.1-1.6-0.4-2.3c0,0,0-0.1,0-0.1c-0.2-0.5-0.4-0.6-0.9-0.4
					c-0.1-0.2-0.1-0.3-0.2-0.5c0.7-0.3,1.4-0.6,2.1-0.9c0.2,0.5,0.4,1,0.7,1.5c0.2-0.2,0.3-0.4,0.5-0.5c0.9-0.8,2.2-1.1,3.4-0.8
					c0.9,0.3,1.6,1,1.9,1.9c0.3,1,0.5,2,0.4,3c0,0.7-0.2,1.4-0.4,2c-0.5,1.2-1.8,2-3.2,1.8c-0.7-0.1-1.4-0.3-1.9-0.8
					C47.6,12,47.5,11.9,47.4,11.8"/>
				<path class="st0" d="M22.6,8.4L22.6,8.4c0-0.5,0-1.1,0-1.6c0-0.1,0-0.1-0.1-0.2c-0.3-0.4-0.7-0.7-1.2-1
					c-0.6-0.3-1.3-0.2-1.8,0.1C19.2,6,19,6.4,18.8,6.9c-0.2,0.9-0.3,1.9-0.1,2.8c0.1,0.4,0.2,0.8,0.5,1.2c0.3,0.6,1,0.9,1.6,0.8
					c0.7-0.1,1.3-0.4,1.8-1c0.1-0.1,0.1-0.2,0.1-0.3C22.7,9.7,22.7,9.1,22.6,8.4 M24.3,12.9c-0.4-0.4-0.7-0.8-1.1-1.2
					c-0.1,0.1-0.2,0.2-0.3,0.3c-0.6,0.6-1.4,0.9-2.2,0.9c-0.9,0.1-1.7-0.2-2.4-0.8c-0.6-0.5-1-1.3-1.2-2c-0.3-1.3-0.3-2.8,0.2-4.1
					c0.3-1,1.2-1.7,2.3-1.9c1-0.2,2.1,0.1,2.9,0.9c0.1,0.1,0.2,0.1,0.3,0.2V2.3c0-0.3-0.1-0.4-0.4-0.4c-0.2,0-0.4,0-0.6,0
					c0,0,0,0,0,0V1h2.6v0.2c0,2.8,0,5.7,0,8.5c0,0.3,0,0.5,0.1,0.8c0.1,0.5,0.3,0.9,0.7,1.2c0.1,0.1,0.1,0.1,0.2,0.2
					C24.9,12.3,24.6,12.6,24.3,12.9"/>
				<path class="st0" d="M31.5,8.9c-0.4,0-0.8,0-1.1-0.1c-0.5,0-1,0-1.4,0.2c-0.6,0.3-0.9,0.9-0.8,1.5c0,0.5,0.4,1,1,1.1
					c0.9,0.2,1.8-0.2,2.4-0.9c0-0.1,0-0.1,0-0.2c0-0.2,0-0.5,0-0.7C31.5,9.5,31.5,9.2,31.5,8.9 M31.5,8c0-0.4,0-0.7,0-1.1
					c0-0.3,0-0.6,0-0.9c0-0.4-0.3-0.8-0.8-0.8c-0.5-0.1-1.1-0.1-1.6,0.1c-0.3,0.1-0.5,0.3-0.6,0.5c-0.1,0.4-0.4,0.6-0.8,0.6
					c0,0-0.1,0-0.1,0c-0.4-0.1-0.6-0.6-0.5-1c0.1-0.4,0.4-0.7,0.7-0.8c0.4-0.2,0.8-0.3,1.2-0.4c0.8-0.1,1.6-0.1,2.5,0
					c0.9,0.1,1.6,1,1.6,1.9c0,1.2,0,2.4,0,3.6c-0.1,0.8,0.2,1.6,0.8,2.1c0.1,0,0.1,0.1,0.2,0.2c0,0,0,0,0,0c-0.3,0.3-0.6,0.6-1,0.9
					c-0.5-0.3-0.8-0.8-1.1-1.3c0,0.1-0.1,0.1-0.1,0.1c-1,1.1-2.7,1.4-4.1,0.8c-0.7-0.4-1.2-1.1-1.2-1.9c0-0.3,0-0.7,0.1-1
					c0.2-0.8,0.8-1.4,1.6-1.6c0.7-0.2,1.4-0.3,2.1-0.2C30.7,8,31.1,8,31.5,8"/>
				<path class="st0" d="M5.1,18.9c0.2,0,0.4,0,0.5,0c0.2,0,0.4-0.1,0.4-0.3c0-0.2,0-0.3,0-0.5c0-0.1-0.1-0.3-0.3-0.3
					c-0.2-0.1-0.5-0.1-0.7,0V18.9z M4.3,17.8v-0.2c0.6,0,1.2,0,1.7,0c0.4,0,0.6,0.3,0.6,0.8c0,0.5-0.2,0.7-0.6,0.8
					c-0.2,0-0.4,0-0.6,0.1c-0.1,0-0.2,0-0.3,0c0,0.3,0,0.6,0,0.9c0,0,0.1,0.1,0.1,0.1c0.1,0,0.2,0,0.2,0c0,0.1,0,0.1,0,0.2H4.3
					c0-0.1,0-0.1,0-0.2c0,0,0,0,0,0c0.3,0,0.3,0,0.3-0.3v-1.8C4.6,17.8,4.6,17.8,4.3,17.8C4.4,17.8,4.3,17.8,4.3,17.8"/>
				<path class="st0" d="M20.2,19.4L20.2,19.4c0-0.1,0-0.2,0-0.3c0-0.2-0.2-0.4-0.4-0.4c-0.2-0.1-0.4,0-0.5,0.2
					c-0.2,0.4-0.2,0.8,0,1.2c0.1,0.2,0.3,0.2,0.5,0.1c0.2-0.1,0.3-0.2,0.3-0.4C20.2,19.6,20.2,19.5,20.2,19.4 M20.3,20.2
					c-0.2,0.2-0.4,0.3-0.6,0.3c-0.4,0-0.7-0.2-0.9-0.6c-0.1-0.4-0.1-0.7,0-1.1c0.1-0.4,0.6-0.6,1-0.5c0.1,0,0.2,0.1,0.2,0.1
					c0,0,0.1,0.1,0.1,0.1c0-0.3,0-0.5,0-0.7c0-0.1-0.1-0.1-0.2-0.2v-0.2h0.6v0.2c0,0.6,0,1.2,0,1.8c0,0.3,0.1,0.5,0.3,0.7
					c-0.1,0.1-0.1,0.2-0.2,0.2C20.5,20.4,20.4,20.3,20.3,20.2"/>
				<path class="st0" d="M30.5,19.4L30.5,19.4l0-0.4c0-0.2-0.2-0.4-0.4-0.4c-0.2-0.1-0.4,0-0.5,0.2c-0.2,0.4-0.2,0.8,0,1.1
					c0.1,0.2,0.3,0.3,0.5,0.2c0.2-0.1,0.4-0.2,0.3-0.4C30.5,19.6,30.5,19.5,30.5,19.4 M30.5,18.5c0-0.2,0-0.5,0-0.7
					c0-0.1-0.1-0.1-0.3-0.2v-0.1h0.6v0.2c0,0.6,0,1.2,0,1.9c0,0.3,0,0.5,0.2,0.7c-0.1,0.1-0.1,0.1-0.2,0.2l-0.3-0.3
					c-0.2,0.2-0.4,0.3-0.7,0.3c-0.4,0-0.7-0.2-0.8-0.5c-0.1-0.4-0.1-0.8,0-1.1c0.1-0.4,0.6-0.6,1-0.5c0.1,0,0.2,0.1,0.2,0.1
					C30.4,18.4,30.4,18.5,30.5,18.5"/>
				<path class="st0" d="M39.8,18.5v-0.2h0.7v0.8c0,0.2,0,0.3,0,0.5c0,0.2,0,0.5,0.2,0.6c-0.1,0.1-0.2,0.2-0.2,0.3
					c-0.1-0.2-0.2-0.3-0.4-0.4c-0.2,0.2-0.5,0.4-0.8,0.4c-0.3,0-0.6-0.2-0.6-0.5c0,0,0,0,0,0c0-0.4,0-0.7,0-1.1c0-0.2,0-0.2-0.2-0.3
					v-0.2h0.7c0,0.1,0,0.2,0,0.2c0,0.4,0,0.7,0,1.1c0,0.2,0,0.3,0.2,0.4c0.2,0.1,0.4,0,0.5-0.1c0.2-0.1,0.3-0.3,0.3-0.5
					c0-0.2,0-0.4,0-0.7C40,18.6,40,18.6,39.8,18.5"/>
				<path class="st0" d="M10.5,18.5v-0.2h0.7v0.5c0,0.3,0,0.5,0,0.8c0,0.2,0.1,0.5,0.3,0.6c-0.1,0.1-0.2,0.2-0.3,0.3
					c-0.1-0.1-0.2-0.3-0.4-0.4c-0.1,0.1-0.1,0.1-0.2,0.2c-0.2,0.2-0.5,0.2-0.7,0.2c-0.3,0-0.5-0.3-0.5-0.5c0-0.4,0-0.7,0-1.1
					c0-0.3,0-0.3-0.3-0.3v-0.2h0.7c0,0.2,0,0.4,0,0.6c0,0.3,0,0.5,0,0.8c0,0.2,0.2,0.4,0.4,0.4c0.1,0,0.1,0,0.2,0
					c0.2-0.1,0.4-0.3,0.4-0.6v-0.7C10.7,18.6,10.7,18.6,10.5,18.5"/>
				<path class="st0" d="M44.7,18.5v-0.2h0.7c0,0.1,0,0.1,0,0.2c0,0.4,0,0.7,0,1.1c0,0.2,0,0.4,0.2,0.5c0.2,0.1,0.4,0,0.6-0.2
					c0.1-0.1,0.2-0.3,0.2-0.4c0-0.2,0-0.5,0-0.7c0-0.2,0-0.2-0.3-0.3v-0.2h0.7c0,0.1,0,0.1,0,0.2c0,0.4,0,0.7,0,1.1
					c0,0.2,0.1,0.5,0.3,0.6c-0.1,0.1-0.2,0.2-0.3,0.3c-0.1-0.1-0.2-0.3-0.3-0.4c-0.2,0.2-0.5,0.4-0.8,0.4c-0.3,0-0.6-0.2-0.6-0.5
					c0,0,0,0,0,0c0-0.4,0-0.7,0-1.1C45,18.6,45,18.6,44.7,18.5"/>
				<path class="st0" d="M7.4,19.3c0,0.2,0.1,0.3,0.1,0.5c0.1,0.2,0.2,0.3,0.4,0.3c0.2,0,0.4-0.1,0.5-0.3c0.1-0.3,0.1-0.7,0-1
					c-0.1-0.2-0.3-0.3-0.5-0.3c-0.2,0-0.4,0.1-0.4,0.3C7.4,19,7.4,19.2,7.4,19.3 M7.9,20.4c-0.7,0-1-0.5-1-1.1c0-0.1,0-0.2,0-0.3
					c0.1-0.5,0.5-0.8,1-0.8c0,0,0,0,0,0c0.5,0,0.9,0.4,0.9,0.8c0,0.2,0,0.4,0,0.5C8.8,20.1,8.4,20.5,7.9,20.4
					C7.9,20.5,7.9,20.4,7.9,20.4"/>
				<path class="st0" d="M23.4,19.3c0,0.2,0.1,0.4,0.1,0.5c0.1,0.2,0.2,0.3,0.4,0.3c0.2,0,0.4-0.1,0.4-0.3c0.1-0.3,0.1-0.7,0-1.1
					c-0.1-0.2-0.2-0.3-0.4-0.3c-0.2,0-0.4,0.1-0.4,0.3C23.4,19,23.4,19.2,23.4,19.3 M24.9,19.4c0,0.1,0,0.2-0.1,0.4
					c-0.1,0.5-0.7,0.8-1.2,0.7c-0.3-0.1-0.6-0.3-0.7-0.7c-0.1-0.3-0.1-0.6,0-0.8c0.1-0.4,0.6-0.7,1-0.6c0.4,0,0.8,0.3,0.9,0.8
					C24.9,19.1,24.9,19.2,24.9,19.4"/>
				<path class="st0" d="M17,19.1c0-0.4-0.1-0.6-0.4-0.6c-0.3,0-0.5,0.2-0.5,0.6H17z M17.4,20.2c-0.4,0.3-0.8,0.4-1.3,0.2
					c-0.4-0.2-0.6-0.5-0.6-0.9c0-0.1,0-0.3,0-0.4c0.1-0.5,0.6-0.9,1.1-0.7c0.1,0,0.1,0,0.2,0.1c0.3,0.1,0.4,0.4,0.4,0.6
					c0.1,0.5,0.1,0.5-0.4,0.5c-0.3,0-0.6,0-0.9,0c0,0,0,0,0,0c0,0.2,0,0.5,0.3,0.6c0.3,0.1,0.7,0.1,0.9-0.1
					C17.3,20,17.3,20.1,17.4,20.2"/>
				<path class="st0" d="M32.8,19.1c0-0.4-0.2-0.6-0.5-0.6c-0.3,0-0.5,0.2-0.4,0.5c0,0,0,0.1,0,0.1H32.8z M31.8,19.4
					c0,0.3,0,0.5,0.3,0.7c0.3,0.1,0.7,0.1,0.9-0.1c0.1,0.1,0.1,0.2,0.2,0.2c-0.3,0.3-0.8,0.4-1.2,0.2c-0.3-0.1-0.6-0.4-0.6-0.8
					c-0.1-0.3,0-0.6,0.1-0.9c0.2-0.4,0.7-0.5,1.1-0.4c0.4,0.1,0.6,0.4,0.6,0.7c0,0.4,0,0.4-0.4,0.4H31.8"/>
				<path class="st0" d="M43.1,19.1h0.9c0-0.4-0.1-0.6-0.4-0.6C43.3,18.5,43.2,18.7,43.1,19.1 M43.1,19.4c0,0.3,0,0.5,0.3,0.7
					c0.3,0.1,0.6,0.1,0.9-0.1c0.1,0.1,0.1,0.1,0.2,0.2c0,0-0.1,0.1-0.2,0.1c-0.3,0.2-0.7,0.2-1,0.1c-0.3-0.1-0.5-0.3-0.5-0.5
					c-0.1-0.3-0.1-0.7,0-1.1c0.2-0.4,0.6-0.6,1-0.5c0.4,0,0.7,0.4,0.7,0.8c0,0.3,0,0.3-0.3,0.3H43.1"/>
				<path class="st0" d="M37.6,19.4c-0.2,0-0.4,0-0.6,0.1c-0.2,0.1-0.3,0.2-0.2,0.4c0,0.2,0.2,0.3,0.3,0.3
					C37.6,20.1,37.8,20,37.6,19.4 M38.3,20.2c-0.1,0.1-0.2,0.2-0.3,0.2c-0.1-0.1-0.2-0.2-0.3-0.3c-0.2,0.2-0.5,0.3-0.8,0.3
					c-0.3,0-0.6-0.3-0.6-0.6c0-0.3,0.2-0.6,0.5-0.6c0.3,0,0.5-0.1,0.8-0.1c0-0.1,0-0.1,0-0.2c0-0.5-0.2-0.5-0.6-0.4
					c-0.1,0-0.1,0.1-0.1,0.1c0,0.1-0.1,0.1-0.2,0.1c0,0,0,0,0,0c-0.1,0-0.1-0.1-0.1-0.2c0,0,0,0,0,0c0-0.1,0.1-0.2,0.2-0.2
					c0.3-0.1,0.7-0.1,1,0c0.2,0.1,0.3,0.2,0.3,0.4c0,0.3,0,0.5,0,0.8C38,19.8,38.1,20.1,38.3,20.2"/>
				<path class="st0" d="M49.9,20.5c-0.2,0-0.4-0.1-0.5-0.1c-0.1,0-0.2-0.1-0.2-0.2c0-0.1,0-0.2,0.1-0.2c0.1-0.1,0.2,0,0.2,0
					c0,0,0,0,0,0c0.2,0.2,0.6,0.3,0.8,0.1c0.1-0.1,0.1-0.2,0.1-0.3c0-0.1-0.1-0.2-0.2-0.2c-0.2-0.1-0.5-0.1-0.7-0.2
					c-0.2-0.1-0.4-0.2-0.4-0.5c0-0.2,0.1-0.4,0.3-0.6c0.2-0.1,0.5-0.2,0.7-0.1c0.1,0,0.3,0,0.4,0.1c0.1,0.1,0.1,0.1,0.1,0.2
					c0,0-0.1,0.1-0.1,0.1c-0.1,0-0.2,0-0.2-0.1c-0.2-0.2-0.5-0.2-0.7,0c-0.1,0.1-0.1,0.3,0,0.3c0,0,0.1,0.1,0.1,0.1
					c0.2,0.1,0.4,0.1,0.6,0.1c0.3,0,0.5,0.3,0.5,0.6c0,0.3-0.2,0.6-0.6,0.6C50.1,20.4,50,20.4,49.9,20.5L49.9,20.5"/>
				<path class="st0" d="M34.3,20.5c-0.2,0-0.4-0.1-0.6-0.1c-0.1,0-0.2-0.1-0.2-0.2c0-0.1,0-0.2,0.1-0.2c0.1,0,0.2,0,0.2,0.1
					c0.2,0.2,0.6,0.3,0.9,0.1c0.1-0.1,0.1-0.2,0.1-0.3c0-0.1-0.1-0.2-0.2-0.2c-0.2-0.1-0.4-0.1-0.7-0.2c-0.3-0.1-0.5-0.4-0.4-0.7
					c0-0.1,0.1-0.2,0.1-0.2c0.1-0.1,0.2-0.2,0.3-0.2c0.3-0.1,0.5-0.1,0.8,0c0.1,0,0.2,0.1,0.2,0.2c0,0.1,0,0.2,0,0.2
					c-0.1,0-0.2,0-0.3,0c-0.2-0.2-0.4-0.2-0.6-0.1c-0.1,0-0.2,0.1-0.2,0.3c0,0.1,0.1,0.2,0.2,0.2c0.2,0,0.4,0.1,0.6,0.1
					c0.3,0,0.5,0.3,0.5,0.5c0,0.3-0.1,0.6-0.4,0.6C34.6,20.4,34.4,20.5,34.3,20.5"/>
				<path class="st0" d="M41.6,18.3h0.7v0.3h-0.7c0,0.1,0,0.2,0,0.3c0,0.3,0,0.6,0,0.9c0,0.3,0.2,0.4,0.5,0.3c0.1,0,0.2-0.1,0.2-0.2
					c0.1,0.1,0.1,0.1,0.2,0.2c-0.2,0.3-0.5,0.4-0.9,0.3c-0.3,0-0.5-0.3-0.4-0.6c0-0.3,0-0.7,0-1c0-0.1,0-0.1,0-0.2h-0.3v-0.3
					c0.5,0,0.5-0.4,0.5-0.8h0.3L41.6,18.3z"/>
				<path class="st0" d="M26.1,18.7c0-0.1,0-0.1,0-0.2c0,0,0-0.1,0-0.1c0.5,0,0.5-0.4,0.5-0.8h0.3v0.8h0.7v0.3h-0.7
					c0,0.4,0,0.9,0,1.3c0,0.2,0.2,0.3,0.4,0.2c0.1,0,0.2-0.1,0.3-0.2c0,0.1,0.1,0.1,0.2,0.2c-0.2,0.3-0.6,0.4-0.9,0.3
					c-0.3-0.1-0.5-0.3-0.4-0.6c0-0.4,0-0.8,0-1.2H26.1z"/>
				<path class="st0" d="M48.2,20.1v0.2h-0.9v-0.2c0.2,0,0.3,0,0.2-0.3c0-0.3,0-0.6,0-0.9c0-0.2,0-0.4-0.3-0.4c0,0,0-0.1-0.1-0.1
					c0.2-0.1,0.3-0.1,0.5-0.2c0.1,0.1,0.1,0.3,0.2,0.4c0.1-0.2,0.3-0.4,0.6-0.4c0.1,0,0.3,0,0.4,0.1c0.1,0.1,0.1,0.2,0.1,0.3
					c0,0,0,0,0,0c-0.1,0.1-0.2,0.1-0.3,0c-0.2-0.1-0.3-0.1-0.4,0C48,18.8,48,19,48,19.2c0,0.2,0,0.5,0,0.7
					C48,20.1,48,20.1,48.2,20.1"/>
				<path class="st0" d="M22.1,20.2v0.2h-0.9v-0.2c0.3,0,0.3,0,0.3-0.3c0-0.3,0-0.6,0-0.9c0-0.2,0-0.4-0.3-0.4c0,0,0-0.1-0.1-0.1
					c0.2-0.1,0.3-0.1,0.5-0.2c0.1,0.1,0.1,0.3,0.2,0.4c0.1-0.2,0.3-0.4,0.6-0.4c0.1,0,0.3,0,0.4,0.1c0.1,0.1,0.2,0.2,0.1,0.3
					c0,0,0,0,0,0c-0.1,0.1-0.2,0.1-0.3,0c0,0,0,0,0,0c-0.1-0.1-0.3-0.1-0.4,0c0,0,0,0,0,0c-0.2,0.1-0.3,0.3-0.2,0.5
					c0,0.2,0,0.5,0,0.7C21.8,20.1,21.8,20.1,22.1,20.2"/>
				<path class="st0" d="M12.6,20.2v0.2h-0.9v-0.2c0.3-0.1,0.3-0.1,0.2-0.3c0-0.3,0-0.6,0-0.9c0-0.2,0-0.4-0.3-0.4
					c0,0,0-0.1-0.1-0.1c0.2-0.1,0.3-0.1,0.5-0.2c0.1,0.1,0.1,0.3,0.2,0.4c0.1-0.2,0.3-0.4,0.6-0.4c0.1,0,0.2,0,0.4,0.1
					c0.1,0.1,0.2,0.2,0.1,0.3c0,0,0,0,0,0c-0.1,0.1-0.2,0.1-0.3,0c0,0,0,0,0,0c-0.1-0.1-0.3-0.1-0.4,0c0,0,0,0,0,0
					c-0.2,0.1-0.2,0.3-0.2,0.5c0,0.2,0,0.5,0,0.7C12.3,20.1,12.3,20.1,12.6,20.2"/>
				<path class="st0" d="M14.5,17.7v-0.2h0.6v2.4c0,0.2,0,0.2,0.3,0.3v0.2h-0.9v-0.2c0.2,0,0.2,0,0.2-0.3V18
					C14.7,17.7,14.7,17.7,14.5,17.7"/>
				<path class="st0" d="M25.8,20.1c0.1,0,0.2,0,0.2,0v0.2h-0.9v-0.2c0,0,0.1,0,0.1,0c0,0,0.1-0.1,0.1-0.1c0-0.5,0-0.9,0-1.4
					c0-0.2-0.2-0.1-0.3-0.1v-0.2h0.7L25.8,20.1z"/>
				<path class="st0" d="M25.9,17.7c0,0.1-0.1,0.2-0.2,0.3c0,0,0,0-0.1,0c-0.1,0-0.2-0.1-0.2-0.2c0,0,0,0,0-0.1
					c0-0.1,0.1-0.3,0.3-0.3C25.7,17.4,25.9,17.5,25.9,17.7C25.9,17.7,25.9,17.7,25.9,17.7"/>
				<path class="st0" d="M6.2,5.3c0,0.1,0,0.2,0,0.2C6.2,6,5.8,6.3,5.3,6.3c-0.1,0-0.1,0-0.2,0C4.8,6.1,4.6,5.7,4.7,5.3
					C4.7,5,4.9,4.8,5.2,4.6C5.5,4.4,6,4.3,6.4,4.2c0.7-0.1,1.5-0.1,2.2,0c1,0.1,1.8,0.9,1.7,1.9c0,0,0,0,0,0.1c0,1.2,0,2.5,0,3.7
					c0,0.1,0,0.2,0.1,0.3c0.3,0.3,0.7,0.7,1,1c-0.4,0.3-0.8,0.7-1.2,1.1c-0.5-0.5-1-1-1.5-1.6c-0.2,0.3-0.4,0.6-0.6,0.8
					c-0.7,0.9-2,1.1-3,0.5c-0.7-0.4-1.1-1.2-0.9-2c0.1-0.9,1-1.6,1.9-1.5c0,0,0,0,0.1,0v2h2.5V5.3H6.2z"/>
				<path class="st0" d="M108.1,5.5h-1.7v7.2H104c0-0.3,0-0.5,0-0.8V5.5h-1.3c0-0.1,0-1.7,0-1.9h1.3c0,0,0-0.1,0-0.1V2.2
					c0-0.2,0-0.4,0.1-0.6c0.1-0.4,0.3-0.7,0.6-0.9c0.3-0.2,0.7-0.4,1-0.5c0.3-0.1,0.5-0.1,0.8-0.1c0,0,0.1,0,0.1,0h0.6
					c0,0,0.1,0,0.1,0c0.2,0,0.3,0,0.5,0c0.1,0,0.2,0,0.3,0v1.8c-0.3,0-0.6,0-0.9,0c-0.1,0-0.3,0-0.4,0.1c-0.2,0-0.3,0.2-0.3,0.3
					c0,0.1,0,0.2,0,0.3c0,0.3,0,0.6,0,0.9c0,0,0,0.1,0,0.1c0.1,0,0.1,0,0.2,0l1.5,0L108.1,5.5z"/>
				<path class="st0" d="M65.3,1.3c0,0,0.1,0,0.1,0c0.3-0.1,0.6-0.3,0.8-0.4c0,0,0.1,0,0.1-0.1l0,0l0,0c0,3.9,0,7.9,0,11.8
					c0,0,0,0,0,0.1c0,0,0,0,0,0h-1.1L65.3,1.3z"/>
				<path class="st0" d="M93.8,8.1c-0.2,0-0.3,0.1-0.4,0.1c-0.4,0.1-0.7,0.2-1.1,0.5c-0.4,0.3-0.7,0.7-0.7,1.2c0,0.3,0,0.6,0.1,0.8
					c0.1,0.2,0.4,0.4,0.6,0.5c0.4,0.1,0.8-0.1,1.1-0.4c0.1-0.1,0.1-0.2,0.2-0.3c0.1-0.3,0.2-0.6,0.2-0.9c0-0.4,0-0.9,0-1.3V8.1z
					 M90.4,6c-0.4-0.5-0.7-0.9-1.1-1.4c0,0,0,0,0,0c0.4-0.3,0.9-0.6,1.3-0.8c0.4-0.2,0.9-0.3,1.3-0.3c0.4,0,0.8-0.1,1.2,0
					c0.6,0,1.1,0.2,1.6,0.4C95.3,4.1,95.7,4.5,96,5c0.1,0.2,0.2,0.5,0.2,0.8c0,0.1,0,0.3,0,0.4c0,1.4,0,2.9,0,4.3
					c0,0.1,0,0.3,0.1,0.4c0.1,0.2,0.2,0.3,0.4,0.3c0,0,0,0,0,0v1.6c0,0,0,0-0.1,0c-0.2,0-0.5,0-0.7,0c-0.7,0-1.3-0.4-1.7-1
					c0,0,0-0.1-0.1-0.1c0,0,0,0-0.1,0c0,0,0,0,0,0c0,0,0,0-0.1,0.1c-0.5,0.7-1.2,1.1-2,1.1c-0.5,0.1-0.9,0-1.4-0.2
					c-0.5-0.2-1-0.7-1.2-1.2c-0.3-0.9-0.3-1.9,0.2-2.7c0.3-0.5,0.7-0.9,1.2-1.2c0.4-0.2,0.9-0.4,1.4-0.6c0.5-0.1,1-0.2,1.5-0.2
					c0,0,0,0,0.1,0c0,0,0,0,0,0c0-0.3,0-0.6,0-0.9c0-0.3-0.2-0.5-0.4-0.6C93.1,5.1,93,5,92.8,5c-0.5,0-1,0.1-1.4,0.3
					c-0.3,0.2-0.5,0.3-0.8,0.5C90.5,5.9,90.5,6,90.4,6"/>
				<path class="st0" d="M82,11.8c0.4-0.5,0.7-1.1,1.1-1.6c0,0,0.1,0.1,0.1,0.1c0.2,0.2,0.3,0.3,0.5,0.5c0.4,0.3,0.8,0.5,1.3,0.5
					c0.2,0,0.3,0,0.5-0.1c0.3-0.2,0.5-0.6,0.4-0.9c0-0.1-0.1-0.2-0.2-0.3c-0.1-0.1-0.3-0.2-0.4-0.3c-0.3-0.2-0.7-0.3-1.1-0.5
					c-0.4-0.2-0.8-0.4-1.1-0.7c-0.1-0.1-0.2-0.2-0.3-0.3C82.3,7.6,82,6.9,82,6.2c0-0.5,0.1-0.9,0.3-1.3c0.3-0.6,0.9-1.1,1.6-1.3
					c0.3-0.1,0.6-0.1,1-0.1c0.9,0,1.8,0.2,2.5,0.6c0.1,0.1,0.3,0.2,0.4,0.3c-0.3,0.5-0.7,1-1,1.5c0,0-0.1,0-0.1-0.1
					c-0.2-0.1-0.5-0.3-0.7-0.4c-0.3-0.2-0.7-0.2-1-0.2c-0.1,0-0.3,0-0.4,0.1c-0.3,0.1-0.5,0.5-0.4,0.8c0,0.1,0.1,0.2,0.2,0.2
					c0.1,0.1,0.2,0.2,0.4,0.3c0.2,0.1,0.4,0.2,0.6,0.3c0.4,0.2,0.9,0.4,1.3,0.6c0.4,0.2,0.7,0.5,0.9,0.8c0.4,0.4,0.6,1,0.6,1.6
					c0,0.4,0,0.8-0.1,1.1c-0.2,0.6-0.5,1.1-1,1.4c-0.4,0.3-0.9,0.5-1.5,0.6c-1.2,0.2-2.4-0.2-3.3-0.9C82.1,11.9,82.1,11.9,82,11.8"
					/>
				<path class="st0" d="M74.2,8.3C74.1,8.3,74.1,8.3,74.2,8.3c-0.5,0-0.9,0-1.3,0c-0.4,0-0.7,0.1-1.1,0.2c-0.4,0.1-0.8,0.3-1.1,0.6
					c-0.5,0.4-0.7,1-0.6,1.6c0,0.4,0.3,0.8,0.7,1c0.3,0.1,0.6,0.2,0.9,0.1c0.3,0,0.6-0.1,0.8-0.3c0.6-0.3,1.1-0.7,1.5-1.2
					c0.1-0.1,0.1-0.1,0.1-0.2c0-0.6,0-1.2,0-1.8L74.2,8.3z M74.2,7.6C74.2,7.6,74.2,7.6,74.2,7.6c0-0.5,0-0.8,0-1.2
					c0-0.1,0-0.3-0.1-0.4c-0.1-0.3-0.2-0.5-0.5-0.6c-0.2-0.1-0.4-0.2-0.6-0.2c-0.7-0.1-1.3,0-1.9,0.3c-0.3,0.1-0.6,0.3-0.8,0.5
					c0,0-0.1,0-0.1,0.1c-0.2-0.4-0.3-0.7-0.5-1.1c0,0,0,0,0,0c0.5-0.2,1-0.5,1.5-0.6c0.6-0.2,1.2-0.2,1.8-0.2c0.3,0,0.7,0.1,1,0.2
					c0.4,0.1,0.7,0.4,0.9,0.7c0.2,0.3,0.3,0.6,0.4,1c0,0.2,0,0.3,0,0.5c0,1.4,0,2.9,0,4.3c0,0.1,0,0.3,0,0.4c0,0.1,0.1,0.2,0.2,0.3
					c0.1,0.1,0.2,0.2,0.4,0.2c0.1,0,0.2,0,0.3,0c0,0,0.1,0,0.1,0v0.9c0,0,0,0,0,0c-0.3,0-0.6,0-1-0.1c-0.2,0-0.4-0.2-0.6-0.3
					c-0.3-0.3-0.4-0.7-0.4-1.1c0,0,0-0.1,0-0.1c0,0,0-0.1-0.1-0.1c0,0,0,0,0,0c0,0,0,0-0.1,0.1c-0.3,0.3-0.5,0.5-0.8,0.8
					c-0.4,0.3-0.9,0.6-1.4,0.7c-0.5,0.1-0.9,0.1-1.4,0c-0.7-0.1-1.2-0.6-1.4-1.3c-0.3-0.8-0.2-1.8,0.4-2.5c0.3-0.3,0.6-0.6,1.1-0.8
					c0.5-0.2,1.1-0.4,1.7-0.5c0.6-0.1,1.2-0.1,1.7-0.1H74.2"/>
				<path class="st0" d="M98.5,12.7v-9h2.3v9C100.8,12.7,98.7,12.7,98.5,12.7"/>
				<path class="st0" d="M100.9,0.1v2c-0.1,0-2.1,0-2.3,0c0-0.1,0-1.9,0-2L100.9,0.1z"/>
				<path class="st0" d="M84.7,31.4h-0.4c0-0.1,0-1.7,0-1.8h0.4c0,0.1,0,0.1,0,0.2c0,0,0,0,0.1,0c0.1-0.1,0.3-0.2,0.4-0.2
					c0,0,0,0,0,0c0.2,0,0.3,0,0.5,0.1c0,0,0.1,0.1,0.1,0.1c0,0,0,0.1,0,0.1c0,0,0,0,0.1-0.1c0.1-0.1,0.2-0.2,0.4-0.3
					c0,0,0.1,0,0.1,0c0,0,0.1,0,0.1,0c0.2,0,0.4,0,0.6,0.1c0,0,0.1,0.1,0.1,0.1c0,0.1,0.1,0.2,0.1,0.3c0,0,0,0.1,0,0.1
					c0,0.4,0,0.7,0,1.1c0,0,0,0,0,0.1h-0.4v-0.1c0-0.3,0-0.6,0-0.9c0-0.1,0-0.2-0.1-0.3c0-0.1-0.1-0.1-0.2-0.1c-0.2,0-0.4,0-0.5,0.2
					C86,30.3,86,30.4,86,30.6c0,0.2,0,0.5,0,0.7v0.1h-0.4v-0.1c0-0.3,0-0.6,0-1c0-0.1,0-0.2-0.1-0.3c0-0.1-0.1-0.1-0.2-0.1
					c-0.2,0-0.4,0-0.5,0.2c-0.2,0.2-0.1,0.1-0.1,0.3c0,0.3,0,0.6,0,0.8L84.7,31.4z"/>
				<path class="st0" d="M91.6,30.6c0-0.1,0-0.1,0-0.2c0-0.1,0-0.2-0.1-0.2c0,0,0,0,0,0c-0.2-0.1-0.4-0.2-0.5-0.1
					c-0.1,0.1-0.3,0.2-0.3,0.4c-0.1,0.2,0,0.3,0.1,0.5c0.1,0.2,0.4,0.3,0.6,0.3c0,0,0,0,0.1,0c0.1,0,0.1-0.1,0.2-0.1
					c0,0,0.1-0.1,0.1-0.1C91.6,30.8,91.6,30.7,91.6,30.6 M91.6,31.3c-0.1,0-0.1,0.1-0.2,0.1c-0.1,0-0.2,0.1-0.2,0.1
					c-0.2,0-0.4,0-0.5-0.1c-0.2-0.1-0.3-0.3-0.4-0.4c0-0.1-0.1-0.2-0.1-0.3c0-0.1,0-0.2,0-0.2c0-0.2,0.2-0.4,0.3-0.5
					c0.1-0.1,0.3-0.2,0.5-0.2h0c0.2,0,0.3,0,0.4,0.1c0,0,0,0,0.1,0c0,0,0,0,0,0c0,0,0-0.1,0-0.1h0.3c0,0,0,0.1,0,0.1
					c0,0.6,0,1.2,0,1.8c0,0,0,0.1,0,0.1c0,0.1,0,0.1-0.1,0.2c0,0.2-0.2,0.3-0.3,0.4c-0.3,0.1-0.6,0.1-0.8,0
					c-0.1-0.1-0.2-0.1-0.3-0.2c0.1-0.1,0.1-0.2,0.2-0.3c0.1,0.1,0.2,0.1,0.3,0.2c0.2,0.1,0.3,0.1,0.5,0c0,0,0.1,0,0.1-0.1
					C91.6,31.7,91.6,31.5,91.6,31.3"/>
				<path class="st0" d="M68.3,20c0.1-0.1,0.2-0.1,0.3-0.2c0.1,0.1,0.1,0.1,0.2,0.2c0,0,0.1,0.1,0.1,0.1c0.3,0.1,0.5,0.1,0.8,0
					c0.2-0.1,0.2-0.2,0.1-0.4c0-0.1-0.1-0.2-0.2-0.2c-0.3-0.1-0.5-0.3-0.8-0.4c-0.2-0.1-0.3-0.3-0.4-0.5c0-0.1,0-0.2,0-0.3
					c0,0,0,0,0,0c0,0,0,0,0.1-0.1c0.1-0.2,0.3-0.3,0.6-0.4c0.2,0,0.4,0,0.5,0c0,0,0,0,0.1,0c0.2,0,0.5,0.2,0.6,0.4
					c-0.1,0.1-0.2,0.2-0.3,0.2c0,0-0.1-0.1-0.1-0.1c-0.1-0.1-0.2-0.2-0.4-0.2c-0.2,0-0.3,0-0.4,0.1c-0.1,0-0.1,0.1-0.2,0.2
					c0,0,0,0.1,0,0.1c0,0.1,0.1,0.2,0.2,0.3c0.3,0.1,0.6,0.3,0.8,0.4c0.1,0.1,0.2,0.2,0.3,0.3c0,0,0,0,0,0c0.1,0.2,0.1,0.4,0.1,0.5
					c0,0,0,0.1,0,0.1c-0.1,0.1-0.1,0.2-0.2,0.3c0,0-0.1,0.1-0.1,0.1c-0.1,0-0.2,0.1-0.3,0.1c0,0-0.1,0-0.1,0c0,0-0.1,0-0.1,0
					c-0.3,0-0.5,0-0.8-0.1c0,0-0.1,0-0.1-0.1C68.4,20.2,68.4,20.1,68.3,20"/>
				<path class="st0" d="M91.7,19.2c0.2,0,0.4,0,0.6,0c-0.1-0.3-0.2-0.5-0.3-0.8c-0.1,0.2-0.2,0.5-0.3,0.7
					C91.7,19.1,91.7,19.1,91.7,19.2 M91.8,17.8h0.3c0.3,0.9,0.7,1.8,1,2.7c-0.1,0-0.2,0-0.4,0c0,0-0.1,0-0.1-0.1
					c-0.1-0.2-0.2-0.4-0.3-0.7c-0.1-0.2,0-0.2-0.2-0.2c-0.2,0-0.4,0-0.6,0c-0.1,0-0.1,0-0.1,0.1c-0.1,0.2-0.2,0.5-0.3,0.7
					c0,0.1,0,0.1-0.1,0.1c-0.1,0-0.2,0-0.3,0C91.1,19.6,91.5,18.7,91.8,17.8"/>
				<path class="st0" d="M84.7,19.6c0-0.1,0-0.1,0-0.2c0-0.1,0-0.2-0.1-0.3l0,0C84.5,19,84.3,19,84.1,19c-0.1,0.1-0.3,0.2-0.3,0.4
					c-0.1,0.3,0.1,0.6,0.4,0.7c0.1,0,0.2,0,0.3,0c0,0,0,0,0.1,0c0.1,0,0.1-0.1,0.2-0.1c0,0,0.1-0.1,0.1-0.1
					C84.7,19.8,84.7,19.7,84.7,19.6 M84.7,18.8v-1h0.4v2.7h-0.4c0,0,0-0.1,0-0.1c-0.1,0-0.2,0.1-0.2,0.1c-0.1,0-0.1,0.1-0.2,0.1
					c0,0,0,0,0,0c-0.2,0-0.4,0-0.5-0.1c-0.2-0.1-0.3-0.3-0.4-0.4c0-0.1,0-0.1-0.1-0.2c0-0.1,0-0.2,0-0.3c0-0.2,0.2-0.4,0.4-0.6
					c0.1-0.1,0.3-0.2,0.5-0.2h0C84.4,18.6,84.5,18.6,84.7,18.8C84.7,18.7,84.7,18.8,84.7,18.8"/>
				<path class="st0" d="M76.6,30.6c0-0.1,0-0.2,0-0.3c0-0.1,0-0.1-0.1-0.1c0,0,0,0-0.1-0.1C76.3,30,76.1,29.9,76,30
					c-0.2,0.1-0.3,0.2-0.4,0.4c0,0,0,0.1,0,0.1c0,0,0,0.1,0,0.1c0,0.1,0.1,0.3,0.2,0.4c0.1,0.1,0.3,0.2,0.5,0.1c0,0,0,0,0.1,0
					c0.1,0,0.1-0.1,0.2-0.1c0,0,0.1-0.1,0.1-0.1C76.6,30.8,76.6,30.7,76.6,30.6 M76.9,31.4h-0.4c0,0,0-0.1,0-0.2
					c-0.1,0.1-0.2,0.1-0.2,0.1c-0.1,0-0.1,0.1-0.2,0.1c0,0,0,0,0,0c-0.2,0-0.4,0-0.5-0.1c-0.2-0.1-0.3-0.3-0.4-0.4
					c0-0.1-0.1-0.2-0.1-0.3c0-0.1,0-0.2,0-0.2c0-0.2,0.2-0.4,0.3-0.5c0.1-0.1,0.3-0.2,0.5-0.2h0c0.2,0,0.3,0,0.4,0.1
					c0,0,0.1,0,0.1,0v-1h0.4L76.9,31.4z"/>
				<path class="st0" d="M73.8,24.9c0-0.1,0-0.2,0-0.3c0,0,0-0.1,0-0.1c-0.1-0.2-0.4-0.3-0.7-0.2c-0.1,0.1-0.2,0.1-0.2,0.2
					c-0.1,0.1-0.1,0.3,0,0.5c0.1,0.1,0.2,0.2,0.3,0.3c0,0,0.1,0,0.1,0.1c0.1,0,0.3,0,0.4-0.1c0,0,0,0,0.1,0c0.1,0,0.1-0.1,0.1-0.1
					C73.7,25.1,73.8,25,73.8,24.9 M73.8,24.1v-1h0.4l0,0l0,0c0,0,0,0,0,0v2.6c0,0,0,0,0,0h-0.4c0,0,0-0.1,0-0.2
					c-0.1,0-0.1,0.1-0.2,0.1c-0.1,0-0.2,0.1-0.2,0.1c-0.2,0-0.4,0-0.5-0.1c-0.2-0.1-0.3-0.3-0.4-0.4c0-0.1,0-0.1-0.1-0.2
					c0-0.1,0-0.2,0-0.3c0,0,0,0,0-0.1c0-0.2,0.2-0.4,0.3-0.5c0.1-0.1,0.3-0.2,0.5-0.2c0.1,0,0.3,0,0.4,0.1
					C73.7,24.1,73.7,24.1,73.8,24.1"/>
				<path class="st0" d="M89.2,30.6c0-0.1,0-0.1,0-0.2c0-0.2-0.1-0.2-0.2-0.3C88.9,30,88.8,30,88.7,30c-0.2,0-0.4,0.1-0.5,0.3
					c-0.1,0.1-0.1,0.3,0,0.5c0.1,0.1,0.1,0.2,0.3,0.3c0.1,0,0.1,0.1,0.2,0.1c0.1,0,0.3,0,0.4-0.1c0,0,0.1,0,0.1-0.1
					c0,0,0.1-0.1,0.1-0.1C89.2,30.8,89.2,30.7,89.2,30.6 M89.2,29.7c0,0,0-0.1,0-0.1h0.4c0,0,0,0.1,0,0.1c0,0.3,0,0.7,0,1
					c0,0.1,0,0.1,0.1,0.2c0.1,0.1,0.1,0.2,0.2,0.3c-0.1,0.1-0.2,0.1-0.3,0.2c-0.1-0.1-0.1-0.2-0.2-0.3c-0.1,0.1-0.2,0.1-0.3,0.2
					c-0.1,0-0.1,0.1-0.2,0.1c0,0-0.1,0-0.1,0c-0.2,0-0.3,0-0.5-0.1c-0.1,0-0.1-0.1-0.2-0.2c-0.1-0.1-0.2-0.2-0.2-0.4
					c0-0.1,0-0.1-0.1-0.2c0-0.1,0-0.2,0-0.3c0,0,0-0.1,0-0.1c0-0.2,0.2-0.4,0.3-0.5c0.1-0.1,0.3-0.2,0.5-0.2
					C88.8,29.6,89,29.6,89.2,29.7C89.1,29.7,89.2,29.7,89.2,29.7"/>
				<path class="st0" d="M81.3,25c0-0.1,0-0.2,0-0.3c0,0,0-0.1,0-0.1c0,0-0.1-0.1-0.1-0.1c-0.1-0.1-0.3-0.2-0.5-0.1
					c-0.2,0.1-0.4,0.3-0.4,0.5c0,0,0,0,0,0c0,0.2,0.2,0.4,0.4,0.5c0.1,0,0.2,0,0.3,0c0.1,0,0.1-0.1,0.2-0.1c0,0,0.1-0.1,0.1-0.1
					C81.3,25.1,81.3,25.1,81.3,25 M81.9,25.7c-0.1,0.1-0.2,0.1-0.3,0.2c-0.1-0.1-0.1-0.2-0.2-0.3c-0.1,0.1-0.2,0.1-0.3,0.2
					c-0.1,0-0.1,0.1-0.2,0.1c0,0-0.1,0-0.1,0c-0.2,0-0.3,0-0.5-0.1c-0.1-0.1-0.2-0.1-0.2-0.2c-0.2-0.2-0.2-0.4-0.3-0.6
					c0-0.1,0-0.1,0-0.2c0-0.2,0.2-0.4,0.3-0.5c0.2-0.2,0.6-0.3,0.9-0.1c0,0,0.1,0,0.1,0c0,0,0-0.1,0-0.1h0.4c0,0,0,0.1,0,0.1
					c0,0.3,0,0.7,0,1c0,0.1,0,0.1,0.1,0.2C81.8,25.5,81.9,25.6,81.9,25.7"/>
				<path class="st0" d="M96.3,29.1v0.7c0.3,0,0.6,0,0.8,0v0.4h-0.9c0,0.4,0,0.8,0,1.2h-0.4v-2.7h1.8c0,0.1,0,0.2,0,0.4L96.3,29.1z"
					/>
				<path class="st0" d="M76.1,24.7c0-0.1,0-0.2-0.1-0.2c-0.1-0.1-0.2-0.2-0.4-0.2c-0.2,0-0.4,0.2-0.5,0.3c0,0,0,0.1,0,0.1
					L76.1,24.7z M76.4,25h-1.3c0,0.1,0,0.2,0.1,0.2c0,0.1,0.1,0.1,0.2,0.1c0.2,0.1,0.5,0.1,0.6-0.1c0,0,0.1-0.1,0.1-0.1
					c0.1,0.1,0.2,0.2,0.3,0.3c-0.1,0.1-0.2,0.2-0.3,0.3c-0.1,0.1-0.3,0.1-0.5,0.1c-0.2,0-0.4-0.1-0.6-0.3c-0.1-0.1-0.2-0.3-0.2-0.4
					c0-0.1,0-0.2-0.1-0.3c0-0.1,0-0.2,0.1-0.3c0-0.2,0.2-0.4,0.3-0.5c0.1-0.1,0.3-0.2,0.5-0.2c0,0,0,0,0,0c0.2,0,0.3,0,0.5,0.1
					c0.1,0.1,0.2,0.2,0.3,0.3c0.1,0.1,0.1,0.3,0.1,0.5C76.4,24.9,76.4,25,76.4,25"/>
				<path class="st0" d="M96.5,24.7h1c0-0.3-0.3-0.4-0.5-0.4c0,0-0.1,0-0.1,0C96.7,24.4,96.6,24.5,96.5,24.7
					C96.5,24.6,96.5,24.7,96.5,24.7 M97.5,25.2c0.1,0.1,0.2,0.2,0.3,0.2c-0.1,0.2-0.3,0.3-0.5,0.4c0,0-0.1,0-0.1,0c0,0-0.1,0-0.1,0
					c-0.2,0-0.3,0-0.5-0.1c-0.1-0.1-0.1-0.1-0.2-0.2c-0.2-0.2-0.3-0.4-0.3-0.7c0-0.1,0-0.2,0.1-0.3c0-0.2,0.1-0.3,0.2-0.4
					c0.1-0.1,0.2-0.2,0.4-0.2c0,0,0,0,0.1,0c0,0,0.1,0,0.1,0c0.2,0,0.3,0,0.5,0.1c0.1,0.1,0.2,0.2,0.3,0.3c0.1,0.1,0.1,0.3,0.1,0.5
					c0,0.1,0,0.1,0,0.2h-1.3c0,0.1,0,0.2,0.1,0.3c0.1,0,0.1,0.1,0.2,0.1c0.2,0.1,0.5,0.1,0.6-0.1C97.4,25.3,97.5,25.3,97.5,25.2"/>
				<path class="st0" d="M81.4,19.3c0-0.3-0.3-0.4-0.5-0.4c0,0-0.1,0-0.1,0c-0.1,0.1-0.2,0.2-0.3,0.3c0,0,0,0.1,0,0.1H81.4z
					 M80.4,19.7c0,0.1,0,0.2,0.1,0.3c0.1,0,0.1,0.1,0.1,0.1c0.2,0.1,0.5,0.1,0.6-0.1c0,0,0.1-0.1,0.1-0.1c0.1,0.1,0.2,0.2,0.3,0.3
					c-0.1,0.1-0.2,0.2-0.3,0.3c0,0-0.1,0-0.1,0.1c0,0-0.1,0-0.1,0c0,0-0.1,0-0.1,0c-0.2,0-0.3,0-0.5-0.1c-0.1-0.1-0.2-0.1-0.2-0.2
					c-0.1-0.1-0.2-0.2-0.2-0.3c0-0.1,0-0.1-0.1-0.2c0-0.3,0.1-0.6,0.3-0.8c0.1-0.1,0.3-0.2,0.5-0.2c0,0,0,0,0.1,0
					c0.2,0,0.3,0,0.5,0.1c0.1,0.1,0.2,0.1,0.2,0.2c0.1,0.1,0.1,0.2,0.1,0.3c0,0,0,0,0,0.1v0.4c-0.2,0-0.3,0-0.5,0
					c-0.1,0-0.3,0-0.4,0L80.4,19.7z"/>
				<path class="st0" d="M98.7,19.3c0-0.3-0.3-0.4-0.5-0.4c0,0-0.1,0-0.1,0c-0.1,0.1-0.2,0.2-0.3,0.3c0,0,0,0.1,0,0.1H98.7z
					 M99.1,19.7h-1.4c0,0.1,0,0.2,0.1,0.2C97.9,20,98,20,98,20.1c0.2,0.1,0.5,0.1,0.6-0.1c0,0,0.1-0.1,0.1-0.1l0.3,0.3
					c-0.1,0.1-0.2,0.2-0.3,0.3c-0.2,0.1-0.3,0.1-0.5,0.1c-0.2,0-0.4-0.1-0.6-0.2c-0.1-0.1-0.2-0.3-0.3-0.5c0-0.2,0-0.3,0-0.5
					c0-0.2,0.1-0.4,0.3-0.5c0.1-0.1,0.3-0.2,0.5-0.2c0,0,0,0,0.1,0c0.2,0,0.3,0,0.5,0.1c0.1,0.1,0.2,0.1,0.2,0.2
					c0,0.1,0.1,0.1,0.1,0.2c0,0,0,0,0,0.1C99.1,19.4,99.1,19.5,99.1,19.7"/>
				<path class="st0" d="M87.1,19.3c0-0.1,0-0.1-0.1-0.2c-0.1-0.2-0.4-0.3-0.6-0.2c-0.1,0.1-0.3,0.2-0.3,0.3c0,0,0,0.1,0,0.1H87.1z
					 M86.1,19.7c0,0.2,0.1,0.3,0.3,0.4c0.2,0.1,0.5,0.1,0.6-0.1c0,0,0.1-0.1,0.1-0.1c0.1,0.1,0.2,0.2,0.3,0.2
					c-0.1,0.2-0.3,0.3-0.5,0.4c0,0-0.1,0-0.1,0c0,0-0.1,0-0.1,0c-0.2,0-0.3,0-0.5-0.1c-0.1-0.1-0.1-0.1-0.2-0.2
					c-0.2-0.2-0.3-0.4-0.3-0.7c0-0.1,0-0.2,0.1-0.3c0.1-0.2,0.2-0.4,0.5-0.6c0.1-0.1,0.2-0.1,0.3-0.1c0,0,0,0,0.1,0
					c0.2,0,0.3,0,0.5,0.1c0.1,0.1,0.1,0.1,0.2,0.2c0.1,0.1,0.2,0.3,0.1,0.5c0,0.1,0,0.1,0,0.2L86.1,19.7z"/>
				<path class="st0" d="M78.9,30.3c0-0.1,0-0.1-0.1-0.2c-0.1-0.2-0.4-0.3-0.6-0.2C78.1,30,78,30.1,78,30.2c0,0,0,0.1,0,0.1H78.9z
					 M79.3,30.6h-1.4c0,0.1,0,0.2,0.1,0.3c0,0,0.1,0.1,0.1,0.1c0.2,0.1,0.5,0.1,0.6-0.1c0,0,0.1-0.1,0.1-0.1l0.3,0.3
					c-0.1,0.1-0.2,0.2-0.3,0.2c-0.1,0-0.2,0.1-0.2,0.1c0,0,0,0-0.1,0c-0.1,0-0.2,0-0.4,0c0,0,0,0-0.1,0c-0.2-0.1-0.4-0.2-0.5-0.4
					c0,0,0,0,0,0c-0.1-0.2-0.1-0.3-0.1-0.5c0-0.1,0-0.2,0.1-0.3c0.1-0.2,0.2-0.4,0.5-0.5c0.1-0.1,0.2-0.1,0.4-0.1c0,0,0,0,0,0
					c0.2,0,0.5,0.1,0.6,0.3c0.1,0.1,0.2,0.3,0.2,0.5C79.3,30.4,79.3,30.5,79.3,30.6"/>
				<path class="st0" d="M93.9,30.3c0-0.2-0.2-0.4-0.6-0.4c-0.2,0-0.4,0.3-0.4,0.4H93.9z M94.2,31.1c-0.1,0.2-0.3,0.3-0.5,0.4
					c-0.2,0-0.4,0-0.5,0c-0.2-0.1-0.4-0.2-0.5-0.4c0,0,0,0,0,0c-0.1-0.2-0.1-0.4-0.1-0.6c0-0.2,0.1-0.3,0.1-0.4
					c0.1-0.1,0.2-0.3,0.3-0.3c0.1-0.1,0.3-0.1,0.5-0.1c0.2,0,0.5,0.1,0.6,0.3c0.1,0.1,0.2,0.3,0.2,0.5c0,0.1,0,0.2,0,0.3h-1.4
					c0,0.1,0,0.2,0.1,0.3c0,0,0.1,0.1,0.2,0.1c0.2,0.1,0.5,0.1,0.6-0.1c0,0,0.1-0.1,0.1-0.1c0.1,0.1,0.1,0.1,0.1,0.1
					C94.1,31,94.1,31,94.2,31.1"/>
				<path class="st0" d="M77.7,19.4c0-0.1,0-0.2-0.1-0.2c-0.2-0.2-0.5-0.3-0.7-0.1c-0.1,0.1-0.1,0.1-0.2,0.2c0,0,0,0.1,0,0.1
					L77.7,19.4z M78.1,19.7h-1.4c0,0.1,0,0.2,0.1,0.2c0.1,0.1,0.1,0.1,0.2,0.1c0.2,0.1,0.5,0.1,0.6-0.1c0,0,0.1-0.1,0.1-0.1
					c0,0,0.1,0.1,0.1,0.1c0,0,0.1,0.1,0.1,0.1c-0.1,0.1-0.2,0.2-0.3,0.3c-0.1,0.1-0.3,0.1-0.5,0.1c-0.2,0-0.4-0.1-0.6-0.3
					c-0.1-0.1-0.2-0.3-0.2-0.4c0-0.2,0-0.3,0-0.5c0-0.2,0.2-0.4,0.3-0.5c0.1-0.1,0.3-0.2,0.4-0.2c0,0,0,0,0.1,0c0.2,0,0.4,0,0.5,0.1
					c0.1,0.1,0.2,0.1,0.2,0.2c0,0.1,0.1,0.1,0.1,0.2c0,0,0,0,0,0.1C78.1,19.4,78.1,19.5,78.1,19.7"/>
				<path class="st0" d="M102.7,30.3c0-0.3-0.3-0.4-0.5-0.4c0,0-0.1,0-0.1,0c-0.1,0.1-0.2,0.2-0.3,0.3c0,0,0,0.1,0,0.1H102.7z
					 M103,31.1c-0.1,0.2-0.3,0.3-0.5,0.4c0,0,0,0-0.1,0c-0.1,0-0.3,0-0.4,0c0,0,0,0-0.1,0c-0.2-0.1-0.4-0.2-0.5-0.4c0,0,0-0.1,0-0.1
					c0-0.1-0.1-0.2-0.1-0.3c0-0.1,0-0.2,0-0.3c0,0,0,0,0-0.1c0-0.2,0.1-0.4,0.3-0.5c0.1-0.1,0.3-0.2,0.5-0.2c0,0,0,0,0.1,0
					c0.2,0,0.4,0,0.5,0.1c0.1,0,0.1,0.1,0.2,0.2c0.1,0.1,0.2,0.3,0.2,0.5c0,0.1,0,0.2,0,0.3c-0.1,0-0.2,0-0.3,0c-0.1,0-0.2,0-0.3,0
					h-0.7c0,0.1,0,0.2,0.1,0.3c0,0,0.1,0.1,0.1,0.1c0.2,0.1,0.5,0.1,0.6-0.1c0,0,0.1-0.1,0.1-0.1c0,0,0.1,0.1,0.1,0.1
					S102.9,31,103,31.1"/>
				<path class="st0" d="M70.7,30.3h1c0,0,0,0,0,0c-0.1-0.3-0.3-0.4-0.6-0.4c0,0-0.1,0-0.1,0c-0.1,0.1-0.2,0.2-0.3,0.3
					C70.8,30.3,70.7,30.3,70.7,30.3 M72,31.1c-0.1,0.2-0.3,0.3-0.5,0.4c0,0-0.1,0-0.1,0c0,0-0.1,0-0.1,0c-0.2,0-0.4,0-0.5-0.1
					c0,0-0.1-0.1-0.1-0.1c-0.1-0.1-0.2-0.3-0.2-0.4c0,0,0-0.1,0-0.1c0-0.1,0-0.2,0-0.3c0,0,0,0,0-0.1c0-0.2,0.1-0.4,0.3-0.5
					c0.1-0.1,0.3-0.2,0.5-0.2c0,0,0,0,0.1,0c0.2,0,0.4,0,0.5,0.1c0.1,0,0.1,0.1,0.2,0.2c0.1,0.1,0.2,0.3,0.2,0.5c0,0.1,0,0.2,0,0.3
					c-0.1,0-0.2,0-0.3,0c-0.1,0-0.2,0-0.3,0h-0.7c0,0.3,0.3,0.5,0.5,0.5c0.1,0,0.3-0.1,0.4-0.2c0,0,0.1-0.1,0.1-0.1
					C71.8,30.9,71.9,31,72,31.1"/>
				<path class="st0" d="M71.6,19c0,0-0.1,0-0.1,0c-0.2,0.1-0.4,0.3-0.4,0.5c0,0,0,0,0,0.1c0,0.2,0.1,0.3,0.2,0.4
					c0.1,0.1,0.3,0.1,0.4,0.1c0.2,0,0.3-0.2,0.4-0.3c0,0,0-0.1,0-0.1c0,0,0-0.1,0-0.1c0-0.2-0.1-0.3-0.2-0.4
					C71.9,19,71.8,19,71.6,19 M71.7,20.5c-0.2,0-0.4-0.1-0.6-0.2c-0.1-0.1-0.2-0.3-0.3-0.4c-0.1-0.2-0.1-0.3,0-0.5
					c0.1-0.2,0.1-0.3,0.3-0.4c0.1-0.1,0.2-0.2,0.4-0.2c0,0,0,0,0.1,0c0,0,0.1,0,0.1,0c0.2,0,0.4,0,0.5,0.1c0.1,0.1,0.1,0.1,0.2,0.2
					c0.1,0.1,0.1,0.2,0.2,0.3c0,0.1,0,0.1,0.1,0.2c0,0.1,0,0.2,0,0.3c0,0.2-0.2,0.4-0.3,0.6c-0.1,0.1-0.2,0.2-0.4,0.2
					C71.8,20.5,71.7,20.5,71.7,20.5"/>
				<path class="st0" d="M100.9,18.7h0.4v1.8h-0.4c0-0.1,0-0.1,0-0.2c0,0-0.1,0.1-0.1,0.1c0,0-0.1,0.1-0.2,0.1c-0.1,0-0.1,0-0.2,0
					c0,0,0,0,0,0c-0.2,0-0.4,0-0.6-0.1c0,0-0.1-0.1-0.1-0.1c0-0.1-0.1-0.2-0.1-0.3c0,0,0-0.1,0-0.1c0-0.4,0-0.8,0-1.1c0,0,0,0,0,0
					c0.1,0,0.2,0,0.4,0c0,0,0,0.1,0,0.1c0,0.3,0,0.6,0,1c0,0.1,0,0.2,0.1,0.3c0,0.1,0.1,0.1,0.2,0.1c0.2,0,0.4,0,0.5-0.2
					c0.1-0.1,0.2-0.2,0.2-0.3c0-0.3,0-0.6,0-0.8V18.7z"/>
				<path class="st0" d="M93.6,18.7H94c0,0,0,0.1,0,0.1c0,0.3,0,0.6,0,0.9c0,0.1,0,0.2,0.1,0.3c0,0.1,0.1,0.1,0.2,0.1
					c0.2,0,0.4,0,0.5-0.2c0.1-0.1,0.2-0.2,0.2-0.3c0-0.3,0-0.6,0-0.8v-0.1c0.1,0,0.2,0,0.4,0c0,0.1,0,1.7,0,1.8h-0.4
					c0-0.1,0-0.1,0-0.2c-0.1,0.1-0.2,0.2-0.3,0.2c0,0-0.1,0-0.1,0c0,0,0,0-0.1,0c-0.2,0-0.4,0-0.6-0.1c0,0-0.1-0.1-0.1-0.1
					c0-0.1-0.1-0.2-0.1-0.3c0,0,0-0.1,0-0.1C93.6,19.5,93.6,19.1,93.6,18.7C93.6,18.7,93.6,18.7,93.6,18.7"/>
				<path class="st0" d="M93.9,24h0.4v0.1c0,0.3,0,0.6,0,1c0,0.1,0,0.2,0.1,0.3c0,0.1,0.1,0.1,0.2,0.1c0.2,0,0.4,0,0.5-0.2
					c0.1-0.1,0.2-0.2,0.2-0.4c0-0.3,0-0.5,0-0.8V24h0.4v1.8h-0.4c0-0.1,0-0.1,0-0.2c-0.1,0.1-0.2,0.2-0.3,0.2c0,0-0.1,0-0.1,0
					c-0.1,0-0.2,0-0.3,0c-0.1,0-0.1,0-0.1,0c-0.1,0-0.2-0.1-0.2-0.1c0-0.1-0.1-0.2-0.1-0.2c0-0.1-0.1-0.3-0.1-0.4c0-0.3,0-0.6,0-0.9
					L93.9,24z"/>
				<path class="st0" d="M100.3,30.6c0.2,0.3,0.5,0.6,0.7,0.9c-0.2,0-0.3,0-0.5,0c0,0-0.1,0-0.1-0.1c-0.1-0.1-0.2-0.3-0.3-0.4
					c0,0,0-0.1-0.1-0.1c0,0,0,0.1-0.1,0.1c-0.1,0.2-0.2,0.3-0.4,0.5c0,0-0.1,0.1-0.1,0.1c-0.1,0-0.2,0-0.4,0l0,0l0,0
					c0.2-0.3,0.5-0.6,0.7-0.9c-0.2-0.3-0.5-0.6-0.7-0.9c0.2,0,0.3,0,0.4,0c0,0,0.1,0,0.1,0.1c0.1,0.1,0.2,0.3,0.3,0.4
					c0,0,0,0.1,0.1,0.1c0,0,0,0,0.1-0.1c0.1-0.2,0.2-0.3,0.4-0.5c0,0,0.1-0.1,0.1-0.1c0.1,0,0.2,0,0.4,0l0,0l0,0c0,0,0,0,0,0
					C100.7,30,100.5,30.2,100.3,30.6L100.3,30.6"/>
				<path class="st0" d="M99.6,25.4c0.1-0.1,0.2-0.1,0.3-0.2c0,0,0,0,0,0.1c0.1,0.2,0.3,0.3,0.5,0.2c0,0,0.1,0,0.1,0
					c0.1-0.1,0.1-0.2,0-0.3c-0.1,0-0.2-0.1-0.2-0.1c-0.2,0-0.4-0.1-0.5-0.2c0,0-0.1-0.1-0.1-0.1c0-0.1-0.1-0.2-0.1-0.2
					c0,0,0-0.1,0-0.1l0,0c0.1-0.1,0.1-0.2,0.2-0.3c0.1-0.1,0.3-0.1,0.4-0.1c0.1,0,0.2,0,0.4,0c0,0,0.1,0,0.1,0
					c0.2,0,0.3,0.2,0.4,0.4c-0.1,0-0.2,0.1-0.3,0.1c0,0,0,0,0,0c0-0.1-0.1-0.2-0.2-0.2c-0.1,0-0.2,0-0.3,0c0,0-0.1,0-0.1,0
					c-0.1,0-0.1,0.1-0.1,0.1c0,0.1,0,0.1,0.1,0.1c0.1,0,0.1,0.1,0.2,0.1c0.1,0,0.1,0,0.2,0c0.1,0,0.3,0.1,0.4,0.2c0,0,0,0,0.1,0.1
					c0,0.1,0.1,0.1,0.1,0.2c0,0.1,0.1,0.2,0,0.3c0,0.1-0.1,0.2-0.1,0.3c0,0,0,0.1-0.1,0.1c-0.1,0-0.2,0.1-0.3,0.1
					c-0.1,0-0.2,0-0.4,0c-0.1,0-0.2-0.1-0.3-0.1c0,0-0.1,0-0.1-0.1C99.6,25.6,99.6,25.5,99.6,25.4"/>
				<path class="st0" d="M91.9,25.4c0.1-0.1,0.2-0.1,0.3-0.2c0,0,0,0,0,0.1c0.1,0.2,0.4,0.3,0.6,0.2c0,0,0,0,0.1,0
					c0.1,0,0.1-0.1,0.1-0.2c0,0,0-0.1-0.1-0.1c-0.1-0.1-0.2-0.1-0.3-0.1c-0.2,0-0.3-0.1-0.5-0.2c0,0-0.1-0.1-0.1-0.1
					c0-0.1-0.1-0.2-0.1-0.2c0,0,0-0.1,0-0.1c0,0,0,0,0,0c0.1-0.1,0.1-0.2,0.2-0.3c0.1-0.1,0.3-0.1,0.4-0.1c0.1,0,0.2,0,0.4,0
					c0,0,0.1,0,0.1,0c0.2,0,0.3,0.2,0.4,0.4c-0.1,0-0.2,0.1-0.3,0.1c0,0,0,0,0,0c0-0.1-0.1-0.2-0.2-0.2c-0.1,0-0.2,0-0.3,0
					c0,0-0.1,0-0.1,0c-0.1,0-0.1,0.1-0.1,0.1c0,0.1,0,0.1,0.1,0.1c0.1,0,0.1,0.1,0.2,0.1c0.2,0,0.4,0.1,0.5,0.2c0,0,0.1,0.1,0.1,0.1
					c0,0,0,0.1,0.1,0.1c0.1,0.1,0.1,0.2,0,0.3c0,0.1-0.1,0.2-0.1,0.2c0,0-0.1,0.1-0.1,0.1c-0.1,0-0.2,0.1-0.3,0.1
					c-0.1,0-0.3,0-0.4,0c-0.1,0-0.2-0.1-0.3-0.1c0,0-0.1,0-0.1,0C92,25.6,92,25.5,91.9,25.4"/>
				<path class="st0" d="M85.7,25.4c0.1-0.1,0.2-0.1,0.3-0.2c0,0,0,0,0,0.1c0.1,0.2,0.2,0.2,0.4,0.2c0.1,0,0.2,0,0.2-0.1
					c0.1,0,0.1-0.1,0-0.2c0,0,0,0-0.1-0.1c-0.1,0-0.2-0.1-0.2-0.1c-0.2,0-0.4-0.1-0.5-0.2c0,0-0.1-0.1-0.1-0.1
					c0-0.1-0.1-0.2-0.1-0.2c0,0,0-0.1,0-0.1l0,0c0.1-0.1,0.1-0.2,0.2-0.3c0.1-0.1,0.3-0.1,0.4-0.1c0.1,0,0.2,0,0.4,0
					c0.1,0,0.2,0.1,0.3,0.1c0,0,0.1,0,0.1,0.1c0,0.1,0.1,0.1,0.1,0.2c-0.1,0-0.2,0.1-0.3,0.1c0,0,0,0,0-0.1
					c-0.1-0.1-0.2-0.2-0.4-0.2c-0.1,0-0.2,0-0.2,0.1c-0.1,0-0.1,0.2,0,0.2c0.1,0,0.1,0.1,0.2,0.1c0.1,0,0.1,0,0.2,0
					c0.1,0,0.3,0.1,0.4,0.2c0,0,0,0,0.1,0.1c0,0.1,0.1,0.1,0.1,0.2c0,0.1,0,0.2,0,0.3l0,0c-0.1,0.1-0.1,0.2-0.2,0.3
					c-0.1,0.1-0.2,0.1-0.4,0.1c-0.1,0-0.2,0-0.4,0c-0.1,0-0.2-0.1-0.3-0.1c0,0-0.1,0-0.1-0.1C85.8,25.6,85.8,25.5,85.7,25.4"/>
				<path class="st0" d="M103.6,20.1c0.1-0.1,0.2-0.1,0.3-0.2c0,0,0,0,0,0.1c0.1,0.1,0.2,0.2,0.4,0.2c0.1,0,0.2,0,0.2-0.1
					c0.1,0,0.1-0.1,0.1-0.2c0,0,0-0.1-0.1-0.1c-0.1,0-0.1-0.1-0.2-0.1c-0.2,0-0.4-0.1-0.5-0.2c0,0-0.1-0.1-0.1-0.1
					c0-0.1-0.1-0.2-0.1-0.3s0.1-0.2,0.1-0.3c0-0.1,0.1-0.1,0.2-0.2c0.1,0,0.1,0,0.1-0.1c0.1-0.1,0.3-0.1,0.4-0.1
					c0.1,0,0.1,0,0.2,0.1c0.2,0,0.3,0.1,0.4,0.3c0,0,0,0.1,0,0.1c-0.1,0-0.2,0.1-0.3,0.1c0,0,0,0,0,0c0-0.1-0.1-0.2-0.2-0.2
					c-0.1,0-0.2,0-0.3,0c0,0-0.1,0-0.1,0c-0.1,0-0.1,0.1-0.1,0.1c0,0.1,0,0.1,0.1,0.1c0.1,0,0.1,0.1,0.2,0.1c0.2,0,0.4,0.1,0.5,0.2
					c0,0,0.1,0.1,0.1,0.1c0,0,0,0.1,0.1,0.1c0.1,0.1,0.1,0.2,0,0.3c0,0.1-0.1,0.2-0.1,0.3c-0.1,0.1-0.2,0.1-0.3,0.1
					c-0.2,0.1-0.3,0.1-0.5,0c0,0-0.1,0-0.1,0c-0.1,0-0.2,0-0.2-0.1C103.7,20.2,103.7,20.2,103.6,20.1"/>
				<path class="st0" d="M87.9,20c0.1-0.1,0.2-0.1,0.3-0.1c0,0,0,0,0,0.1c0.1,0.1,0.2,0.2,0.4,0.2c0.1,0,0.2,0,0.2-0.1
					c0.1,0,0.1-0.1,0-0.2c0,0,0,0-0.1-0.1c-0.1,0-0.1-0.1-0.2-0.1c-0.2,0-0.4-0.1-0.5-0.2c0,0-0.1-0.1-0.1-0.1
					c-0.1-0.1-0.1-0.2-0.1-0.3c0-0.1,0.1-0.2,0.1-0.3c0-0.1,0.1-0.1,0.2-0.2c0.1,0,0.1,0,0.1-0.1c0.1-0.1,0.3-0.1,0.4-0.1
					c0.1,0,0.1,0,0.2,0.1c0.2,0,0.3,0.1,0.4,0.3c0,0,0,0.1,0,0.1c-0.1,0-0.2,0.1-0.3,0.1c0,0,0,0,0,0c-0.1-0.1-0.2-0.2-0.4-0.2
					c-0.1,0-0.2,0-0.3,0.1c-0.1,0-0.1,0.2,0,0.2c0.1,0,0.1,0.1,0.2,0.1c0.2,0,0.4,0.1,0.5,0.2c0,0,0.1,0.1,0.1,0.1
					c0,0,0.1,0.1,0.1,0.1c0.1,0.1,0.1,0.2,0,0.3c0,0.1-0.1,0.1-0.1,0.2c0,0-0.1,0.1-0.1,0.1c-0.1,0-0.1,0-0.2,0.1
					c-0.2,0.1-0.4,0.1-0.6,0l0,0C88,20.3,88,20.3,87.9,20"/>
				<path class="st0" d="M76.9,25.4c0.1-0.1,0.2-0.1,0.3-0.2c0,0,0,0,0,0.1c0.1,0.1,0.2,0.2,0.4,0.2c0.1,0,0.2,0,0.2-0.1
					c0.1,0,0.1-0.1,0.1-0.2c0,0,0,0-0.1-0.1c-0.1,0-0.2-0.1-0.2-0.1c-0.2,0-0.4-0.1-0.5-0.2c0,0-0.1-0.1-0.1-0.1
					c0-0.1-0.1-0.2-0.1-0.3s0.1-0.2,0.1-0.3c0-0.1,0.1-0.1,0.2-0.1c0.1,0,0.1,0,0.2-0.1c0.2-0.1,0.4-0.1,0.6,0l0,0
					c0.3,0.1,0.3,0.1,0.4,0.4c-0.1,0-0.2,0.1-0.3,0.1c0,0,0,0,0-0.1c-0.1-0.1-0.2-0.2-0.4-0.2c-0.1,0-0.2,0-0.3,0.1
					c-0.1,0-0.1,0.2,0,0.2c0.1,0,0.1,0.1,0.2,0.1c0.2,0,0.4,0.1,0.5,0.2c0,0,0.1,0.1,0.1,0.1c0,0,0,0.1,0.1,0.1
					c0.1,0.1,0.1,0.2,0,0.3l0,0c0,0.1-0.1,0.2-0.1,0.3c-0.1,0.1-0.2,0.1-0.4,0.1c-0.1,0-0.2,0-0.4,0c-0.1,0-0.2-0.1-0.3-0.1
					c0,0-0.1,0-0.1-0.1C77,25.6,77,25.5,76.9,25.4"/>
				<path class="st0" d="M74.8,19c-0.1,0.1-0.2,0.2-0.3,0.3c-0.1-0.1-0.1-0.1-0.2-0.2c0,0-0.1-0.1-0.1-0.1c-0.2-0.1-0.5-0.1-0.6,0.1
					c-0.1,0.1-0.2,0.2-0.2,0.4c0,0,0,0,0,0.1c0,0.2,0.2,0.4,0.4,0.5c0.2,0.1,0.4,0,0.5-0.1c0.1-0.1,0.1-0.1,0.2-0.2
					c0.1,0.1,0.2,0.2,0.2,0.3c-0.1,0.2-0.3,0.3-0.5,0.4c0,0-0.1,0-0.1,0c0,0-0.1,0-0.1,0c-0.2,0-0.4,0-0.5-0.1c0,0,0,0-0.1-0.1
					c-0.2-0.1-0.3-0.3-0.3-0.5c0-0.1,0-0.2,0-0.3c0-0.1,0-0.1,0.1-0.2c0-0.2,0.1-0.3,0.3-0.4c0.1-0.1,0.2-0.2,0.4-0.2
					c0,0,0.1,0,0.1,0c0,0,0.1,0,0.1,0c0.2,0,0.3,0,0.5,0.1c0,0,0.1,0.1,0.1,0.1C74.6,18.9,74.7,19,74.8,19"/>
				<path class="st0" d="M89.7,25.8h-0.3c-0.3-0.6-0.5-1.2-0.8-1.8c0,0,0.1,0,0.1,0c0.1,0,0.2,0,0.3,0c0.2,0.4,0.4,0.8,0.5,1.3h0
					c0.2-0.4,0.3-0.8,0.5-1.2h0.4C90.2,24.6,89.9,25.2,89.7,25.8"/>
				<path class="st0" d="M73.6,31.1v0.4c-0.2,0-0.3,0-0.5-0.1c-0.1-0.1-0.3-0.2-0.3-0.3c0-0.2-0.1-0.3-0.1-0.5c0-0.2,0-0.4,0-0.6
					h-0.3c0-0.1,0-0.2,0-0.4h0.3v-0.6h0.4v0.6c0.2,0,0.3,0,0.5,0V30h-0.4c0,0,0,0.1,0,0.1c0,0.2,0,0.4,0,0.6c0,0.1,0,0.2,0.1,0.3
					c0,0.1,0.1,0.1,0.2,0.1C73.4,31.1,73.5,31.1,73.6,31.1"/>
				<path class="st0" d="M96.4,18.7h0.4V19h-0.4c0,0,0,0.1,0,0.1c0,0.2,0,0.4,0,0.6c0,0.1,0,0.2,0.1,0.3c0,0.1,0.1,0.1,0.2,0.1
					c0.1,0,0.1,0,0.2,0v0.4c-0.1,0-0.3,0-0.4,0c-0.2-0.1-0.3-0.2-0.3-0.4c0-0.1-0.1-0.3-0.1-0.4c0-0.2,0-0.3,0-0.5c0,0,0-0.1,0-0.1
					h-0.3v-0.4H96c0-0.2,0-0.4,0-0.6h0.4L96.4,18.7z"/>
				<path class="st0" d="M78.4,18.7h0.3v-0.6h0.4v0.6h0.4V19c-0.1,0-0.1,0-0.2,0c-0.1,0-0.1,0-0.2,0c0,0,0,0.1,0,0.1
					c0,0.2,0,0.4,0,0.6c0,0.1,0,0.2,0.1,0.3c0,0.1,0.1,0.1,0.2,0.1c0.1,0,0.1,0,0.2,0v0.3c-0.1,0-0.3,0-0.4,0
					c-0.1,0-0.2-0.1-0.3-0.1c-0.1-0.1-0.1-0.2-0.1-0.3c0-0.1-0.1-0.2-0.1-0.3c0-0.2,0-0.4,0-0.5c0,0,0-0.1,0-0.1h-0.3L78.4,18.7z"/>
				<path class="st0" d="M84.7,24h0.4v0.4h-0.4c0,0,0,0,0,0c0,0.2,0,0.5,0,0.7c0,0.1,0,0.2,0.1,0.3c0,0.1,0.1,0.1,0.2,0.1h0.2
					c0,0.1,0,0.2,0,0.4c-0.2,0-0.3,0-0.4,0c-0.2-0.1-0.3-0.2-0.3-0.4c0-0.1-0.1-0.3-0.1-0.4c0-0.2,0-0.3,0-0.5v-0.1H84
					c0-0.1,0-0.2,0-0.4c0.1,0,0.2,0,0.3,0v-0.6c0.1,0,0.2,0,0.4,0C84.7,23.6,84.7,23.8,84.7,24"/>
				<path class="st0" d="M99.1,25.5v0.4c-0.1,0-0.3,0-0.4,0c0,0,0,0,0,0c-0.1-0.1-0.1-0.1-0.2-0.2c-0.1-0.1-0.1-0.3-0.1-0.5
					c0-0.6,0-1.2,0-1.8v-0.1h0.4v0.1c0,0.6,0,1.3,0,1.9c0,0.1,0,0.1,0,0.1c0,0.1,0.1,0.2,0.2,0.2c0,0,0,0,0,0
					C99,25.5,99.1,25.5,99.1,25.5"/>
				<path class="st0" d="M80.9,28.8h0.4c0,0,0,0.1,0,0.1c0,0.6,0,1.3,0,1.9c0,0,0,0.1,0,0.1c0.1,0.2,0.1,0.2,0.3,0.2
					c0,0,0.1,0,0.1,0v0.4c-0.1,0-0.2,0-0.4,0c0,0,0,0-0.1,0c-0.1-0.1-0.2-0.2-0.2-0.2c-0.1-0.1-0.1-0.3-0.1-0.5c0-0.6,0-1.2,0-1.8
					V28.8z"/>
				<path class="st0" d="M82.8,25.8h-0.3c0-0.1,0-1.6,0-1.8c0.1,0,0.2,0,0.3,0c0,0,0,0.1,0,0.1c0.1,0,0.1-0.1,0.2-0.1
					c0.1-0.1,0.2-0.1,0.3,0c0.1,0,0.2,0.1,0.3,0.1c0,0,0,0,0.1,0.1c0,0.1,0.1,0.2,0.1,0.3c-0.1,0-0.2,0.1-0.3,0.1
					c0-0.1,0-0.1-0.1-0.2c0-0.1-0.1-0.2-0.2-0.1c0,0-0.1,0-0.1,0c-0.1,0.1-0.2,0.1-0.2,0.2c0,0.1,0,0.2,0,0.3c0,0.3,0,0.6,0,0.8
					L82.8,25.8z"/>
				<path class="st0" d="M103,19.3c0-0.1-0.1-0.1-0.1-0.2c0-0.1-0.1-0.1-0.2-0.1c0,0,0,0-0.1,0c-0.1,0-0.1,0.1-0.2,0.1
					c-0.1,0-0.1,0.1-0.1,0.2c0,0.3,0,0.7,0,1v0.1c-0.1,0-0.2,0-0.3,0c0-0.1,0-1.7,0-1.8h0.3l0,0.1c0.1,0,0.1,0,0.1-0.1
					c0.1-0.1,0.2-0.1,0.3-0.1c0,0,0.1,0,0.1,0c0,0,0.1,0.1,0.1,0.1c0.1,0,0.2,0.1,0.2,0.2c0,0.1,0,0.1,0.1,0.2
					C103.2,19.2,103.1,19.3,103,19.3"/>
				<path class="st0" d="M83.6,31.4h-0.3c0-0.1,0-2.6,0-2.7h0.4V31.4z"/>
				<path class="st0" d="M98.6,31.4h-0.4v-1.8c0.1,0,0.2,0,0.3,0C98.6,29.7,98.6,31.3,98.6,31.4"/>
				<path class="st0" d="M75.7,20.5C75.7,20.5,75.7,20.5,75.7,20.5c-0.1,0-0.2,0-0.4,0c0-0.1,0-0.2,0-0.4s0-0.2,0-0.4V19
					c0-0.1,0-0.2,0-0.4h0.4C75.7,18.7,75.7,20.3,75.7,20.5"/>
				<path class="st0" d="M90.9,24h0.3c0,0.1,0,1.7,0,1.8h-0.4V24z"/>
				<path class="st0" d="M77.8,17.7c0,0.1,0.1,0.2,0.1,0.3c-0.4,0.2-0.8,0.3-1.2,0.5c0-0.1-0.1-0.2-0.1-0.3
					C76.9,18,77.3,17.8,77.8,17.7"/>
				<path class="st0" d="M81.5,17.7c0,0.1,0.1,0.2,0.1,0.3c-0.4,0.2-0.8,0.3-1.2,0.5c0-0.1-0.1-0.2-0.1-0.3
					C80.7,18,81.1,17.8,81.5,17.7"/>
				<path class="st0" d="M81.9,29.1c0.1-0.1,0.2-0.2,0.4-0.3c0,0,0,0,0.1,0c0.1,0.1,0.1,0.1,0.2,0.2c0,0,0.1,0.1,0.1,0.1
					c0,0.1,0,0.2,0,0.3c-0.1,0.2-0.2,0.3-0.4,0.5c-0.1-0.1-0.2-0.2-0.2-0.3c0.1-0.1,0.1-0.1,0.2-0.2C82.1,29.3,82,29.2,81.9,29.1"/>
				<path class="st0" d="M91.4,23.4l-0.3,0.3c-0.1-0.1-0.2-0.2-0.3-0.3c0.1-0.1,0.2-0.2,0.3-0.3C91.2,23.2,91.3,23.3,91.4,23.4"/>
				<path class="st0" d="M98.4,28.7c0.1,0.1,0.2,0.2,0.3,0.3c-0.1,0.1-0.2,0.2-0.3,0.3c-0.1-0.1-0.2-0.2-0.3-0.3
					C98.2,28.9,98.3,28.8,98.4,28.7"/>
				<path class="st0" d="M75.2,18.1c0.1-0.1,0.2-0.2,0.3-0.3c0.1,0.1,0.2,0.2,0.3,0.3c-0.1,0.1-0.2,0.2-0.3,0.3
					C75.4,18.3,75.3,18.2,75.2,18.1"/>
			</g>
		</g>
	</g>
</g>
<g>
	<path class="st0" d="M79.2,48.9c0,0,0,0.1,0,0.1c0.4,0,0.8,0,1.2,0c0.2,0,0.3,0,0.3-0.3c0-2.5,0-5,0-7.4v-0.2h-1.4l0,0.3
		c0,1.2,0,2.4,0,3.6c0,0.1,0,0.2-0.1,0.3c-0.1-0.1-0.2-0.2-0.2-0.2c-0.6-0.9-1.1-1.9-1.7-2.8c-0.2-0.3-0.3-0.6-0.3-1
		c0,0,0-0.1,0-0.1h-1.4V49c0.4,0,0.8,0,1.2,0c0.2,0,0.2,0,0.2-0.2c0-1.2,0-2.4,0-3.6c0-0.1,0-0.1,0-0.2c0-0.1,0.1-0.1,0.2-0.1
		c0,0,0.1,0.1,0.1,0.1c0.6,1,1.2,2,1.8,2.9C79.2,48.2,79.3,48.5,79.2,48.9z"/>
	<path class="st0" d="M60,41.2c-0.1-0.1-0.2-0.1-0.3-0.1c-0.7,0-1.3,0-2,0c-0.1,0-0.2,0-0.3,0.1c-0.4,0.3-0.7,0.6-1.1,0.8
		c-0.1,0.1-0.2,0.2-0.2,0.3c0,1.2,0,2.5,0,3.7c0,0.1,0.1,0.3,0.2,0.3c0.4,0.3,0.7,0.6,1.1,0.9c0.2,0.1,0.2,0.2,0,0.3
		c-0.4,0.2-0.6,0.7-0.5,1.1c0,0,0,0,0,0.1c0,0.2,0.1,0.2,0.2,0.2c1.3,0,2.5,0,3.8,0c0.1,0,0.1,0,0.2,0v-1.5h0c-0.4,0-0.8,0-1.1,0
		c-0.1,0-0.2,0-0.2-0.1c0-0.1,0.1-0.2,0.1-0.2c0.4-0.3,0.8-0.6,1.1-0.9c0.1-0.1,0.1-0.2,0.1-0.2c0-1.3,0-2.5,0-3.8
		c0-0.1-0.1-0.2-0.1-0.2C60.7,41.7,60.3,41.4,60,41.2z M59.7,44.2v1.1c0,0.3-0.2,0.5-0.5,0.6c-0.4,0-0.7,0-1.1,0
		c-0.3,0-0.5-0.3-0.5-0.6c0-0.7,0-1.4,0-2.1c0-0.3,0.2-0.5,0.5-0.5c0.4,0,0.7,0,1.1,0c0.3,0,0.5,0.3,0.5,0.5
		C59.7,43.5,59.7,43.8,59.7,44.2L59.7,44.2z"/>
	<path class="st0" d="M91.7,47.5c0,0.3,0,0.6,0,0.9V49h1.4c0-0.1,0-0.1,0-0.2c0-0.5,0-1.1,0-1.6c0-0.1,0-0.1,0-0.2
		c-0.5-1.9-0.9-3.8-1.4-5.7c0-0.1-0.1-0.2-0.2-0.2c-0.6,0-1.2,0-1.8,0c-0.2,0-0.2,0.1-0.3,0.2c-0.4,1.6-0.8,3.2-1.2,4.7
		c-0.1,0.4-0.2,0.7-0.2,1.1c0,0.6,0,1.2,0,1.8c0,0,0,0.1,0,0.1h1.4v-0.2c0-0.4,0-0.8,0-1.3c0-0.2,0.1-0.2,0.2-0.2c0.6,0,1.2,0,1.9,0
		C91.6,47.3,91.7,47.3,91.7,47.5z M91.1,45.8c-0.2,0-0.3,0-0.5,0s-0.3,0-0.5,0c-0.2,0-0.3-0.1-0.2-0.3c0.1-0.6,0.3-1.2,0.4-1.8
		c0-0.2,0.1-0.4,0.1-0.6c0-0.1,0.1-0.1,0.1-0.1c0,0,0.1,0.1,0.1,0.2c0.2,0.8,0.4,1.6,0.6,2.3C91.3,45.8,91.3,45.8,91.1,45.8z"/>
	<path class="st0" d="M63,48c0.4,0.3,0.7,0.6,1.1,0.9c0.1,0.1,0.2,0.1,0.3,0.1c0.7,0,1.3,0,2,0c0.1,0,0.2,0,0.3-0.1
		c0.4-0.3,0.7-0.6,1.1-0.8c0.1-0.1,0.2-0.2,0.1-0.3c0-2.2,0-4.3,0-6.5c0-0.1,0-0.1,0-0.2h-1.4v0.3c0,1.8,0,3.7,0,5.5
		c0,0.2-0.1,0.5-0.3,0.6c-0.1,0-0.2,0.1-0.3,0.1c-0.3,0-0.7,0-1,0c-0.3,0-0.6-0.3-0.6-0.6v-5.6c0-0.1,0-0.1,0-0.2
		c0-0.1-0.1-0.1-0.1-0.1c-0.4,0-0.9,0-1.3,0h0c0,0,0,0.1,0,0.1c0,2.2,0,4.4,0,6.6C62.9,47.9,62.9,48,63,48z"/>
	<path class="st0" d="M73.8,47.6c0,0-0.1-0.1-0.2-0.1c-0.3,0-0.7,0-1,0c-0.2,0-0.2-0.1-0.2-0.2c0-1.5,0-3,0-4.5
		c0-0.2,0.1-0.2,0.2-0.2c0.3,0,0.7,0,1,0c0.1,0,0.2-0.1,0.2-0.1c0-0.4,0-0.9,0-1.3c0,0-0.1,0-0.1,0c-1.4,0-2.7,0-4.1,0
		c-0.1,0-0.2,0.1-0.2,0.2c0,0.4,0,0.7,0,1.1c0,0.1,0,0.2,0.2,0.2c0.3,0,0.7,0,1,0c0.2,0,0.2,0.1,0.2,0.2c0,1.5,0,3,0,4.5
		c0,0.2-0.1,0.2-0.2,0.2c-0.3,0-0.7,0-1,0c-0.2,0-0.2,0.1-0.2,0.2c0,0.3,0,0.7,0,1c0,0.2,0,0.3,0.3,0.3c1.3,0,2.6,0,3.9,0
		c0.1,0,0.1,0,0.2,0C73.8,48.5,73.8,48.1,73.8,47.6z"/>
	<path class="st0" d="M87.1,42.3c0-0.3,0-0.7,0-1c0-0.2-0.1-0.3-0.3-0.2c-0.4,0-0.9,0-1.3,0c-1,0-2,0-3,0c-0.2,0-0.2,0-0.2,0.2
		c0,0.2,0,0.4,0,0.7v0.6c0.5,0,0.9,0,1.4,0c0.3,0,0.3,0,0.3,0.3V49c0.4,0,0.8,0,1.2,0c0.2,0,0.3-0.1,0.3-0.3c0-2,0-4,0-5.9
		c0-0.3,0-0.3,0.3-0.3c0.4,0,0.8,0,1.2,0C87.1,42.5,87.1,42.5,87.1,42.3z"/>
	<path class="st0" d="M96.5,47.5c-0.3,0-0.3,0-0.3-0.3v-6.1h-1.4v0.2c0,2.5,0,5,0,7.4c0,0.2,0.1,0.3,0.2,0.3c1.2,0,2.5,0,3.7,0
		c0.1,0,0.1,0,0.2,0v-1.5H96.5z"/>
	<path class="st0" d="M68.1,52.8c-0.2,0-0.3,0.1-0.3,0.4c0,0.5,0,0.9,0,1.4c0,0.1,0,0.1,0,0.2c0,0-0.1,0-0.1-0.1
		c-0.5-0.4-1.2-0.4-1.7-0.1c-0.5,0.4-0.8,1-0.6,1.6c0,0.6,0.4,1.1,1,1.3c0.5,0.2,1,0.1,1.4-0.3c0.1,0.3,0.2,0.4,0.4,0.4
		c0.2,0,0.2-0.2,0.2-0.3c0-1.4,0-2.8,0-4.1C68.4,52.9,68.3,52.8,68.1,52.8z M67.7,56.6c-0.1,0.2-0.3,0.4-0.5,0.5
		c-0.5,0.2-1,0-1.1-0.5c0-0.1-0.1-0.3-0.1-0.4c0-0.4,0.1-0.8,0.5-1.1c0,0,0.1,0,0.1-0.1c0.4-0.2,0.9,0,1.1,0.5
		C67.9,55.8,67.9,56.2,67.7,56.6z"/>
	<path class="st0" d="M62,56.2c0.3,0,0.7,0,1,0v0c0.4,0,0.7,0,1.1,0c0.3,0,0.4-0.1,0.3-0.4c0-0.4-0.2-0.7-0.4-1
		c-0.4-0.3-0.9-0.5-1.4-0.4c-0.7,0.1-1.2,0.6-1.4,1.2c-0.2,0.7,0.1,1.4,0.7,1.8c0.4,0.3,1,0.3,1.4,0.2c0.3-0.1,0.6-0.2,0.9-0.4
		c0,0,0,0,0,0c0.1-0.1,0.1-0.3,0.1-0.4c0,0,0,0,0,0c-0.1-0.1-0.3-0.1-0.4,0c-0.1,0-0.1,0.1-0.2,0.1c-0.2,0.2-0.5,0.3-0.8,0.3
		c-0.5,0-0.9-0.3-1.1-0.7C61.8,56.2,61.8,56.2,62,56.2z M62.9,54.9c0.4,0,0.9,0.4,0.9,0.8h-1.9C62,55.2,62.4,54.9,62.9,54.9z"/>
	<path class="st0" d="M83.9,54.4C83.9,54.4,83.9,54.4,83.9,54.4c-0.9,0-1.7,0.8-1.6,1.7c0,0.9,0.8,1.6,1.7,1.6
		c0.9,0,1.6-0.8,1.6-1.7c0,0,0-0.1,0-0.1C85.5,55.1,84.8,54.4,83.9,54.4z M83.9,57.1c-0.6,0-1.1-0.4-1.1-1c0,0,0,0,0,0
		c0-0.6,0.5-1.1,1.1-1.1c0.6,0,1,0.4,1,1C85,56.5,84.5,57,83.9,57.1z"/>
	<path class="st0" d="M93.3,55.9c-0.2-0.1-0.4-0.1-0.6-0.2c-0.3-0.1-0.6-0.1-1-0.2c-0.1,0-0.2-0.1-0.3-0.3c0-0.2,0.1-0.3,0.3-0.3
		c0.3,0,0.6,0,0.9,0c0.2,0,0.4,0.1,0.6,0.2c0.1,0,0.3,0,0.4-0.1c0,0,0,0,0,0c0-0.2,0-0.3-0.2-0.4c-0.6-0.3-1.3-0.3-2-0.1
		c-0.3,0.1-0.5,0.4-0.5,0.7c0,0.3,0.2,0.6,0.5,0.7c0.3,0.1,0.6,0.2,1,0.2c0.2,0,0.4,0.1,0.6,0.1c0.1,0.1,0.2,0.1,0.2,0.3
		c0,0.1-0.1,0.2-0.2,0.3c0,0-0.1,0.1-0.2,0.1c-0.4,0.1-0.7,0.1-1.1,0c-0.2-0.1-0.4-0.2-0.5-0.2c0,0,0,0,0,0c-0.1-0.1-0.3,0-0.4,0.1
		c-0.1,0.1,0,0.3,0.1,0.4c0.1,0,0.1,0.1,0.2,0.1c0.4,0.2,0.8,0.3,1.3,0.3c0.3,0,0.7-0.1,1-0.2c0.3-0.2,0.5-0.5,0.4-0.9
		C93.8,56.3,93.6,56,93.3,55.9z"/>
	<path class="st0" d="M76.6,56.9c-0.2,0.1-0.3,0.1-0.5,0.2c-0.1,0-0.1,0-0.2,0c-0.3,0-0.6-0.3-0.6-0.6c0-0.5,0-1,0-1.6
		c0.2,0,0.4,0,0.5,0c0.2,0,0.5,0,0.7,0c0.2,0,0.4-0.2,0.3-0.4c-0.1-0.1-0.2-0.1-0.3-0.1c-0.4,0-0.7,0-1.1,0c-0.1,0-0.2,0-0.2-0.2
		c0-0.3,0-0.5,0-0.8c0-0.2-0.1-0.3-0.3-0.3c-0.2,0-0.3,0.1-0.3,0.3c0,0.2,0,0.5,0,0.7c0,0.2,0,0.2-0.2,0.2c-0.2,0-0.3,0-0.5,0
		c-0.2,0-0.3,0.1-0.3,0.3c0,0.2,0.1,0.3,0.3,0.3c0.2,0,0.3,0,0.5,0c0.2,0,0.2,0,0.2,0.2c0,0.4,0,0.8,0,1.1c0,0.9,0.3,1.3,1.1,1.3
		c0.4,0,0.7,0,1-0.2c0.1-0.1,0.2-0.2,0.1-0.4C76.9,56.9,76.8,56.9,76.6,56.9z"/>
	<path class="st0" d="M88.5,54.4c-0.4-0.1-0.8,0-1.1,0.3c-0.1-0.2-0.2-0.4-0.4-0.3c-0.2,0.1-0.2,0.3-0.2,0.4c0,0.4,0,0.8,0,1.2
		c0,0.4,0,0.8,0,1.1c0,0.3,0.1,0.4,0.3,0.4c0.2,0,0.3-0.1,0.3-0.4c0-0.2,0-0.4,0-0.7c0-0.3,0-0.6,0-0.9c0,0,0-0.1,0-0.1
		c0-0.4,0.4-0.7,0.8-0.7c0,0,0,0,0.1,0c0.4,0,0.7,0.4,0.7,0.8c0,0.2,0,0.4,0,0.5c0,0.4,0,0.7,0,1.1c0,0,0,0,0,0
		c0,0.2,0.1,0.3,0.3,0.3c0,0,0,0,0,0c0.2,0,0.3-0.2,0.2-0.3c0-0.6,0-1.2,0-1.9C89.5,54.9,89,54.5,88.5,54.4z"/>
	<path class="st0" d="M80.9,57.1c-0.2,0-0.3,0-0.5,0c-0.3,0-0.3,0-0.3-0.3c0-0.6,0-1.3,0-1.9c0-0.2,0-0.4-0.2-0.4c-0.5,0-1,0-1.4,0
		c0,0,0,0,0,0c-0.1,0-0.2,0.1-0.2,0.2c0,0,0,0,0,0c0,0.1,0.1,0.2,0.2,0.3c0.1,0,0.1,0,0.2,0h0.9c0,0,0,0,0,0.1c0,0.5,0,1.1,0,1.6
		c0,0.4,0.1,0.4-0.4,0.4c-0.2,0-0.5,0-0.7,0c0,0,0,0,0,0c-0.1,0-0.2,0.1-0.2,0.2c0,0,0,0,0,0c0,0.1,0.1,0.3,0.2,0.3
		c0.1,0,0.1,0,0.2,0c0.5,0,1,0,1.5,0c0.3,0,0.5,0,0.8,0c0.2,0,0.3-0.1,0.3-0.3C81.2,57.1,81.1,57.1,80.9,57.1z"/>
	<path class="st0" d="M72.5,57.1c-0.2,0-0.3,0-0.5,0c-0.3,0-0.3,0-0.3-0.3c0-0.6,0-1.3,0-1.9c0-0.2,0-0.4-0.2-0.4c-0.5,0-1,0-1.4,0
		c0,0,0,0,0,0c-0.1,0-0.2,0.1-0.2,0.2c0,0,0,0,0,0c0,0.1,0.1,0.3,0.2,0.3c0.1,0,0.1,0,0.2,0h0.9h0c0,0.6,0,1.3,0,1.9
		c0,0-0.1,0.1-0.2,0.1c-0.3,0-0.6,0-0.9,0c-0.2,0-0.3,0.1-0.3,0.2c0,0.2,0.1,0.3,0.3,0.3c0.1,0,0.1,0,0.2,0c0.5,0,1,0,1.5,0
		c0.3,0,0.5,0,0.8,0c0.2,0,0.3-0.1,0.3-0.3C72.8,57.2,72.7,57.1,72.5,57.1z"/>
	<path class="st0" d="M62.7,54c0.1-0.1,0.3-0.2,0.4-0.3c0.2-0.1,0.4-0.3,0.5-0.5c0.1-0.1,0.1-0.2,0.1-0.3c0-0.1-0.2-0.1-0.2-0.2
		c-0.1,0-0.2,0.1-0.2,0.1c-0.3,0.3-0.5,0.6-0.8,0.9c-0.1,0.1-0.1,0.2,0,0.3C62.5,54,62.6,54,62.7,54z"/>
	<path class="st0" d="M79.8,53c-0.3,0-0.5,0.2-0.5,0.4s0.2,0.5,0.5,0.5c0,0,0,0,0.1,0c0.2,0,0.4-0.2,0.4-0.5c0,0,0-0.1,0-0.1
		C80.3,53.1,80.1,52.9,79.8,53z"/>
	<path class="st0" d="M71.4,53.9C71.4,53.9,71.4,53.9,71.4,53.9c0.3,0,0.5-0.2,0.5-0.4c0-0.3-0.2-0.5-0.5-0.5
		c-0.3,0-0.5,0.2-0.5,0.5c0,0,0,0,0,0C70.9,53.7,71.1,53.9,71.4,53.9z"/>
</g>
<g>
	<polygon class="st0" points="21.2,41.9 21.2,44 21.4,44 21.4,41.6 21.2,41.6 20.5,42.3 20.6,42.5 	"/>
	<polygon class="st0" points="19.6,41.9 20.5,43.1 20.7,42.9 19.6,41.6 19.4,41.6 19.4,44 19.6,44 	"/>
	<path class="st0" d="M22.7,47.2c2.6,0,4.7-2,4.7-4.6c0-2.5-2.1-4.6-4.6-4.6c-2.6,0-4.7,2-4.8,4.6C18,45.2,20.1,47.2,22.7,47.2z
		 M22.7,38.2c2.5,0,4.5,1.9,4.5,4.4c0,2.4-2,4.4-4.4,4.4c-2.5,0-4.5-1.9-4.6-4.4C18.2,40.2,20.2,38.2,22.7,38.2z"/>
	<polygon class="st0" points="23.3,38.6 23.3,38.6 23.3,38.6 	"/>
	<path class="st0" d="M22.5,42.6c0,0.2,0.1,0.4,0.1,0.7c0,0.1-0.1,0.3-0.1,0.4c-0.3,1-0.1,2,0.5,2.8c0.1,0.1,0.1,0.1,0.2,0.1l0,0
		c0.1,0,0.2-0.1,0-1.2c-0.1-0.6-0.2-1.4-0.4-2.1c0.2-0.9,0.3-2.1,0.3-3c0,0,0.1,0.1,0.1,0.1c0,0,0.1,0,0.1,0c0.1,0,0.1,0,0.2-0.1
		c0.2-0.3-0.2-1.3-0.3-1.6l-0.2,0c0,0,0,0.5-0.1,1.2c-0.4-0.2-0.6-0.2-0.8-0.1c-0.3,0.3-0.2,0.8,0.1,1.7
		C22.3,41.8,22.4,42.2,22.5,42.6z M23.3,39.2c0.1,0.3,0.2,0.6,0.2,1l0,0.1v-0.1c0,0,0,0,0,0c0,0-0.1,0-0.1-0.1c0,0-0.1,0-0.1-0.1
		C23.3,39.7,23.3,39.4,23.3,39.2z M23.1,46.3c-0.5-0.8-0.6-1.7-0.4-2.5C22.9,44.6,23.1,45.4,23.1,46.3z M22.3,40
		c0.1,0,0.1-0.1,0.2-0.1c0.2,0,0.4,0.1,0.5,0.2c-0.1,0.8-0.1,1.8-0.3,2.7c0-0.1,0-0.1,0-0.2c-0.1-0.4-0.2-0.8-0.3-1.1
		C22.2,40.6,22.1,40.1,22.3,40z"/>
	<path class="st0" d="M24.4,41.8c0.1,0,0.2,0,0.2,0c0.2,0,0.5,0,0.7,0.2c0.1,0.1,0.1,0.2,0.1,0.3c0,0.1,0,0.3-0.1,0.4
		c-0.1,0.1-0.3,0.2-0.5,0.2h-0.1V43h0.1c0,0,0,0,0,0c0.2,0,0.4-0.1,0.6-0.2c0.1-0.1,0.2-0.3,0.2-0.5c0-0.2-0.1-0.3-0.2-0.5h0
		c-0.2-0.2-0.5-0.3-0.8-0.2h0c0,0-0.3,0-0.3,0l-0.2,0V44h0.2V41.8z"/>
	<path class="st0" d="M1.7,54h0.7c0.1,0,0.2,0,0.3,0c0.6-0.1,1.1-0.7,1-1.3c0-0.8-0.3-1.3-1.2-1.3H0.8v4.4h0.9V54z M1.7,52.1h0.5
		c0.4,0,0.5,0.3,0.5,0.7c0,0.3-0.2,0.6-0.5,0.6H1.7V52.1z"/>
	<polygon class="st0" points="7.3,55.1 5.7,55.1 5.7,53.8 7.1,53.8 7.1,53.2 5.7,53.2 5.7,52.1 7.2,52.1 7.2,51.4 4.8,51.4 
		4.8,55.8 7.3,55.8 	"/>
	<path class="st0" d="M9.7,54h0.2c0.7,0,0.7,0.4,0.7,1c0,0.3,0,0.6,0.1,0.9h0.9c-0.1-0.4-0.1-0.9-0.1-1.3c0,0,0-0.1,0-0.1
		c0-0.4-0.4-0.8-0.8-0.8v0c0,0,0,0,0,0c0.5-0.1,0.9-0.6,0.8-1.1c0-0.1,0-0.1,0-0.2c0-0.6-0.5-1-1.1-1H8.7v4.4h0.9V54z M9.7,52.1h0.4
		c0.3,0,0.5,0.2,0.5,0.6c0,0.3-0.1,0.6-0.5,0.6H9.7V52.1z"/>
	<path class="st0" d="M14.6,55.9c0.4,0,0.8-0.1,1.3-0.1v-2.2h-1.4v0.7H15v1c-0.1,0.1-0.3,0.1-0.5,0.1c-0.5,0-0.7-0.2-0.7-1.6
		c0-0.9,0-1.6,0.6-1.6c0.5,0,0.6,0.4,0.6,0.8h0.9c0-0.1,0-0.2,0-0.3c-0.1-0.7-0.7-1.2-1.4-1.1c-1.5,0-1.6,1.1-1.6,2.2
		C12.9,55.2,13.1,55.9,14.6,55.9z"/>
	<path class="st0" d="M18.4,54h0.2c0.7,0,0.7,0.4,0.7,1c0,0.3,0,0.6,0.1,0.9h0.9c-0.1-0.4-0.1-0.9-0.1-1.3c0,0,0-0.1,0-0.1
		c0-0.4-0.4-0.8-0.8-0.8v0c0,0,0,0,0,0c0.5-0.1,0.9-0.6,0.8-1.1c0-0.1,0-0.1,0-0.2c0-0.6-0.5-1-1.1-1h-1.7v4.4h0.9L18.4,54z
		 M18.4,52.1h0.4c0.3,0,0.5,0.2,0.5,0.6c0,0.3-0.1,0.6-0.5,0.6h-0.4V52.1z"/>
	<path class="st0" d="M21.4,55.8h0.9l0.3-1h1.3l0.2,1h1l-1.2-4.4h-1.2L21.4,55.8z M23.2,52.3L23.2,52.3l0.5,1.9h-0.9L23.2,52.3z"/>
	<path class="st0" d="M26.2,55.8h0.9V54h0.7c0.1,0,0.2,0,0.3,0c0.6-0.1,1.1-0.7,1-1.3c0-0.8-0.3-1.3-1.2-1.3h-1.7V55.8z M27.2,52.1
		h0.5c0.4,0,0.5,0.3,0.5,0.7c0,0.3-0.2,0.6-0.5,0.6h-0.5V52.1z"/>
	<polygon class="st0" points="31.1,53.8 32.2,53.8 32.2,55.8 33.2,55.8 33.2,51.4 32.2,51.4 32.2,53.2 31.1,53.2 31.1,51.4 
		30.2,51.4 30.2,55.8 31.1,55.8 	"/>
	<rect x="34.7" y="51.4" class="st0" width="0.9" height="4.4"/>
	<path class="st0" d="M38.6,55.9c0.9,0,1.4-0.4,1.4-1.6h-0.9c0,0.3,0,0.9-0.4,0.9c-0.5,0-0.6-0.5-0.6-1.6c0-1.1,0.1-1.6,0.6-1.6
		c0.3,0,0.4,0.2,0.4,0.8h0.9c0-0.9-0.3-1.5-1.3-1.5c-1.5,0-1.5,1.1-1.5,2.3C37.1,54.8,37.1,55.9,38.6,55.9z"/>
	<path class="st0" d="M42.1,51.4l-1.2,4.4h0.9l0.3-1h1.3l0.2,1h1l-1.2-4.4H42.1z M42.2,54.2l0.4-1.9h0l0.5,1.9H42.2z"/>
	<rect x="0.7" y="60.3" class="st0" width="43.8" height="0.5"/>
	<path class="st0" d="M45.8,51.8C45.8,51.8,45.8,51.8,45.8,51.8c0-0.1-0.1-0.2-0.2-0.2h-0.3v0.7h0.1v-0.3h0.1c0,0,0,0,0,0
		c0.1,0,0.1,0,0.1,0.1c0,0.1,0,0.2,0,0.2h0.1c0-0.1,0-0.1,0-0.2c0-0.1,0-0.2-0.1-0.2v0C45.7,52,45.8,51.9,45.8,51.8z M45.6,52h-0.2
		v-0.2h0.2c0,0,0,0,0,0c0.1,0,0.1,0.1,0.1,0.1c0,0,0,0,0,0C45.7,51.9,45.6,52,45.6,52z"/>
	<path class="st0" d="M45.5,51.4C45.5,51.4,45.5,51.4,45.5,51.4c-0.4,0-0.7,0.3-0.6,0.7c0,0.4,0.3,0.6,0.7,0.6
		c0.4,0,0.6-0.3,0.6-0.7C46.2,51.7,45.9,51.4,45.5,51.4z M45.5,52.6c-0.3,0-0.5-0.3-0.5-0.6c0,0,0,0,0,0c0-0.3,0.3-0.5,0.5-0.5
		c0,0,0,0,0,0c0.3,0,0.5,0.3,0.5,0.6C46.1,52.3,45.8,52.6,45.5,52.6z"/>
</g>
<g>
	<path class="st1" d="M124.9,49.9c0.3-0.1,0.6-0.2,0.8-0.3c0.8-0.4,1.1-1.1,1.1-1.9c0.1-1.2-0.6-2.2-1.7-2.4
		c-0.4-0.1-0.8-0.1-1.1-0.1c-1.3,0-2.6,0-4,0c-0.1,0-0.1,0-0.2,0v3.4h-6.3V50h2.9c-0.2,1.1-1,2-2.3,2.3c-1.6,0.3-2.8-0.7-3.2-1.7
		c-0.5-1.3-0.1-2.7,1-3.5c0.6-0.4,1.2-0.6,1.9-0.6c0.9,0.1,1.6,0.5,2.2,1.2c0.4-0.3,0.9-0.6,1.3-1c0-0.1-0.1-0.1-0.1-0.2
		c-1.5-1.8-4.2-2.1-6.1-0.8c-2.2,1.5-2.5,4.3-1.1,6.2c1.1,1.5,2.6,2,4.3,1.9c2-0.2,3.6-1.6,4-3.6c0-0.1,0.1-0.1,0.2-0.1
		c0.5,0,0.9,0,1.4,0c0,0,0.1,0,0.1,0v3.6h1.6V50c0.5,0,0.9,0,1.4,0c0.1,0,0.2,0,0.3,0.2c0.7,1.1,1.3,2.2,2,3.3
		c0.1,0.1,0.1,0.2,0.3,0.2c0.5,0,1,0,1.5,0c0.1,0,0.1,0,0.2,0c-0.8-1.2-1.5-2.4-2.3-3.7C124.7,50,124.8,50,124.9,49.9z M124,48.5
		c-0.8,0-1.6,0-2.4,0c-0.1,0-0.1,0-0.2,0v-1.9c0.1,0,0.1,0,0.2,0c0.8,0,1.6,0,2.4,0c0.2,0,0.4,0,0.5,0.1c0.5,0.1,0.7,0.5,0.7,1
		c0,0.4-0.4,0.8-0.8,0.8C124.3,48.5,124.1,48.5,124,48.5z"/>
	<polygon class="st1" points="150.7,48.5 146.8,48.5 146.8,45.1 145.3,45.1 145.3,48.5 144.3,48.5 144.3,50 145.3,50 145.3,53.6 
		146.9,53.6 146.9,50 150.8,50 150.8,53.6 152.3,53.6 152.3,45.1 150.7,45.1 	"/>
	<path class="st1" d="M142.1,45.3c-0.4-0.1-0.8-0.2-1.3-0.2c-1.3,0-2.6,0-3.9,0c-0.1,0-0.1,0-0.2,0v3.4h-1V50h1v3.6h1.6V50
		c0.3,0,0.5,0,0.8,0c0.8,0,1.7,0,2.5,0c1.2-0.1,2.1-0.8,2.2-2.2C143.8,46.5,143.3,45.6,142.1,45.3z M141.3,48.5c-0.2,0-0.4,0-0.6,0
		c-0.7,0-1.5,0-2.2,0h-0.2v-1.9h0.2c0.8,0,1.6,0,2.4,0c0.1,0,0.3,0,0.5,0c0.5,0.1,0.8,0.5,0.8,1C142.2,48.1,141.8,48.5,141.3,48.5z"
		/>
	<path class="st1" d="M132.1,45.3c-0.1-0.1-0.1-0.2-0.3-0.2c-1,0-2.1,0-3.1,0c-0.1,0-0.1,0-0.2,0v1.4h1.9c-1,2.4-2.1,4.7-3.1,7.1
		c0.5,0,1,0,1.5,0c0.1,0,0.2,0,0.2-0.2c0.2-0.4,0.3-0.9,0.5-1.3c0-0.1,0.1-0.2,0.2-0.2c1.1,0,2.2,0,3.3,0c0.1,0,0.2,0,0.2,0.1
		c0.2,0.4,0.4,0.9,0.5,1.3c0,0.1,0.1,0.2,0.2,0.2c0.3,0,0.6,0,0.9,0h0.6c0-0.1,0-0.1-0.1-0.2C134.4,50.7,133.2,48,132.1,45.3z
		 M130.2,50.6c0.4-1,0.8-2,1.2-3c0.4,1,0.8,2,1.2,3H130.2z"/>
	<path class="st1" d="M164,45.3c0-0.1,0.1-0.1,0.2-0.2c-0.6,0-1.2,0-1.8,0c-0.1,0-0.2,0-0.3,0.1c-0.8,1-1.7,2-2.5,3
		c-0.2,0.2-0.3,0.3-0.6,0.3c-0.2,0-0.2,0-0.2-0.2c0-1,0-2,0-3c0-0.1,0-0.1,0-0.2h-1.5v3.4h-1c0,0.4,0,0.9,0,1.3c0,0.1,0,0.2,0.2,0.2
		c0.3,0,0.5,0,0.8,0v3.6h1.6v-0.3c0-1,0-2.1,0-3.1c0-0.1,0-0.2,0.1-0.2c0.1-0.1,0.6,0,0.7,0.1c0.9,1.1,1.8,2.2,2.6,3.3
		c0.1,0.1,0.2,0.2,0.3,0.1c0.5,0,1,0,1.5,0c0.1,0,0.1,0,0.2,0c-0.1-0.1-0.1-0.2-0.2-0.2c-1-1.3-2.1-2.6-3.2-4
		c-0.1-0.1-0.1-0.2,0-0.3C161.9,47.9,163,46.6,164,45.3z"/>
	<rect x="153.6" y="45.1" class="st1" width="1.5" height="8.5"/>
	<path class="st1" d="M171.1,50.7c-0.6,0-1.1,0-1.7,0c-0.1,0-0.2,0-0.2-0.2c0-0.3,0.1-0.5,0.5-0.5c0.4-0.1,0.7-0.1,1.1-0.2
		c0.3-0.1,0.5-0.3,0.5-0.6c0-0.2,0-0.4,0-0.6c0-0.6-0.2-0.8-0.7-0.9c-0.5-0.1-0.9-0.1-1.4,0c-0.2,0.1-0.4,0.2-0.5,0.4
		c-0.1,0.2-0.1,0.5-0.1,0.8h0.6c0-0.1,0-0.2,0-0.3c0-0.3,0.1-0.4,0.5-0.4c0.2,0,0.4,0,0.5,0c0.3,0,0.4,0.1,0.4,0.4
		c0.1,0.6,0,0.8-0.6,0.9c-0.3,0.1-0.6,0.1-0.9,0.2c-0.3,0.1-0.4,0.3-0.5,0.5c0,0.4,0,0.7-0.1,1.1v0h2.7v-0.3
		C171.4,50.7,171.4,50.7,171.1,50.7z"/>
	<path class="st1" d="M166.5,50c0.4-0.1,0.7-0.1,1.1-0.2c0.3-0.1,0.4-0.3,0.5-0.5c0-0.3,0-0.5,0-0.8c0-0.5-0.3-0.7-0.7-0.8
		c-0.4,0-0.8,0-1.2,0c-0.5,0.1-0.7,0.3-0.8,0.9c0,0.4,0,0.3,0.3,0.3c0.3,0,0.3,0,0.3-0.3c0-0.3,0.1-0.4,0.4-0.4c0.2,0,0.4,0,0.7,0
		c0.2,0,0.4,0.1,0.4,0.4c0.1,0.6,0,0.7-0.6,0.8c-0.3,0.1-0.6,0.1-0.9,0.2c-0.2,0.1-0.4,0.2-0.5,0.4c-0.1,0.4-0.1,0.8-0.1,1.2h2.7
		v-0.5h-2C166,50.2,166.1,50,166.5,50z"/>
	<path class="st1" d="M174.8,49.9c-0.1,0-0.1,0-0.2,0c-0.3,0-0.3,0-0.3-0.3c0-0.6,0-1.2,0-1.8c0-0.1,0-0.1,0-0.2c-0.3,0-0.6,0-0.9,0
		c-0.1,0-0.2,0.1-0.2,0.1c-0.5,0.6-0.9,1.2-1.4,1.8c0,0-0.1,0.1-0.1,0.2c0,0.2,0,0.5,0,0.7h2c0,0.2,0,0.4,0,0.6
		c0,0.1,0.1,0.1,0.1,0.1c0.2,0,0.3,0,0.5,0v-0.7c0.2,0,0.3,0,0.4-0.1C174.8,50.3,174.8,50.1,174.8,49.9z M173.7,49.9h-1.4
		c0.5-0.6,0.9-1.2,1.4-1.8c0,0,0,0,0,0V49.9z"/>
</g>
</svg>
