<svg xmlns="http://www.w3.org/2000/svg" viewBox="0 0 210.3499 92.8694">
  <g id="Calque_2" data-name="Calque 2">
    <g id="Calque_1-2" data-name="Calque 1">
      <path d="M28.11,21.6043c0-3.524-2.849-5.502-7.96-5.502-5.153,0-8.002,1.978-8.002,5.502,0,3.62,2.849,5.598,8.002,5.598,5.111,0,7.96-1.978,7.96-5.598m8.798,0c0,8.349-4.525,12.837-12.82,12.837-6.912,0-10.856-2.948-12.694-8.493l-1.216.339L11.77,34.2c.586,2.992,1.005,3.379,2.388,3.379h2.598v7.24H0v-7.24H1.256c2.011,0,2.514-.869,2.514-4.392V21.0733c0-3.523-.503-4.392-2.514-4.392H.419V9.5863l11.225-.01.419.483-2.053,7.353,1.3.282c1.809-5.736,5.698-8.831,12.778-8.831,8.295,0,12.82,4.488,12.82,12.741" style="fill: #059cf5"/>
      <path d="M65.02,21.6036c0-3.764-2.807-5.549-8.589-5.549-5.823,0-8.63,1.785-8.63,5.549s2.807,5.599,8.63,5.599c5.782,0,8.589-1.834,8.589-5.599m-26.017.049c0-8.543,5.781-12.79,17.428-12.79q17.406,0,17.386,12.79,0,12.813-17.386,12.79c-11.647,0-17.428-4.248-17.428-12.79" style="fill: #059cf5"/>
      <path d="M76.2065,33.7181v-7.239h1.088c2.01,0,2.514-.869,2.514-4.393v-.965c0-3.571-.504-4.439-2.514-4.439h-1.088V9.5871h11.561l.419.482v12.017c0,3.524.503,4.393,2.514,4.393h.836v7.239Z" style="fill: #059cf5"/>
      <path d="M94.4306,33.7181v-7.239h1.256c2.011,0,2.514-.869,2.514-4.393v-.965c0-3.571-.503-4.439-2.514-4.439h-1.256V9.5871h11.728l.419.482-1.341,6.782.923.457c3.016-4.391,9.091-8.445,14.831-8.445,6.493,0,9.259,3.137,9.259,10.859v2.413c0,3.475.502,4.344,2.513,4.344h1.257v7.239h-18.139v-7.239h3.476c2.01,0,2.513-.869,2.513-4.344,0-3.571-.796-5.309-4.65-5.309a19.0339,19.0339,0,0,0-10.809,3.91v1.35c0,3.524.503,4.393,2.514,4.393h3.769v7.239Z" style="fill: #059cf5"/>
      <path d="M81.4836,51.106c0-3.764-2.808-5.549-8.589-5.549-5.823,0-8.63,1.785-8.63,5.549s2.807,5.6,8.63,5.6c5.781,0,8.589-1.835,8.589-5.6m-26.017.049c0-8.542,5.781-12.79,17.428-12.79q17.406,0,17.386,12.79,0,12.8145-17.386,12.79c-11.647,0-17.428-4.247-17.428-12.79" style="fill: #059cf5"/>
      <path d="M210.35,55.9812V63.22h-16.589v-7.239h2.094c2.011,0,2.514-.869,2.514-4.343,0-3.765-1.592-5.309-4.442-5.309a12.4919,12.4919,0,0,0-7.96,3.04v2.269c0,3.474.503,4.343,2.514,4.343h2.01V63.22h-17.677v-7.239h2.513c2.011,0,2.514-.869,2.514-4.343,0-3.765-1.593-5.309-4.442-5.309a12.0644,12.0644,0,0,0-8.714,3.957v1.303c0,3.523.503,4.392,2.514,4.392h2.512V63.22h-17.006v-7.239h1.256c2.011,0,2.514-.869,2.514-4.392v-.965c0-3.571-.503-4.44-2.514-4.44h-1.256V39.09h11.644l.419.481-1.341,6.782,1.007.458c2.598-4.681,7.626-8.445,12.317-8.445,4.894,0,8.539,2.514,8.295,7.287l.964.363c2.849-5.26,7.54-7.65,11.688-7.65,6.116,0,8.881,3.522,8.881,10.859v2.413c0,3.474.503,4.343,2.514,4.343Z" style="fill: #059cf5"/>
      <path d="M151.6067,27.53c-3.268,0-5.33-2.258-5.33-5.636V16.306h15.796l.017-6.838h-15.813V0h-5.553c-.503,8.767-.935,9.587-7.947,9.828v6.478h5.084v7.711c0,6.371,4.762,10.511,12.094,10.511,8.021,0,13.255-5.424,13.389-14.19h-5.867c-.103,4.383-2.314,7.192-5.87,7.192" style="fill: #059cf5"/>
      <path d="M24.2975,81.9614v-2.896c0-3.185-.587-3.958-2.933-3.958H19.27v-7.094h12.988l.419.483V80.03c0,3.089.796,4.827,4.022,4.827,2.346,0,6.2-1.544,9.384-3.91v-1.833c0-3.186-.587-4.007-2.933-4.007h-4.189v-7.094h14.872l.419.483v12.066c0,3.475.503,4.343,2.514,4.343h.837v7.24H46.5865l-.419-.483,1.341-6.782-1.007-.458c-3.645,6.371-7.834,8.447-13.155,8.447-6.912,0-9.049-3.186-9.049-10.908" style="fill: #059cf5"/>
      <path d="M60.4117,92.1447v-7.239h1.172c2.011,0,2.514-.869,2.514-4.393v-.964c0-3.572-.503-4.44-2.514-4.44h-1.676v-7.095h12.064l.419.482-1.341,6.782,1.007.457c3.017-4.391,9.091-8.445,14.83-8.445,6.494,0,9.26,3.137,9.26,10.859v2.413c0,3.475.502,4.344,2.513,4.344h1.257v7.239H81.7777v-7.239h3.476c2.01,0,2.513-.869,2.513-4.344,0-3.571-.796-5.308-4.65-5.308a18.5472,18.5472,0,0,0-10.641,3.909v1.35c0,3.524.503,4.393,2.514,4.393h3.769v7.239Z" style="fill: #059cf5"/>
      <path d="M110.5529,82.25c2.389-2.389,5.151-2.425,7.935.359s2.749,5.547.36,7.936c-2.321,2.32-5.083,2.357-7.868-.427s-2.748-5.547-.427-7.868" style="fill: #059cf5"/>
      <path d="M44.6754,52.1634c-.868,2.935-3.757,4.542-8.187,4.542-5.404,0-8.421-1.979-8.421-5.599,0-3.571,3.017-5.55,8.421-5.55,4.106,0,7.268,1.545,8.022,4.73l8.566-1.545v-9.669h-7.912l-.419.491.88,4.735-.967.291c-2.011-4.344-5.614-6.225-10.683-6.225-8.924,0-14.705,4.248-14.705,12.79s5.781,12.79,17.218,12.79c9.059,0,14.789-2.588,16.672-8.873Z" style="fill: #059cf5"/>
      <path d="M150.3568,55.9812V63.22h-16.589v-7.239h2.094c2.011,0,2.514-.869,2.514-4.343,0-3.765-1.592-5.309-4.442-5.309a12.4919,12.4919,0,0,0-7.96,3.04v2.269c0,3.474.503,4.343,2.514,4.343h2.01V63.22h-17.677v-7.239h2.513c2.011,0,2.514-.869,2.514-4.343,0-3.765-1.593-5.309-4.442-5.309a12.0644,12.0644,0,0,0-8.714,3.957v1.303c0,3.523.503,4.392,2.514,4.392h2.512V63.22H92.7118v-7.239h1.256c2.011,0,2.514-.869,2.514-4.392v-.965c0-3.571-.503-4.44-2.514-4.44h-1.256V39.09h11.644l.419.481-1.341,6.782,1.007.458c2.598-4.681,7.626-8.445,12.317-8.445,4.894,0,8.707,2.514,8.463,7.287l.796.363c2.849-5.26,7.54-7.65,11.688-7.65,6.116,0,8.881,3.522,8.881,10.859v2.413c0,3.474.503,4.343,2.514,4.343Z" style="fill: #059cf5"/>
    </g>
  </g>
</svg>
