<svg xmlns="http://www.w3.org/2000/svg" xmlns:xlink="http://www.w3.org/1999/xlink" viewBox="0 0 337.4403 32.3526">
  <defs>
    <clipPath id="clip-path" transform="translate(0.0003 0.0007)">
      <rect width="337.44" height="32.352" style="fill: none"/>
    </clipPath>
  </defs>
  <g id="Calque_2" data-name="Calque 2">
    <g id="Calque_1-2" data-name="Calque 1">
      <g style="clip-path: url(#clip-path)">
        <path d="M134.9439,13.3652c.055.004.087.011.119.01.242-.009.486-.007.727-.029a2.8149,2.8149,0,0,0-.43-5.608c-.328.002-.416.09-.416.422v5.205Zm-2.39,2.404c-.106,0-.191.001-.277,0-.87-.01-1.745.033-2.61-.043a4.938,4.938,0,0,1-4.15-2.772,5.1881,5.1881,0,0,1,3.741-7.533,4.2955,4.2955,0,0,1,1.006-.061,1.1565,1.1565,0,0,1,1.115,1.278,1.1928,1.1928,0,0,1-1.207,1.099,2.829,2.829,0,0,0-2.739,2.005,2.7909,2.7909,0,0,0,2.385,3.596c.898.07,1.805.012,2.736.012v-.225q0-3.261.001-6.521a1.1946,1.1946,0,0,1,.899-1.217.7992.7992,0,0,1,.199-.03c.709,0,1.419-.021,2.126.009a5.2015,5.2015,0,0,1,.613,10.309,8.9691,8.9691,0,0,1-1.026.092c-.133.01-.267.002-.422.002v.234c0,1.364-.02,2.728.008,4.091a1.2563,1.2563,0,0,1-1.195,1.331,15.4283,15.4283,0,0,1-7.472-1.201,10.35,10.35,0,0,1-6.057-7.797,9.8061,9.8061,0,0,1,2.197-8.172,11.0225,11.0225,0,0,1,6.81-3.953,18.0949,18.0949,0,0,1,4.856-.237,12.8558,12.8558,0,0,1,3.764.884,1.1928,1.1928,0,0,1,.69,1.529,1.1765,1.1765,0,0,1-1.537.699,11.2462,11.2462,0,0,0-3.33-.788,11.5274,11.5274,0,0,0-8.277,2.279,7.4373,7.4373,0,0,0-2.879,5.096,7.521,7.521,0,0,0,2.057,6.283,9.2752,9.2752,0,0,0,5.435,2.798c.748.123,1.515.132,2.274.181.241.016.266-.024.266-.265v-2.992Z" transform="translate(0.0003 0.0007)" style="fill: #059cf5"/>
        <path d="M156.9812,12.2457a.6976.6976,0,1,0,.687.704.6519.6519,0,0,0-.687-.704m-.602,1.864v1.526h-.874c-.003-.058-.008-.122-.008-.187-.001-1.234.002-2.467-.004-3.701-.001-.168.045-.227.214-.215.187.014.376.003.583.003.006.111.011.207.018.337a1.1826,1.1826,0,0,1,.878-.4,1.35,1.35,0,0,1,1.349,1.564,2.0212,2.0212,0,0,1-.192.693,1.2251,1.2251,0,0,1-1.915.389c-.008-.007-.023-.005-.049-.009" transform="translate(0.0003 0.0007)" style="fill: #059cf5"/>
        <path d="M166.9867,12.246a.6972.6972,0,0,0-.015,1.394.6971.6971,0,0,0,.015-1.394m-1.48-.699h.786v.302c.03-.01.052-.01.062-.021a1.1689,1.1689,0,0,1,1.342-.258,1.2625,1.2625,0,0,1,.822,1.108,1.6648,1.6648,0,0,1-.309,1.262,1.2351,1.2351,0,0,1-1.761.201c-.014-.011-.032-.018-.076-.044v1.54h-.866Z" transform="translate(0.0003 0.0007)" style="fill: #059cf5"/>
        <path d="M154.0733,12.9535a.6793.6793,0,1,0-.68.687.6453.6453,0,0,0,.68-.687m-.707,1.46a1.4726,1.4726,0,1,1,.087-2.936,1.4694,1.4694,0,0,1,1.158,2.417,1.5343,1.5343,0,0,1-1.245.519" transform="translate(0.0003 0.0007)" style="fill: #059cf5"/>
        <path d="M177.8347,12.61a.4789.4789,0,0,0-.506-.497.5219.5219,0,0,0-.575.497Zm.168.807c.191.14.385.282.596.437a1.5089,1.5089,0,0,1-1.137.556,1.4856,1.4856,0,0,1-1.563-1.077,1.4692,1.4692,0,0,1,1.543-1.86,1.2869,1.2869,0,0,1,1.285,1.354c.005.12,0,.241,0,.383h-1.983a.5776.5776,0,0,0,.35.475c.292.135.5.074.909-.268" transform="translate(0.0003 0.0007)" style="fill: #059cf5"/>
        <path d="M162.3615,12.6128a.4742.4742,0,0,0-.535-.5.4972.4972,0,0,0-.531.5Zm.893.609h-1.987a.6214.6214,0,0,0,.429.489.74.74,0,0,0,.826-.302c.2.147.395.29.604.443a1.5349,1.5349,0,0,1-2.619-1.523,1.5588,1.5588,0,0,1,2.171-.651,1.3657,1.3657,0,0,1,.574,1.107c.012.133.002.269.002.437" transform="translate(0.0003 0.0007)" style="fill: #059cf5"/>
        <path d="M180.0074,12.61h1.098a.4959.4959,0,0,0-.456-.499.5672.5672,0,0,0-.642.499m1.99.612h-1.99a.6035.6035,0,0,0,.4.481.7288.7288,0,0,0,.849-.296c.203.149.401.294.613.449a1.5344,1.5344,0,0,1-1.142.553,1.4739,1.4739,0,1,1-.03-2.937,1.2946,1.2946,0,0,1,1.299,1.423c.004.1.001.2.001.327" transform="translate(0.0003 0.0007)" style="fill: #059cf5"/>
        <path d="M146.2029,13.1343a1.6151,1.6151,0,0,0-.828.098.2789.2789,0,0,0-.054.51.6456.6456,0,0,0,.686-.05.48.48,0,0,0,.196-.558m-1.686-1.213a1.7886,1.7886,0,0,1,1.28-.447,2.2871,2.2871,0,0,1,.341.031.8889.8889,0,0,1,.833.83c.058.662.051,1.329.072,2.005h-.803c-.011-.081-.022-.166-.037-.284a1.2281,1.2281,0,0,1-1.573.13.8433.8433,0,0,1,.242-1.435,5.2564,5.2564,0,0,1,1.027-.184,2.1928,2.1928,0,0,1,.304-.002.39.39,0,0,0-.259-.43.8543.8543,0,0,0-.958.253c-.151-.151-.301-.3-.469-.467" transform="translate(0.0003 0.0007)" style="fill: #059cf5"/>
        <path d="M172.4751,11.5374c.316,0,.597-.006.878.006.042.002.097.081.117.135.191.496.375.995.562,1.493.028.074.059.147.1.251.203-.585.403-1.134.582-1.691a.2374.2374,0,0,1,.286-.199c.208.014.417.004.651.004a1.5617,1.5617,0,0,1-.043.158c-.328.833-.661,1.665-.985,2.499a.2057.2057,0,0,1-.234.161c-.209-.011-.419.004-.627-.008a.2209.2209,0,0,1-.164-.1c-.373-.887-.739-1.777-1.123-2.709" transform="translate(0.0003 0.0007)" style="fill: #059cf5"/>
        <path d="M151.6867,11.88c-.205.181-.402.355-.613.54a.5307.5307,0,0,0-.53-.161.8748.8748,0,0,0-.395.219.7691.7691,0,0,0,.039.982.6394.6394,0,0,0,.889-.006q.294.282.588.563a1.581,1.581,0,0,1-2.081.011,1.493,1.493,0,0,1-.071-2.107,1.6029,1.6029,0,0,1,2.174-.041" transform="translate(0.0003 0.0007)" style="fill: #059cf5"/>
      </g>
      <rect x="143.0343" y="9.9957" width="0.849" height="4.343" style="fill: #059cf5"/>
      <g style="clip-path: url(#clip-path)">
        <path d="M170.963,12.2748c-.162-.009-.316-.03-.468-.024a.5521.5521,0,0,0-.592.562c-.028.417-.025.836-.034,1.253-.002.087,0,.173,0,.273h-.852v-2.786h.846v.349l.03.047a.9091.9091,0,0,1,1.07-.447Z" transform="translate(0.0003 0.0007)" style="fill: #059cf5"/>
        <path d="M171.3247,14.342V11.539c.264,0,.524-.004.784.004.03.001.082.07.082.108q.0015,1.3245-.006,2.65c0,.011-.013.023-.024.041Z" transform="translate(0.0003 0.0007)" style="fill: #059cf5"/>
      </g>
      <rect x="159.0213" y="11.5527" width="0.855" height="2.787" style="fill: #059cf5"/>
      <g style="clip-path: url(#clip-path)">
        <path d="M171.0653,8.0415a.6629.6629,0,0,0-.699-.709.7707.7707,0,0,0-.806.709Zm.356.287h-1.884a.8418.8418,0,0,0,.527.746.8654.8654,0,0,0,1.046-.327c.086.068.163.13.24.191a1.2082,1.2082,0,0,1-1.776.222,1.28,1.28,0,0,1-.251-1.537,1.1492,1.1492,0,0,1,1.344-.559,1.0882,1.0882,0,0,1,.754,1.264" transform="translate(0.0003 0.0007)" style="fill: #059cf5"/>
        <path d="M162.06,8.0381a.658.658,0,0,0-.694-.705.7672.7672,0,0,0-.809.705Zm.361.284h-1.848a.7533.7533,0,0,0,.423.726.8987.8987,0,0,0,1.116-.296c.075.059.152.12.245.194a1.2068,1.2068,0,0,1-2.176-.536,1.1889,1.1889,0,0,1,.883-1.359,1.0943,1.0943,0,0,1,1.357,1.271" transform="translate(0.0003 0.0007)" style="fill: #059cf5"/>
        <path d="M145.5824,8.2008c-.32.055-.626.09-.922.164a.3534.3534,0,0,0-.283.391.3915.3915,0,0,0,.332.357c.532.152.925-.227.873-.912m.345,1.172h-.275c-.018-.092-.035-.182-.058-.298a.9711.9711,0,0,1-1.025.344.64.64,0,0,1-.556-.559.6265.6265,0,0,1,.431-.736,6.78,6.78,0,0,1,.969-.162,1.2557,1.2557,0,0,1,.175-.001c.01-.224-.014-.431-.214-.536a.9565.9565,0,0,0-1.068.168l-.193-.22a1.2936,1.2936,0,0,1,1.533-.181.7056.7056,0,0,1,.28.581c.004.526.001,1.051.001,1.6" transform="translate(0.0003 0.0007)" style="fill: #059cf5"/>
        <path d="M165.8411,8.2413a2.1282,2.1282,0,0,0-.995.156.3553.3553,0,0,0-.213.358.3361.3361,0,0,0,.258.326,1.1148,1.1148,0,0,0,.473.025c.352-.073.508-.369.477-.865m.34,1.131h-.272c-.015-.094-.029-.183-.037-.231a3.177,3.177,0,0,1-.64.284,1.1309,1.1309,0,0,1-.569-.065.5688.5688,0,0,1-.396-.555.65.65,0,0,1,.337-.642,2.2409,2.2409,0,0,1,1.021-.202c.066-.004.133-.001.197-.001a.4719.4719,0,0,0-.432-.62,1.0618,1.0618,0,0,0-.827.253c-.062-.073-.125-.147-.225-.263a3.2859,3.2859,0,0,1,.538-.251,2.0159,2.0159,0,0,1,.601-.048.7116.7116,0,0,1,.701.701c.011.538.003,1.077.003,1.64" transform="translate(0.0003 0.0007)" style="fill: #059cf5"/>
        <path d="M152.038,7.093h.349V9.37h-.331c-.008-.095-.015-.181-.02-.244a3.0943,3.0943,0,0,1-.565.287.7709.7709,0,0,1-1.055-.723c-.033-.523-.007-1.049-.007-1.592h.328V8.194c.001.122-.003.244.007.365a.5457.5457,0,0,0,.39.554.6485.6485,0,0,0,.732-.256,1.237,1.237,0,0,0,.165-.528c.023-.403.007-.809.007-1.236" transform="translate(0.0003 0.0007)" style="fill: #059cf5"/>
        <path d="M155.9311,7.0944h.344c0,.369,0,.725.001,1.08,0,.128-.001.257.009.384.025.324.154.5.403.561a.6415.6415,0,0,0,.723-.278,1.5967,1.5967,0,0,0,.161-.612c.025-.374.007-.751.007-1.138h.332v2.272h-.313c-.009-.081-.019-.171-.032-.286-.053.049-.094.087-.137.124a.9581.9581,0,0,1-1.057.164.7871.7871,0,0,1-.44-.818c-.003-.478-.001-.956-.001-1.453" transform="translate(0.0003 0.0007)" style="fill: #059cf5"/>
        <path d="M173.7152,8.8408c.089.069.167.13.244.19a1.1679,1.1679,0,0,1-1.636.158,1.3079,1.3079,0,0,1-.089-1.834,1.21,1.21,0,0,1,1.729.065c-.038.034-.074.069-.113.101-.042.034-.086.064-.143.106a.689.689,0,0,0-.706-.28,1.0873,1.0873,0,0,0-.504.257.997.997,0,0,0,.035,1.312.8221.8221,0,0,0,1.183-.075" transform="translate(0.0003 0.0007)" style="fill: #059cf5"/>
        <path d="M149.7282,8.8463c.078.058.159.118.238.176a1.0625,1.0625,0,0,1-1.162.391,1.1419,1.1419,0,0,1-.892-1.089,1.1828,1.1828,0,0,1,.719-1.218,1.1465,1.1465,0,0,1,1.344.328c-.084.064-.168.128-.25.191a.8286.8286,0,0,0-1.194-.065,1.0332,1.0332,0,0,0-.01,1.334.828.828,0,0,0,1.207-.048" transform="translate(0.0003 0.0007)" style="fill: #059cf5"/>
        <path d="M166.65,7.107c.377-.066.379-.065.497.244.203.535.405,1.069.625,1.651.139-.362.263-.682.385-1.002.083-.221.164-.442.248-.662.109-.289.11-.289.467-.235-.036.096-.07.187-.106.278-.247.611-.498,1.221-.74,1.835a.2211.2211,0,0,1-.251.17c-.131-.006-.216-.02-.273-.167-.273-.701-.562-1.397-.852-2.112" transform="translate(0.0003 0.0007)" style="fill: #059cf5"/>
        <path d="M154.0319,7.0817h.47v-.634h.332v.623h.654v.313h-.647v.882c0,.141-.001.283,0,.425.003.406.162.524.549.406.037-.012.074-.022.113-.033.036.332.036.332-.277.378a.5611.5611,0,0,1-.717-.615c-.001-.471,0-.943,0-1.435h-.477Z" transform="translate(0.0003 0.0007)" style="fill: #059cf5"/>
      </g>
      <rect x="143.0353" y="5.6767" width="0.305" height="3.696" style="fill: #059cf5"/>
      <rect x="153.2203" y="5.6797" width="0.302" height="3.695" style="fill: #059cf5"/>
      <g style="clip-path: url(#clip-path)">
        <path d="M159.03,9.3721h-.329V7.0931h.3v.305a2.1442,2.1442,0,0,1,.437-.315,2.2684,2.2684,0,0,1,.556-.074c-.026.149-.042.247-.06.348-.088,0-.166-.005-.244.001a.684.684,0,0,0-.643.641c-.023.364-.013.729-.017,1.093-.001.087,0,.174,0,.28" transform="translate(0.0003 0.0007)" style="fill: #059cf5"/>
        <path d="M178.489,10.2649c-.361.299-.665.571-.993.81-.086.063-.246.03-.372.035s-.252.001-.428.001c.204-.29.382-.547.565-.8a.1417.1417,0,0,1,.102-.044c.354-.003.708-.002,1.126-.002" transform="translate(0.0003 0.0007)" style="fill: #059cf5"/>
        <path d="M159.9611,10.6614a.5147.5147,0,0,1-.489.516.5089.5089,0,0,1-.035-1.017.5107.5107,0,0,1,.524.501" transform="translate(0.0003 0.0007)" style="fill: #059cf5"/>
        <path d="M172.2585,10.6767a.5023.5023,0,0,1-.499.502.51.51,0,1,1-.005-1.019.5006.5006,0,0,1,.504.517" transform="translate(0.0003 0.0007)" style="fill: #059cf5"/>
      </g>
      <polygon points="198.215 10.376 198.215 9.277 194.328 9.277 194.328 14.488 195.605 14.488 195.605 12.361 198.054 12.361 198.054 11.263 195.605 11.263 195.605 10.376 198.215 10.376" style="fill: #059cf5"/>
      <polygon points="225.019 9.277 223.743 9.277 223.743 11.262 221.614 11.262 221.614 9.277 220.338 9.277 220.338 14.488 221.614 14.488 221.614 12.361 223.743 12.361 223.743 14.488 225.019 14.488 225.019 9.277" style="fill: #059cf5"/>
      <g style="clip-path: url(#clip-path)">
        <path d="M218.2607,12.4938c-.153.8-.55,1.036-1.095,1.036-.755,0-1.131-.534-1.131-1.648,0-1.083.376-1.64,1.131-1.64.61,0,.918.314,1.055,1.036l1.252-.181a2.1009,2.1009,0,0,0-2.259-1.907c-1.686,0-2.509,1.02-2.509,2.692,0,1.687.783,2.699,2.469,2.699a2.1607,2.1607,0,0,0,2.339-1.907Z" transform="translate(0.0003 0.0007)" style="fill: #059cf5"/>
        <path d="M210.3548,11l1.594,2.87a3.7013,3.7013,0,0,1,.79-.089,3.0107,3.0107,0,0,1,.819.11,2.6036,2.6036,0,0,1,.331.12V9.277h-1.276v3.496l-1.937-3.496h-1.597v5.21h1.276Z" transform="translate(0.0003 0.0007)" style="fill: #059cf5"/>
        <path d="M208.1405,13.3884h-2.58V12.36h2.419v-1.099h-2.419v-.886h2.58V9.2764h-1.643c-.456.349-.906.706-1.346,1.066q-.438.3585-.867.734v3.411h3.856Z" transform="translate(0.0003 0.0007)" style="fill: #059cf5"/>
        <path d="M194.3276,20.6186h1.541q.1455,0,.288-.006c.093-.003.186-.008.278-.016q.144-.012.285-.03c1.386-.181,2.472-.869,2.472-2.553a2.81,2.81,0,0,0-.221-1.154c-.29.4-.567.801-.827,1.202q-.222.34-.426.677a1.1272,1.1272,0,0,1-.172.287,1.1567,1.1567,0,0,1-.474.334,1.9353,1.9353,0,0,1-.332.097,4.4469,4.4469,0,0,1-.847.063h-.289v-3.013h.289a4.7919,4.7919,0,0,1,.762.048q.3285-.486.683-.973a5.6146,5.6146,0,0,0-1.469-.174h-1.541Z" transform="translate(0.0003 0.0007)" style="fill: #059cf5"/>
      </g>
      <polygon points="204.399 16.516 204.399 15.417 200.154 15.417 200.154 20.628 204.399 20.628 204.399 19.529 201.43 19.529 201.43 18.501 204.238 18.501 204.238 17.403 201.43 17.403 201.43 16.516 204.399 16.516" style="fill: #059cf5"/>
      <g style="clip-path: url(#clip-path)">
        <path d="M206.8886,18.369a7.1123,7.1123,0,0,1,.519-1.022l-.036-.007c-.377-.079-.694-.251-.694-.518,0-.283.429-.424.903-.424a1.7568,1.7568,0,0,1,.468.06,7.8159,7.8159,0,0,1,.593-.631c.089-.084.178-.166.266-.245a3.0517,3.0517,0,0,0-1.255-.251c-1.003,0-2.244.463-2.244,1.554,0,.89.708,1.286,1.48,1.484" transform="translate(0.0003 0.0007)" style="fill: #059cf5"/>
        <path d="M216.2752,20.7218a1.9331,1.9331,0,0,0,1.654-.675l.04.581h.971v-2.943h-2.577v1.02h1.301v.079c0,.667-.61.886-1.196.886-.851,0-1.421-.549-1.421-1.663,0-.015,0-.028.001-.043q-.093.2385-.212.481a7.96,7.96,0,0,1-.731,1.183,2.4036,2.4036,0,0,0,2.17,1.094" transform="translate(0.0003 0.0007)" style="fill: #059cf5"/>
        <path d="M216.4438,16.3823a1.127,1.127,0,0,1,1.188.745l1.252-.18a2.3037,2.3037,0,0,0-2.424-1.617,3.2793,3.2793,0,0,0-1.218.219c.013.045.026.089.037.135a3.27,3.27,0,0,1,.046,1.25,1.2905,1.2905,0,0,1,1.119-.552" transform="translate(0.0003 0.0007)" style="fill: #059cf5"/>
      </g>
      <polygon points="223.743 18.989 221.569 15.418 219.972 15.418 219.972 20.629 221.248 20.629 221.248 17.059 223.422 20.629 225.019 20.629 225.019 15.418 223.743 15.418 223.743 18.989" style="fill: #059cf5"/>
      <g style="clip-path: url(#clip-path)">
        <path d="M206.1732,6.9376a34.2324,34.2324,0,0,1-11.397-3.934l-.575.923a34.8423,34.8423,0,0,0,10.795,3.895c.36-.281.804-.613,1.177-.884" transform="translate(0.0003 0.0007)" style="fill: #059cf5"/>
        <path d="M204.671,8.7062q-.1785.1425-.355.285c-.063.052-.126.103-.189.154-.045.037-.09.074-.134.111-.098.08-.195.162-.292.243-.063.054-.126.107-.189.161a1.7962,1.7962,0,0,1,.189.332,2.1911,2.1911,0,0,1,.174.797c.039-.034.079-.068.118-.102q.1455-.1275.291-.252.2745-.234.552-.461.432-.354.87-.698c.122-.095.245-.19.367-.285q.186-.1425.374-.285.3525-.267.71-.529c.424-.287.918-.662,1.314-.933a51.5179,51.5179,0,0,1,10.676-5.658,6.2627,6.2627,0,0,1,2.211-.452,3.8436,3.8436,0,0,1,1.055.14,2.2658,2.2658,0,0,1,1.549,1.269,2.0394,2.0394,0,0,1-.191,1.833,4.7343,4.7343,0,0,1-2.4,1.833,22.6025,22.6025,0,0,1-8.284,1.211c-.314,0-.619-.002-.911-.004-.268-.001-.522-.003-.765-.003-.71,0-1.438-.029-2.178-.085-.43.295-.949.644-1.362.938a31.3551,31.3551,0,0,0,3.54.211c.24,0,.492.001.759.003.299.002.61.003.931.003a23.4992,23.4992,0,0,0,8.69-1.274c3.112-1.249,3.839-3.502,3.197-5.068a3.3822,3.3822,0,0,0-2.264-1.904,4.9557,4.9557,0,0,0-1.364-.183,7.3882,7.3882,0,0,0-2.616.526,52.9343,52.9343,0,0,0-11.882,6.465c-.523.376-.789.566-1.212.897q-.4935.3765-.979.764" transform="translate(0.0003 0.0007)" style="fill: #059cf5"/>
        <path d="M208.7076,22.3817a4.9662,4.9662,0,0,0,.495.982,31.71,31.71,0,0,0,2.825-2.223h-1.655c-.502.405-1.123.858-1.665,1.241" transform="translate(0.0003 0.0007)" style="fill: #059cf5"/>
        <path d="M202.4883,25.8159a15.9133,15.9133,0,0,1-4.11,1.132,6.9725,6.9725,0,0,1-.74.042,2.8734,2.8734,0,0,1-1.758-.451,2.3469,2.3469,0,0,1-.791-1.933,8.3872,8.3872,0,0,1,.663-3.041c.048-.125.098-.25.151-.376h-1.187a9.4786,9.4786,0,0,0-.732,3.43,3.4008,3.4008,0,0,0,1.208,2.765,3.9108,3.9108,0,0,0,2.439.688,15.4461,15.4461,0,0,0,5.279-1.257,31.5264,31.5264,0,0,0,4.572-2.327c-.185-.291-.385-.647-.534-.947a30.4783,30.4783,0,0,1-4.46,2.275" transform="translate(0.0003 0.0007)" style="fill: #059cf5"/>
        <path d="M199.7471,15.0573h-1.396v-.008c-.061.078-.122.157-.182.235s-.118.155-.176.233-.117.156-.175.235c-.232.314-.457.63-.672.946-.055.081-.109.161-.163.242l-.16.243-.027.041c-.215.33-.417.657-.609.981v.739a1.8122,1.8122,0,0,0,.749-.152.5362.5362,0,0,0,.11-.08,3.5509,3.5509,0,0,0,.505-.631c.022-.032.049-.073.078-.122.033-.052.066-.104.1-.155.029-.046.06-.092.09-.138q.4155-.63.878-1.258c.058-.08.118-.16.177-.239s.118-.157.178-.235q.2535-.33.518-.66c.059-.072.118-.145.177-.217" transform="translate(0.0003 0.0007)" style="fill: #059cf5"/>
        <path d="M213.4252,17.7113l-.008.015a6.4382,6.4382,0,0,1-.554.922V20.33c.13-.145.485-.523.601-.668.07-.086.137-.173.202-.259.071-.094.138-.189.203-.283a4.2924,4.2924,0,0,0,.932-3.325l-.004-.016a2.1166,2.1166,0,0,0-.093-.282,1.88,1.88,0,0,0-.126-.259,2.0263,2.0263,0,0,0-.12-.181,1.8777,1.8777,0,0,0-.278-.299,1.9118,1.9118,0,0,0-.409-.271,2.0141,2.0141,0,0,0-.35-.135,2.5013,2.5013,0,0,0-.682-.091,3.0276,3.0276,0,0,0-.545.05c-.098.017-.196.039-.296.065-.094.025-.189.053-.284.086a5.13,5.13,0,0,0-.676.286q-.093.0465-.186.099c-.034.018-.067.037-.101.056-.085.049-.17.1-.256.154q-.297.1875-.597.417c-.077.059-.153.119-.23.182q-.1125.0915-.225.189c-.119.104-.239.212-.359.326-.175.166-.34.34-.495.519-.063.073-.124.148-.184.223-.074.094-.146.19-.215.287q-.09.126-.174.255a6.7216,6.7216,0,0,0-.542,1.022c-.038.089-.154.377-.198.529a1.0971,1.0971,0,0,0,.689.2,1.28,1.28,0,0,0,.427-.074c.032-.099.118-.278.157-.365a5.6594,5.6594,0,0,1,.597-1.018c.058-.08.119-.158.181-.235q.144-.177.302-.343.11-.114.225-.225c.04-.038.08-.075.12-.112.025-.023.049-.044.073-.066.081-.073.162-.143.242-.21s.16-.133.239-.194c.075-.059.149-.115.223-.168.099-.071.196-.137.292-.199.099-.064.196-.122.291-.176a4.0131,4.0131,0,0,1,.971-.404,2.1979,2.1979,0,0,1,.542-.074c.019,0,.037.001.055.002a1.3458,1.3458,0,0,1,.292.04l.018.005a.8361.8361,0,0,1,.606.626c.002.011.005.02.008.031a1.61,1.61,0,0,1,.039.437,3.2476,3.2476,0,0,1-.34,1.227" transform="translate(0.0003 0.0007)" style="fill: #059cf5"/>
        <path d="M212.3453,15.8862a2.8509,2.8509,0,0,0-.825.284,5.192,5.192,0,0,0-.451.283v4.183h1.276Z" transform="translate(0.0003 0.0007)" style="fill: #059cf5"/>
        <path d="M200.8785,11.4733h-.685v-1.098h.685a1.5156,1.5156,0,0,1,.913.181.395.395,0,0,1,.134.207.6285.6285,0,0,1-.005.34.4456.4456,0,0,1-.294.285,1.5138,1.5138,0,0,1-.422.077c-.102.006-.212.008-.326.008m-.685,1.099h.763l1.052,1.915h1.408l-1.067-1.935-.106-.192a1.4673,1.4673,0,0,0,.995-.997,1.7392,1.7392,0,0,0,.056-.455,1.5737,1.5737,0,0,0-.222-.866,1.17,1.17,0,0,0-.15-.191,1.4255,1.4255,0,0,0-.186-.16,3.3462,3.3462,0,0,0-1.898-.415h-1.904v5.211h1.259Z" transform="translate(0.0003 0.0007)" style="fill: #059cf5"/>
        <path d="M213.8783,23.9489c0,.224.108.34.248.34.143,0,.25-.136.25-.342,0-.203-.107-.345-.25-.345-.14,0-.248.119-.248.347m-.341-1.082h.358v.586a.3992.3992,0,0,1,.332-.167c.301,0,.514.242.514.663,0,.414-.227.656-.533.656a.3723.3723,0,0,1-.313-.149v.118h-.358Z" transform="translate(0.0003 0.0007)" style="fill: #059cf5"/>
        <path d="M214.9962,25.019v-.311h.091c.15,0,.178-.01.213-.108l.012-.034-.438-1.252h.393l.215.779.232-.779h.383l-.458,1.26c-.117.327-.203.445-.507.445Z" transform="translate(0.0003 0.0007)" style="fill: #059cf5"/>
      </g>
      <polygon points="217.197 22.868 217.545 24.118 217.896 22.868 218.287 22.868 217.753 24.575 217.319 24.575 216.788 22.868 217.197 22.868" style="fill: #059cf5"/>
      <rect x="218.6273" y="22.8677" width="0.372" height="1.707" style="fill: #059cf5"/>
      <path d="M219.8778,23.9079h.372l-.185-.583Zm-.014-1.041h.407l.596,1.707h-.404l-.099-.308h-.601l-.098.308h-.395Z" transform="translate(0.0003 0.0007)" style="fill: #059cf5"/>
      <g style="clip-path: url(#clip-path)">
        <path d="M207.98,20.7176c.082-.004.164-.012.247-.023s.166-.025.248-.042a1.7762,1.7762,0,0,0,1.607-1.634,1.186,1.186,0,0,0-.592-1.049,5.2063,5.2063,0,0,0-.717,1.296l-.003-.001a.5132.5132,0,0,1-.355.303,1.4417,1.4417,0,0,1-.272.065,2.2063,2.2063,0,0,1-.313.022,1.6942,1.6942,0,0,1-.788-.168,1.0747,1.0747,0,0,1-.216-.149.97.97,0,0,1-.191-.236,1.0868,1.0868,0,0,1-.102-.247l-1.268.18a1.9833,1.9833,0,0,0,1.132,1.407,2.5425,2.5425,0,0,0,.239.098c.078.027.159.052.242.073a4.4855,4.4855,0,0,0,1.102.105" transform="translate(0.0003 0.0007)" style="fill: #059cf5"/>
        <path d="M224.5679,24.966a15.9572,15.9572,0,0,1-7.601,1.998c-.191,0-.383-.003-.573-.011a11.4587,11.4587,0,0,1-6.441-2.117,5.1457,5.1457,0,0,1-1.148-1.199,3.8073,3.8073,0,0,1-.509-.969,4.7812,4.7812,0,0,1-.308-1.38c-.002-.027-.004-.07-.005-.096a3.78,3.78,0,0,1-1.111-.104c.002.048.002.062.004.11l.003.069a5.8367,5.8367,0,0,0,.479,2.019,3.98,3.98,0,0,0,.527.952,6.25,6.25,0,0,0,1.389,1.451,12.591,12.591,0,0,0,7.074,2.344q.31.012.619.012a17.0827,17.0827,0,0,0,8.139-2.135Z" transform="translate(0.0003 0.0007)" style="fill: #059cf5"/>
        <path d="M7.67,14.522c.173-.008.347-.016.521-.025.04-.002.081-.008.121-.013a6.0251,6.0251,0,0,0,3.765-1.967,6.2857,6.2857,0,0,0-.653-9.113A5.7525,5.7525,0,0,0,6.6325,2.17a5.96,5.96,0,0,0-3.342,1.883,6.2555,6.2555,0,0,0-.696,7.615A5.87,5.87,0,0,0,7.67,14.522m7.694-5.919a7.0578,7.0578,0,0,1-3.986,6.047,7.8627,7.8627,0,0,1-9.014-1.122A6.92,6.92,0,0,1,.0065,8.564a6.825,6.825,0,0,1,1.978-5.186A7.6514,7.6514,0,0,1,8.2985.996a7.5431,7.5431,0,0,1,4.885,2.193,7.2065,7.2065,0,0,1,2.18,5.414" transform="translate(0.0003 0.0007)" style="fill: #059cf5"/>
        <path d="M37.54,7.4179a3.3624,3.3624,0,0,0,.235,1.255,1.5188,1.5188,0,0,0,1.531.948,1.4556,1.4556,0,0,0,1.444-.965,3.37,3.37,0,0,0-.002-2.528,1.4848,1.4848,0,0,0-1.494-.971,1.5306,1.5306,0,0,0-1.49.984,3.4758,3.4758,0,0,0-.224,1.277m-.427,2.638a3.0363,3.0363,0,0,1-1.267-2.038,3.2238,3.2238,0,0,1,2.939-3.898,4.0774,4.0774,0,0,1,2.171.344c.025.012.051.022.07.03.047-.241.072-.48.139-.706a2.1712,2.1712,0,0,1,2.487-1.482.8271.8271,0,0,1,.755.909.7184.7184,0,0,1-1.064.598.8257.8257,0,0,0-.865-.087,1.02,1.02,0,0,0-.517.847,3.1572,3.1572,0,0,0,.01.599.4583.4583,0,0,0,.112.205,3.3419,3.3419,0,0,1-.229,4.294,3.5283,3.5283,0,0,1-2.908,1,3.46,3.46,0,0,1-.464-.068,1.4179,1.4179,0,0,0-1.575,1.216.9716.9716,0,0,0,1.002,1.127c.548.041,1.101.019,1.652.019.788-.001,1.577-.013,2.366-.009a1.621,1.621,0,0,1,.443.084,1.0151,1.0151,0,0,1,.455,1.759,2.8116,2.8116,0,0,1-.388.278c-.222-.62-.733-.634-1.223-.635-1.068-.001-2.136.031-3.204.039a2.9261,2.9261,0,0,1-1.505-.357,2.0335,2.0335,0,0,1-1.059-1.8,2.1184,2.1184,0,0,1,1.567-2.227c.027-.009.053-.022.1-.041" transform="translate(0.0003 0.0007)" style="fill: #059cf5"/>
        <path d="M51.4974,8.549c0-.086.002-.172-.001-.257a5.5286,5.5286,0,0,0-.26-1.654,1.6933,1.6933,0,0,0-2.114-1.204,3.0614,3.0614,0,0,0-1.767,1.228.3112.3112,0,0,0-.021.192c.029.427.082.854.091,1.281.016.709.003,1.419.007,2.128a.3482.3482,0,0,0,.052.207,3.6654,3.6654,0,0,0,1.136.945,1.7755,1.7755,0,0,0,2.515-.824,4.6483,4.6483,0,0,0,.362-2.042m-4.096,3.229c0,.867-.003,1.696.002,2.525.001.22.114.319.36.327.225.007.451.001.689.001v.837h-3.654v-.871c.214,0,.427.001.64,0,.28-.002.377-.091.389-.368.008-.2.005-.4.005-.6-.002-1.786.005-3.572-.01-5.357a6.6682,6.6682,0,0,0-.371-2.344c-.012-.032-.024-.064-.038-.096-.208-.478-.429-.578-.933-.414-.074-.17-.149-.341-.23-.525.696-.285,1.379-.564,2.107-.861.223.508.44,1.003.669,1.526.172-.175.337-.374.532-.538a3.4719,3.4719,0,0,1,3.389-.757,2.9328,2.9328,0,0,1,1.926,1.868,6.9457,6.9457,0,0,1,.396,2.987,5.5331,5.5331,0,0,1-.448,1.998,2.9574,2.9574,0,0,1-3.157,1.789,3.2677,3.2677,0,0,1-1.911-.823c-.109-.092-.216-.186-.352-.304" transform="translate(0.0003 0.0007)" style="fill: #059cf5"/>
        <path d="M22.6306,8.3637l.023-.001c0-.538.002-1.075-.002-1.613a.3466.3466,0,0,0-.055-.206,3.1879,3.1879,0,0,0-1.19-.956,1.7859,1.7859,0,0,0-1.819.143,1.9616,1.9616,0,0,0-.739,1.132,6.1373,6.1373,0,0,0-.087,2.82,3.102,3.102,0,0,0,.465,1.21,1.6271,1.6271,0,0,0,1.632.766,2.6376,2.6376,0,0,0,1.763-.966.4378.4378,0,0,0,.095-.273c-.021-.685-.056-1.37-.086-2.056m1.67,4.546c-.358-.368-.741-.761-1.141-1.172-.072.075-.165.181-.268.278a3.3679,3.3679,0,0,1-2.215.909,3.3335,3.3335,0,0,1-2.427-.755,3.67,3.67,0,0,1-1.191-2.048,6.7548,6.7548,0,0,1,.222-4.065,2.8117,2.8117,0,0,1,2.283-1.89,3.3464,3.3464,0,0,1,2.893.857c.076.068.154.133.261.226V2.32c0-.324-.096-.418-.425-.42-.203-.002-.406-.003-.61-.005-.01,0-.019-.009-.037-.017v-.829h2.612v.208q0,4.2405.003,8.481a6.612,6.612,0,0,0,.074.818,2.1356,2.1356,0,0,0,.695,1.237c.073.072.141.149.211.224-.306.291-.605.575-.94.893" transform="translate(0.0003 0.0007)" style="fill: #059cf5"/>
        <path d="M31.4853,8.92c-.393-.018-.757-.041-1.122-.052a3.1431,3.1431,0,0,0-1.417.206,1.394,1.394,0,0,0-.788,1.476,1.2388,1.2388,0,0,0,.95,1.102,2.3937,2.3937,0,0,0,2.389-.914.3732.3732,0,0,0,.032-.195c-.01-.234-.036-.468-.042-.702-.008-.302-.002-.604-.002-.921m-.011-.908c0-.366.005-.72-.001-1.073a8,8,0,0,0-.042-.89.8408.8408,0,0,0-.769-.809,3.595,3.595,0,0,0-1.588.058.7391.7391,0,0,0-.577.536.7113.7113,0,0,1-.951.528.7817.7817,0,0,1-.526-.971,1.2513,1.2513,0,0,1,.708-.843,3.7323,3.7323,0,0,1,1.244-.369,6.55,6.55,0,0,1,2.457.048,1.8866,1.8866,0,0,1,1.6,1.898c.038,1.189.029,2.379.01,3.568a2.5761,2.5761,0,0,0,.827,2.134c.056.049.106.105.159.158.008.008.013.019.008.011-.318.313-.632.622-.961.946a3.713,3.713,0,0,1-1.112-1.27c-.05.055-.092.099-.133.144a3.5387,3.5387,0,0,1-4.066.788,2.1667,2.1667,0,0,1-1.235-1.935,3.2984,3.2984,0,0,1,.089-1.001,2.22,2.22,0,0,1,1.615-1.56,5.5978,5.5978,0,0,1,2.12-.181c.364.024.728.055,1.124.085" transform="translate(0.0003 0.0007)" style="fill: #059cf5"/>
        <path d="M5.1493,18.9286c.194,0,.368.008.541-.002.196-.012.379-.079.421-.291a1.6677,1.6677,0,0,0,.011-.489.3534.3534,0,0,0-.278-.298,1.4719,1.4719,0,0,0-.695-.009Zm-.831-1.14v-.202c.582,0,1.161-.034,1.735.012.413.032.597.326.598.771.002.468-.171.714-.59.799a4.1358,4.1358,0,0,1-.57.053c-.108.007-.218.002-.349.002,0,.293-.003.571.005.85.001.03.064.075.104.083a1.349,1.349,0,0,0,.241.004c.003.07.006.13.009.202H4.3183c-.003-.057-.006-.116-.008-.17.018-.013.027-.024.037-.025.294-.022.294-.022.294-.313v-1.801c0-.249-.001-.248-.249-.257-.023,0-.045-.005-.074-.008" transform="translate(0.0003 0.0007)" style="fill: #059cf5"/>
        <path d="M20.1774,19.3756h-.005c0-.114.001-.228,0-.342a.4684.4684,0,0,0-.372-.428.426.426,0,0,0-.488.167,1.2683,1.2683,0,0,0,.046,1.206.4125.4125,0,0,0,.516.113c.224-.097.344-.175.306-.408a1.9759,1.9759,0,0,1-.003-.308m.133.783a.8985.8985,0,0,1-.637.29.8112.8112,0,0,1-.853-.569,1.6581,1.6581,0,0,1-.001-1.095.78.78,0,0,1,1.218-.376c.041.029.08.059.149.11,0-.258.013-.485-.01-.709-.006-.053-.136-.094-.24-.16v-.153h.637v.194q0,.9165,0,1.835a.7566.7566,0,0,0,.254.691c-.079.082-.149.154-.236.244-.095-.103-.184-.198-.281-.302" transform="translate(0.0003 0.0007)" style="fill: #059cf5"/>
        <path d="M30.4713,19.3846h-.008v-.36a.4872.4872,0,0,0-.395-.429.4045.4045,0,0,0-.481.216,1.2235,1.2235,0,0,0,.033,1.12.3952.3952,0,0,0,.526.167c.248-.098.379-.184.328-.442a1.37,1.37,0,0,1-.003-.272m.014-.861a5.686,5.686,0,0,0-.011-.699c-.008-.063-.147-.11-.254-.184v-.142h.65v.18q0,.927,0,1.854a.7757.7757,0,0,0,.24.694c-.066.07-.133.141-.219.233l-.267-.315a.9531.9531,0,0,1-.7.305.8029.8029,0,0,1-.793-.532,1.6107,1.6107,0,0,1-.014-1.142.7778.7778,0,0,1,1.209-.37c.042.029.082.061.159.118" transform="translate(0.0003 0.0007)" style="fill: #059cf5"/>
        <path d="M39.793,18.5365V18.33h.664v.773c0,.161.007.321-.001.481a.6353.6353,0,0,0,.235.614c-.08.092-.154.177-.245.282-.128-.152-.24-.287-.358-.426a.9369.9369,0,0,1-.763.396.59.59,0,0,1-.638-.568c-.024-.353-.015-.708-.019-1.063-.002-.247-.001-.247-.246-.283V18.33h.653c0,.079-.001.156,0,.233.004.372.004.744.013,1.115.004.156.021.318.194.391a.4821.4821,0,0,0,.506-.08.54.54,0,0,0,.262-.505,6.4389,6.4389,0,0,1-.005-.652c0-.259,0-.259-.252-.295" transform="translate(0.0003 0.0007)" style="fill: #059cf5"/>
        <path d="M10.4608,18.5353v-.206h.665v.516c0,.257.001.514,0,.772a.6178.6178,0,0,0,.266.594c-.098.091-.18.168-.281.261-.118-.142-.227-.273-.358-.431a2.718,2.718,0,0,1-.195.214.842.842,0,0,1-.717.182.5557.5557,0,0,1-.476-.538c-.024-.359-.014-.72-.017-1.08-.002-.251-.001-.251-.252-.28V18.33h.659c0,.219-.002.434,0,.65.003.262-.009.527.018.788a.3606.3606,0,0,0,.543.302.6024.6024,0,0,0,.403-.574v-.652c0-.27,0-.27-.258-.309" transform="translate(0.0003 0.0007)" style="fill: #059cf5"/>
        <path d="M44.7246,18.5463v-.218h.65c.003.059.01.118.01.178.001.366-.006.733.003,1.099.005.179-.007.384.212.467a.5246.5246,0,0,0,.583-.159.482.482,0,0,0,.171-.407c-.017-.234-.004-.469-.004-.704,0-.239,0-.239-.255-.258v-.211h.652c.003.054.009.115.009.175.001.361.003.721,0,1.082a.6888.6888,0,0,0,.261.628c-.092.086-.171.161-.272.256-.12-.144-.232-.279-.349-.419a.9526.9526,0,0,1-.756.395.5817.5817,0,0,1-.644-.559c-.027-.364-.014-.732-.018-1.098-.002-.233,0-.233-.253-.247" transform="translate(0.0003 0.0007)" style="fill: #059cf5"/>
        <path d="M7.3721,19.3391a4.07,4.07,0,0,0,.1.494.4213.4213,0,0,0,.433.306.4314.4314,0,0,0,.462-.292,1.386,1.386,0,0,0-.005-1.006.4357.4357,0,0,0-.45-.287.4224.4224,0,0,0-.43.288,4.6875,4.6875,0,0,0-.11.497m.542,1.109c-.67.01-.985-.457-.981-1.15a1.4739,1.4739,0,0,1,.032-.272.9045.9045,0,0,1,1.02-.776.88.88,0,0,1,.891.837,2.25,2.25,0,0,1-.003.544.8749.8749,0,0,1-.959.817" transform="translate(0.0003 0.0007)" style="fill: #059cf5"/>
        <path d="M23.3792,19.3341a4.1739,4.1739,0,0,0,.114.528.4142.4142,0,0,0,.418.278.4322.4322,0,0,0,.449-.259,1.346,1.346,0,0,0,.005-1.053.4329.4329,0,0,0-.441-.275.4277.4277,0,0,0-.432.287,4.0719,4.0719,0,0,0-.113.494m1.541.022c-.016.116-.023.243-.051.365a.9721.9721,0,0,1-1.878.013,1.5589,1.5589,0,0,1,.02-.846.8974.8974,0,0,1,1.006-.638.8765.8765,0,0,1,.859.757c.021.111.029.226.044.349" transform="translate(0.0003 0.0007)" style="fill: #059cf5"/>
        <path d="M16.9575,19.135c.034-.381-.1-.584-.386-.598-.336-.017-.518.188-.523.598Zm.441,1.036a1.2758,1.2758,0,0,1-1.273.198.9056.9056,0,0,1-.552-.929,1.77,1.77,0,0,1,.038-.442.9526.9526,0,0,1,1.331-.681.7385.7385,0,0,1,.445.628c.075.461.075.461-.392.461-.308.001-.615.002-.923.004a.18.18,0,0,0-.049.019c.017.242.03.497.277.635a.8157.8157,0,0,0,.904-.136c.06.075.123.154.194.243" transform="translate(0.0003 0.0007)" style="fill: #059cf5"/>
        <path d="M32.7524,19.1351c-.006-.446-.153-.624-.479-.597a.4809.4809,0,0,0-.433.597Zm-.939.271c-.004.271.025.517.26.654a.8157.8157,0,0,0,.914-.133c.06.077.118.152.188.242a1.2841,1.2841,0,0,1-1.204.225.8408.8408,0,0,1-.603-.764,1.4331,1.4331,0,0,1,.136-.933.9357.9357,0,0,1,1.064-.424.752.752,0,0,1,.609.737c.041.396.041.396-.367.396h-.997" transform="translate(0.0003 0.0007)" style="fill: #059cf5"/>
        <path d="M43.1429,19.1331h.909c.037-.376-.097-.581-.384-.596-.334-.017-.516.183-.525.596m-.028.273c.024.277.041.537.296.668a.8333.8333,0,0,0,.891-.147c.059.075.117.15.188.241a1.6909,1.6909,0,0,1-.156.111,1.32,1.32,0,0,1-1.042.119.7738.7738,0,0,1-.542-.515,1.49,1.49,0,0,1,.017-1.074.9156.9156,0,0,1,1.047-.55.7833.7833,0,0,1,.691.834c.022.313.022.313-.29.313h-1.1" transform="translate(0.0003 0.0007)" style="fill: #059cf5"/>
        <path d="M37.6414,19.4342a4.6118,4.6118,0,0,0-.571.054.327.327,0,0,0-.223.38.3056.3056,0,0,0,.331.267c.392-.033.576-.14.463-.701m.676.78c-.092.087-.167.157-.261.245-.089-.094-.181-.191-.28-.296a.909.909,0,0,1-.766.282.5923.5923,0,0,1-.581-.575.5582.5582,0,0,1,.469-.627,6.1344,6.1344,0,0,1,.77-.054c0-.067-.006-.15.001-.233.036-.458-.249-.48-.605-.393a.2735.2735,0,0,0-.136.14.1855.1855,0,0,1-.256.108.1791.1791,0,0,1-.103-.256.423.423,0,0,1,.195-.201,1.3908,1.3908,0,0,1,.97-.046.4476.4476,0,0,1,.321.445c.011.274.015.549.006.823a.6858.6858,0,0,0,.256.638" transform="translate(0.0003 0.0007)" style="fill: #059cf5"/>
        <path d="M49.9294,20.4689a3.5024,3.5024,0,0,1-.524-.108.4681.4681,0,0,1-.236-.222.2538.2538,0,0,1,.086-.227.1775.1775,0,0,1,.255.06.6888.6888,0,0,0,.848.09.34.34,0,0,0,.096-.269.3322.3322,0,0,0-.197-.203c-.225-.073-.464-.101-.69-.169a.4985.4985,0,0,1-.371-.469.5652.5652,0,0,1,.267-.559,1.0613,1.0613,0,0,1,.737-.133,1.0393,1.0393,0,0,1,.378.11.3673.3673,0,0,1,.131.234c.008.04-.075.142-.111.14a.41.41,0,0,1-.235-.098.6089.6089,0,0,0-.732.003.2461.2461,0,0,0,.106.413c.211.062.431.091.644.142a.5433.5433,0,0,1,.477.6c-.001.349-.23.575-.647.633-.091.012-.185.01-.278.015l-.004.017" transform="translate(0.0003 0.0007)" style="fill: #059cf5"/>
        <path d="M34.2605,20.4746a5.2366,5.2366,0,0,1-.572-.141.3329.3329,0,0,1-.184-.203.2507.2507,0,0,1,.1-.22.2625.2625,0,0,1,.235.062.725.725,0,0,0,.855.093.3373.3373,0,0,0,.1-.267.3279.3279,0,0,0-.192-.207c-.213-.069-.444-.087-.658-.155a.5643.5643,0,0,1-.274-.922.8282.8282,0,0,1,.346-.215,1.2368,1.2368,0,0,1,.786.014.3877.3877,0,0,1,.216.154c.034.064-.005.165-.012.25-.09-.007-.221.019-.262-.028a.5442.5442,0,0,0-.62-.131.2672.2672,0,0,0-.222.272.2338.2338,0,0,0,.217.246c.197.044.397.079.594.126a.5445.5445,0,0,1,.485.526.5686.5686,0,0,1-.424.646,4.224,4.224,0,0,1-.514.1" transform="translate(0.0003 0.0007)" style="fill: #059cf5"/>
        <path d="M41.5934,18.33h.719v.314h-.716c0,.095-.001.183,0,.271.003.303-.001.607.013.909.014.29.213.4.481.273a2.2586,2.2586,0,0,0,.24-.152c.053.069.105.136.155.202a.8033.8033,0,0,1-.855.277.5288.5288,0,0,1-.446-.556c-.021-.342-.013-.686-.018-1.029-.001-.061,0-.122,0-.192h-.342v-.284c.541-.023.482-.433.501-.791h.268Z" transform="translate(0.0003 0.0007)" style="fill: #059cf5"/>
        <path d="M26.14,18.655c0-.081-.001-.131,0-.182.001-.033.005-.067.009-.11.546-.023.498-.426.508-.792h.272v.758h.719v.31h-.701c0,.433-.015.855.006,1.274.011.205.209.286.427.201a2.2042,2.2042,0,0,0,.285-.166c.046.058.101.127.155.193a.8038.8038,0,0,1-.885.274.55.55,0,0,1-.421-.594c-.007-.383-.002-.765-.002-1.166Z" transform="translate(0.0003 0.0007)" style="fill: #059cf5"/>
        <path d="M48.23,20.1487v.216h-.902v-.208c.248-.037.251-.037.247-.293-.005-.303-.004-.607-.032-.908-.016-.169-.011-.386-.287-.389-.022-.001-.043-.07-.072-.12.18-.07.345-.135.523-.204.064.142.125.275.191.421a.8159.8159,0,0,1,.578-.4.7067.7067,0,0,1,.376.077.2046.2046,0,0,1,.05.316c-.081.113-.201.096-.309.023-.181-.121-.273-.118-.423.032a.5528.5528,0,0,0-.199.468c.024.239.006.481.006.721,0,.229,0,.229.253.248" transform="translate(0.0003 0.0007)" style="fill: #059cf5"/>
        <path d="M22.0507,20.1569v.206h-.91v-.201c.252-.049.256-.049.251-.314-.006-.303-.006-.607-.037-.908-.017-.16-.011-.376-.283-.371-.021,0-.044-.068-.076-.121.181-.071.346-.135.524-.205.064.14.125.272.193.418a.823.823,0,0,1,.559-.395.8071.8071,0,0,1,.367.053.2323.2323,0,0,1,.084.339.2206.2206,0,0,1-.324.01.2544.2544,0,0,0-.374.008.5512.5512,0,0,0-.237.501,5.6029,5.6029,0,0,1,.006.686c.001.259,0,.259.257.294" transform="translate(0.0003 0.0007)" style="fill: #059cf5"/>
        <path d="M12.603,20.1559v.207h-.909v-.2c.251-.052.255-.052.25-.311-.006-.309-.008-.618-.037-.925-.016-.158-.02-.359-.277-.358-.024,0-.049-.067-.083-.119.181-.071.346-.136.524-.207.065.139.126.272.196.421a.8092.8092,0,0,1,.571-.4.779.779,0,0,1,.351.052.2358.2358,0,0,1,.089.339.2282.2282,0,0,1-.325.018.2611.2611,0,0,0-.398.023.5579.5579,0,0,0-.215.496,6.2734,6.2734,0,0,1,.006.686c0,.245,0,.245.257.278" transform="translate(0.0003 0.0007)" style="fill: #059cf5"/>
        <path d="M14.4637,17.6935V17.5h.648v2.386c0,.244,0,.244.251.263v.216h-.894v-.206c.248-.041.248-.041.248-.296v-1.87c0-.259,0-.259-.253-.299" transform="translate(0.0003 0.0007)" style="fill: #059cf5"/>
        <path d="M25.8112,20.1278c.097.008.165.014.243.02v.215h-.903V20.15a.38.38,0,0,0,.136-.014c.045-.025.109-.072.11-.11.007-.451.004-.903.005-1.355.001-.193-.169-.078-.252-.14v-.202h.661Z" transform="translate(0.0003 0.0007)" style="fill: #059cf5"/>
        <path d="M25.8553,17.6674a.2285.2285,0,0,1-.258.25.2261.2261,0,0,1-.247-.261.2526.2526,0,1,1,.505.011" transform="translate(0.0003 0.0007)" style="fill: #059cf5"/>
        <path d="M6.2343,5.338c-.011.082-.018.156-.03.229a.797.797,0,0,1-1.069.65.7382.7382,0,0,1-.464-.89,1.0476,1.0476,0,0,1,.488-.701,2.9118,2.9118,0,0,1,1.225-.411,6.7122,6.7122,0,0,1,2.218.025,1.8223,1.8223,0,0,1,1.695,1.998c.016,1.241.009,2.483.006,3.725a.356.356,0,0,0,.12.282c.335.325.659.66,1.012,1.015-.374.336-.759.681-1.175,1.054-.469-.493-.987-1.036-1.496-1.571-.205.265-.403.56-.641.82a2.385,2.385,0,0,1-2.961.528,1.7982,1.7982,0,0,1-.938-1.987,1.807,1.807,0,0,1,1.94-1.527.2657.2657,0,0,1,.063.019v2.046h2.518V5.338Z" transform="translate(0.0003 0.0007)" style="fill: #059cf5"/>
        <path d="M108.0748,5.4548h-1.68V12.68h-2.391c-.002-.264,0-.528-.001-.792V5.5068h-1.309c-.025-.087-.031-1.719-.007-1.864h1.311c.002-.044.005-.083.005-.122V2.1818a2.5277,2.5277,0,0,1,.069-.625,1.6208,1.6208,0,0,1,.603-.914,2.5509,2.5509,0,0,1,1.034-.455,5.6892,5.6892,0,0,1,.821-.114.94.94,0,0,0,.106-.019h.62c.032.005.064.014.096.016.154.011.307.02.461.03.087.006.175.013.262.02v1.793c-.309.004-.619.002-.927.016a1.7229,1.7229,0,0,0-.389.073.4433.4433,0,0,0-.323.347,1.6348,1.6348,0,0,0-.041.327c-.006.291-.003.582-.002.873,0,.029.005.057.008.093.058,0,.108.001.159,0l1.515-.003Z" transform="translate(0.0003 0.0007)" style="fill: #059cf5"/>
        <path d="M65.2711,1.2718c.037-.016.075-.029.111-.047q.4185-.216.835-.431c.035-.019.072-.036.104-.052l.015.01.006.009q.003,5.916.005,11.833a.4906.4906,0,0,1-.006.066c0,.006-.007.012-.019.032h-1.051Z" transform="translate(0.0003 0.0007)" style="fill: #059cf5"/>
        <path d="M93.7717,8.0607c-.152.034-.289.061-.423.095a3.2791,3.2791,0,0,0-1.071.461,1.6482,1.6482,0,0,0-.748,1.221,1.3614,1.3614,0,0,0,.146.836.8482.8482,0,0,0,.63.459,1.108,1.108,0,0,0,1.101-.416,1.6222,1.6222,0,0,0,.195-.344,2.291,2.291,0,0,0,.169-.907c.004-.428.001-.855.001-1.283Zm-3.328-2.045c-.377-.468-.746-.927-1.114-1.384.004-.012.004-.022.008-.026a5.2025,5.2025,0,0,1,1.336-.834,4.7289,4.7289,0,0,1,1.32-.31,6.4248,6.4248,0,0,1,1.193-.021,4.7634,4.7634,0,0,1,1.622.402,2.3339,2.3339,0,0,1,1.166,1.147,2.1214,2.1214,0,0,1,.191.791c.008.132.008.265.008.398q.0015,2.157,0,4.315a.7673.7673,0,0,0,.082.363.5.5,0,0,0,.393.288c.014.002.028.005.048.009v1.621a.4162.4162,0,0,1-.072.011c-.236,0-.472.004-.708-.002a1.9206,1.9206,0,0,1-1.69-.979c-.021-.035-.038-.071-.061-.105a.0613.0613,0,0,0-.108-.01.5294.5294,0,0,0-.055.07,2.8863,2.8863,0,0,1-2.044,1.145,2.5159,2.5159,0,0,1-1.363-.196,2.0049,2.0049,0,0,1-1.154-1.216,3.2488,3.2488,0,0,1,.197-2.687,3.034,3.034,0,0,1,1.222-1.202,5.9854,5.9854,0,0,1,1.395-.55,7.6761,7.6761,0,0,1,1.459-.249c.017-.001.035-.004.057-.006a.1338.1338,0,0,0,.012-.043c-.008-.317-.008-.634-.029-.95a.7263.7263,0,0,0-.45-.635,1.4433,1.4433,0,0,0-.532-.137,2.6082,2.6082,0,0,0-1.436.326,4.4662,4.4662,0,0,0-.755.539c-.042.036-.084.071-.138.117" transform="translate(0.0003 0.0007)" style="fill: #059cf5"/>
        <path d="M82.0192,11.7976c.358-.546.712-1.085,1.072-1.633.034.033.062.06.09.086.178.161.347.333.534.481a2.0344,2.0344,0,0,0,1.323.453,1.113,1.113,0,0,0,.461-.101.7859.7859,0,0,0,.413-.929.5854.5854,0,0,0-.223-.322,3.5065,3.5065,0,0,0-.413-.256c-.347-.178-.703-.34-1.05-.519a6.3129,6.3129,0,0,1-1.143-.733c-.102-.085-.201-.174-.295-.268a2.4949,2.4949,0,0,1-.752-1.896,2.8411,2.8411,0,0,1,.332-1.328,2.7174,2.7174,0,0,1,1.589-1.279,3.2358,3.2358,0,0,1,.958-.147,4.7077,4.7077,0,0,1,2.519.632c.143.081.276.181.425.279-.347.504-.685.994-1.027,1.491-.04-.025-.073-.046-.107-.067-.239-.144-.474-.298-.72-.432a1.89,1.89,0,0,0-1.011-.23,1.3219,1.3219,0,0,0-.421.086.6429.6429,0,0,0-.226,1.069,1.8125,1.8125,0,0,0,.354.262c.19.106.388.196.586.286a11.473,11.473,0,0,1,1.271.644,3.759,3.759,0,0,1,.938.784,2.6833,2.6833,0,0,1,.619,1.556,3.3167,3.3167,0,0,1-.101,1.14,2.49,2.49,0,0,1-1.033,1.43,3.2477,3.2477,0,0,1-1.478.552,4.3622,4.3622,0,0,1-3.301-.942c-.061-.048-.12-.097-.183-.149" transform="translate(0.0003 0.0007)" style="fill: #059cf5"/>
        <path d="M74.1569,8.3443c-.038-.004-.063-.009-.088-.009-.391.015-.782.02-1.171.048a4.2679,4.2679,0,0,0-1.071.214,3.0494,3.0494,0,0,0-1.122.624,1.6908,1.6908,0,0,0-.585,1.557,1.2057,1.2057,0,0,0,.735.994,1.71,1.71,0,0,0,.911.111,2.3867,2.3867,0,0,0,.811-.281,6.06,6.06,0,0,0,1.505-1.169.2629.2629,0,0,0,.077-.197c-.003-.59-.002-1.18-.002-1.77Zm.029-.707c.002-.042.005-.064.005-.086,0-.365.004-.73-.004-1.095a2.0347,2.0347,0,0,0-.06-.425.8817.8817,0,0,0-.463-.578,1.6925,1.6925,0,0,0-.59-.176,3.37,3.37,0,0,0-1.946.324c-.284.139-.557.303-.834.456-.039.021-.075.045-.127.077-.164-.356-.316-.709-.473-1.06.011-.012.017-.023.026-.027a9.2854,9.2854,0,0,1,1.516-.609,5.2653,5.2653,0,0,1,1.841-.162,3.3066,3.3066,0,0,1,.958.205,2.1188,2.1188,0,0,1,.915.675,1.7463,1.7463,0,0,1,.37.978c.011.158.016.317.016.475q.0015,2.169.002,4.337a2.7479,2.7479,0,0,0,.028.385.686.686,0,0,0,.151.34.4982.4982,0,0,0,.399.205c.084.001.169.004.254.007.036.001.072.003.114.005v.917c-.01.006-.016.013-.022.013a3.9431,3.9431,0,0,1-.958-.058,1.0066,1.0066,0,0,1-.56-.335,1.7052,1.7052,0,0,1-.418-1.07.52.52,0,0,0-.005-.088.0664.0664,0,0,0-.115-.042.675.675,0,0,0-.068.073,7.11,7.11,0,0,1-.818.791,3.0847,3.0847,0,0,1-1.384.657,3.3614,3.3614,0,0,1-1.384-.018,1.956,1.956,0,0,1-1.447-1.291,2.3709,2.3709,0,0,1,.448-2.482,2.9368,2.9368,0,0,1,1.051-.776,5.6389,5.6389,0,0,1,1.709-.469,14.7636,14.7636,0,0,1,1.734-.073h.139" transform="translate(0.0003 0.0007)" style="fill: #059cf5"/>
        <path d="M98.5353,12.6773V3.65h2.34v9.018c-.076.024-2.139.033-2.34.009" transform="translate(0.0003 0.0007)" style="fill: #059cf5"/>
        <path d="M100.8783.1044v2.018c-.084.026-2.079.038-2.329.015-.023-.076-.031-1.881-.007-2.033Z" transform="translate(0.0003 0.0007)" style="fill: #059cf5"/>
        <path d="M84.7086,31.4447h-.353c-.025-.081-.031-1.673-.006-1.806h.354c.003.064.006.125.01.203.026-.021.041-.033.055-.045a.6787.6787,0,0,1,.43-.196.3229.3229,0,0,0,.044,0,.6855.6855,0,0,1,.489.128.2146.2146,0,0,1,.099.111.6649.6649,0,0,0,.045.097.4439.4439,0,0,0,.062-.052.9849.9849,0,0,1,.389-.263.3015.3015,0,0,1,.085-.02.8612.8612,0,0,1,.088-.001.7638.7638,0,0,1,.553.143.1487.1487,0,0,1,.076.089c.037.115.079.229.115.345a.3689.3689,0,0,1,.016.109q.0015.5355.001,1.073c0,.025-.005.05-.008.083h-.361v-.127c0-.309-.004-.619.002-.928a.8033.8033,0,0,0-.08-.319.18.18,0,0,0-.162-.097.57.57,0,0,0-.497.177.5083.5083,0,0,0-.174.434c.015.242.003.486.003.73v.129h-.369v-.12c0-.321-.002-.642.002-.963a.7319.7319,0,0,0-.079-.296.1868.1868,0,0,0-.166-.092.6091.6091,0,0,0-.522.18c-.166.166-.139.086-.14.319-.003.28-.001.56-.001.84Z" transform="translate(0.0003 0.0007)" style="fill: #059cf5"/>
        <path d="M91.5827,30.5629a2.1,2.1,0,0,1,.001-.21.24.24,0,0,0-.1-.24c-.012-.009-.021-.021-.032-.031a.5043.5043,0,0,0-.546-.065.6575.6575,0,0,0-.307.37.5316.5316,0,0,0,.067.464.56.56,0,0,0,.59.258.1646.1646,0,0,0,.06-.024c.07-.042.138-.087.208-.127a.1063.1063,0,0,0,.06-.107c-.003-.096-.001-.192-.001-.288m-.019.726c-.064.042-.127.078-.184.121a.4522.4522,0,0,1-.235.076.6989.6989,0,0,1-.507-.148.79.79,0,0,1-.36-.443,1.5108,1.5108,0,0,1-.087-.341.7266.7266,0,0,1,.045-.236.8071.8071,0,0,1,.347-.533.6314.6314,0,0,1,.459-.184h.011a.6188.6188,0,0,1,.43.101.2693.2693,0,0,0,.059.029c.006.003.014.001.029.001.007-.03.015-.06.024-.096h.349a.61.61,0,0,1,.011.083q.0015.918,0,1.836a.4356.4356,0,0,1-.02.118c-.02.067-.049.132-.066.199a.5991.5991,0,0,1-.325.381.9179.9179,0,0,1-.841-.006c-.093-.057-.194-.102-.3-.157.052-.111.099-.213.151-.326.119.058.23.113.342.167a.51.51,0,0,0,.495-.016.2556.2556,0,0,0,.075-.064.7976.7976,0,0,0,.098-.562" transform="translate(0.0003 0.0007)" style="fill: #059cf5"/>
        <path d="M68.2824,19.9906c.11-.069.209-.132.317-.2.057.066.113.129.165.194a.2714.2714,0,0,0,.134.09.9929.9929,0,0,0,.784-.036c.17-.083.237-.184.149-.385a.412.412,0,0,0-.219-.221c-.275-.126-.548-.256-.82-.386a.7308.7308,0,0,1-.386-.473,1.13,1.13,0,0,1-.007-.319c0-.016.017-.032.028-.046a.687.687,0,0,0,.052-.057.9244.9244,0,0,1,.587-.377,1.1408,1.1408,0,0,1,.523,0,.4677.4677,0,0,1,.053.017.7718.7718,0,0,1,.563.419,3.72,3.72,0,0,1-.302.228c-.043-.046-.085-.086-.121-.132a.5228.5228,0,0,0-.379-.175.7544.7544,0,0,0-.438.083.7085.7085,0,0,0-.181.157.095.095,0,0,0-.007.083.4506.4506,0,0,0,.224.275c.284.131.566.267.849.401a.6135.6135,0,0,1,.283.284.1215.1215,0,0,0,.009.02.7912.7912,0,0,1,.099.542.1568.1568,0,0,1-.037.087c-.07.086-.142.17-.217.251a.2544.2544,0,0,1-.1.063c-.114.04-.231.076-.347.11a.455.455,0,0,1-.098.015c-.025.002-.052-.002-.077.001a1.5421,1.5421,0,0,1-.763-.137.23.23,0,0,1-.089-.06c-.077-.098-.148-.201-.231-.316" transform="translate(0.0003 0.0007)" style="fill: #059cf5"/>
        <path d="M91.6718,19.1821a2.216,2.216,0,0,0,.605-.01c-.096-.262-.187-.526-.302-.783-.095.228-.18.454-.264.681-.012.034-.024.068-.039.112m.136-1.392h.338c.338.888.675,1.775,1.017,2.672a1.7271,1.7271,0,0,1-.372.006c-.023-.001-.05-.048-.062-.079-.085-.224-.167-.449-.251-.673-.068-.181-.026-.157-.221-.158-.21-.002-.42-.001-.63,0-.093,0-.094.001-.127.089-.091.245-.18.491-.271.736-.033.089-.034.089-.125.09-.099.001-.197,0-.317,0,.345-.906.683-1.796,1.021-2.683" transform="translate(0.0003 0.0007)" style="fill: #059cf5"/>
        <path d="M84.7466,19.5939a1.4653,1.4653,0,0,1,.002-.199.2821.2821,0,0,0-.125-.285l-.008-.008a.4994.4994,0,0,0-.536-.064.6523.6523,0,0,0-.315.364.5763.5763,0,0,0,.659.729.1988.1988,0,0,0,.06-.026c.066-.039.131-.083.199-.12a.1115.1115,0,0,0,.065-.115c-.003-.092-.001-.184-.001-.276m.001-.826v-.975h.364v2.672h-.357c-.005-.047-.009-.093-.014-.146a.7754.7754,0,0,0-.22.13.2652.2652,0,0,1-.185.055.0915.0915,0,0,0-.033,0,.6393.6393,0,0,1-.496-.142.824.824,0,0,1-.363-.444c-.016-.068-.044-.133-.066-.199a.496.496,0,0,1,.001-.314.89.89,0,0,1,.361-.588.6323.6323,0,0,1,.466-.193h.011a.62.62,0,0,1,.431.1.7044.7044,0,0,0,.1.044" transform="translate(0.0003 0.0007)" style="fill: #059cf5"/>
        <path d="M76.58,30.569c0-.092-.002-.184.001-.276a.1543.1543,0,0,0-.055-.137c-.026-.021-.047-.047-.071-.07a.459.459,0,0,0-.474-.1.5324.5324,0,0,0-.373.376c-.01.04-.026.077-.035.117a.172.172,0,0,0-.009.086.8446.8446,0,0,0,.195.399.5832.5832,0,0,0,.5.144.1276.1276,0,0,0,.05-.021c.072-.043.144-.09.217-.132a.0975.0975,0,0,0,.055-.098c-.003-.096-.001-.192-.001-.288m.365.874h-.357c-.005-.049-.01-.095-.016-.161-.082.053-.154.096-.221.145a.2577.2577,0,0,1-.185.055.0915.0915,0,0,0-.033,0,.6333.6333,0,0,1-.495-.144.8085.8085,0,0,1-.361-.444,1.47,1.47,0,0,1-.09-.34.6918.6918,0,0,1,.043-.226.8328.8328,0,0,1,.344-.535.6375.6375,0,0,1,.467-.192h.011a.6182.6182,0,0,1,.43.102.5879.5879,0,0,0,.095.04V28.77h.368Z" transform="translate(0.0003 0.0007)" style="fill: #059cf5"/>
        <path d="M73.7526,24.9468c0-.096.001-.191-.001-.287a.1592.1592,0,0,0-.019-.083.4976.4976,0,0,0-.68-.156.6177.6177,0,0,0-.227.218.5323.5323,0,0,0-.039.485.67.67,0,0,0,.277.316.3558.3558,0,0,0,.142.053.4835.4835,0,0,0,.396-.093.3023.3023,0,0,1,.075-.046.1261.1261,0,0,0,.077-.141c-.005-.089-.001-.177-.001-.266m0-.816v-.979h.351l.009.007.005.009a.2121.2121,0,0,1,.006.044v2.565a.2881.2881,0,0,1-.008.049h-.355c-.006-.047-.011-.093-.018-.154-.068.043-.128.076-.183.117a.4506.4506,0,0,1-.245.078.6893.6893,0,0,1-.497-.142.8355.8355,0,0,1-.36-.431c-.019-.071-.048-.14-.071-.209a.4775.4775,0,0,1,.001-.325.3161.3161,0,0,0,.017-.052.8791.8791,0,0,1,.313-.505.8081.8081,0,0,1,.523-.223.6813.6813,0,0,1,.398.098,1.1876,1.1876,0,0,0,.114.053" transform="translate(0.0003 0.0007)" style="fill: #059cf5"/>
        <path d="M89.2,30.57a1.3236,1.3236,0,0,1,.002-.209c.027-.161-.078-.24-.185-.32a.4734.4734,0,0,0-.292-.073.51.51,0,0,0-.451.288.4856.4856,0,0,0-.039.493.7228.7228,0,0,0,.254.292.4183.4183,0,0,0,.172.067.4745.4745,0,0,0,.393-.095.3806.3806,0,0,1,.084-.052.1044.1044,0,0,0,.063-.115c-.003-.092-.001-.184-.001-.276m-.01-.827c.007-.04.012-.069.019-.105h.358c.001.04.005.079.005.118,0,.347.001.693-.001,1.04a.2987.2987,0,0,0,.055.185c.073.105.141.214.217.329-.102.072-.198.138-.3.208-.064-.093-.122-.177-.184-.267-.098.061-.191.114-.279.174a.2871.2871,0,0,1-.196.057.41.41,0,0,0-.099,0,.6957.6957,0,0,1-.482-.118c-.069-.046-.129-.107-.195-.16a.6557.6557,0,0,1-.228-.367,1.3059,1.3059,0,0,1-.053-.168,1.7358,1.7358,0,0,1,0-.26.5052.5052,0,0,1,.025-.084.886.886,0,0,1,.321-.513.7925.7925,0,0,1,.504-.214.7065.7065,0,0,1,.42.101.6379.6379,0,0,0,.093.044" transform="translate(0.0003 0.0007)" style="fill: #059cf5"/>
        <path d="M81.3014,24.9565c0-.1-.001-.2,0-.299a.1258.1258,0,0,0-.042-.108c-.031-.027-.056-.059-.087-.086a.465.465,0,0,0-.485-.088.64.64,0,0,0-.404.525.1622.1622,0,0,0-.001.044.6444.6444,0,0,0,.411.532.4423.4423,0,0,0,.344-.01c.073-.034.139-.084.209-.125a.0983.0983,0,0,0,.056-.098c-.003-.096-.001-.192-.001-.287m.644.738c-.104.072-.197.137-.299.208-.062-.09-.12-.174-.185-.268-.097.06-.191.116-.282.176a.2844.2844,0,0,1-.186.054.458.458,0,0,0-.111,0,.6762.6762,0,0,1-.481-.119,2.1119,2.1119,0,0,1-.233-.201.9466.9466,0,0,1-.253-.628.5267.5267,0,0,1,.043-.213.7988.7988,0,0,1,.347-.533.7635.7635,0,0,1,.889-.089.7775.7775,0,0,0,.095.044c.008-.036.013-.063.021-.1h.357c.002.041.006.08.006.12,0,.346.001.693-.001,1.039a.2863.2863,0,0,0,.052.175c.074.106.142.215.221.335" transform="translate(0.0003 0.0007)" style="fill: #059cf5"/>
        <path d="M96.2606,29.1387v.708c.281.023.563-.004.849.015v.369h-.851c-.012.409.001.805-.007,1.211h-.366V28.77h1.819a2.8229,2.8229,0,0,1,.002.369Z" transform="translate(0.0003 0.0007)" style="fill: #059cf5"/>
        <path d="M76.0713,24.7094a.3069.3069,0,0,0-.075-.223.4871.4871,0,0,0-.392-.181c-.241-.006-.36.152-.48.315-.015.02-.009.055-.014.089Zm.361.32h-1.35a.3961.3961,0,0,0,.099.247,1.4621,1.4621,0,0,0,.154.141.5.5,0,0,0,.643-.075c.038-.045.074-.091.111-.136.099.101.179.185.27.278a1.8282,1.8282,0,0,1-.309.271.91.91,0,0,1-.463.112.8014.8014,0,0,1-.595-.261.7458.7458,0,0,1-.232-.414,1.5924,1.5924,0,0,1-.051-.269,2.791,2.791,0,0,1,.053-.279.7615.7615,0,0,1,.328-.493.6054.6054,0,0,1,.454-.169.0915.0915,0,0,0,.033,0,.7327.7327,0,0,1,.482.116.7526.7526,0,0,1,.254.254.73.73,0,0,1,.12.482,1.7755,1.7755,0,0,0-.001.195" transform="translate(0.0003 0.0007)" style="fill: #059cf5"/>
        <path d="M96.5245,24.707h.967a.46.46,0,0,0-.628-.379.678.678,0,0,0-.314.283.2918.2918,0,0,0-.025.096m1.001.512c.094.089.176.167.259.246a1.1374,1.1374,0,0,1-.515.388.212.212,0,0,1-.076.01c-.048.001-.096-.004-.144.001a.7225.7225,0,0,1-.452-.106,1.2763,1.2763,0,0,1-.208-.178.9424.9424,0,0,1-.258-.67,1.0983,1.0983,0,0,1,.05-.258.8044.8044,0,0,1,.233-.414,1.34,1.34,0,0,1,.389-.246.1534.1534,0,0,1,.065-.008c.044-.002.088.003.132-.002a.7319.7319,0,0,1,.473.113.77.77,0,0,1,.262.261.7073.7073,0,0,1,.117.471c-.006.061-.001.124-.001.201h-1.35a.395.395,0,0,0,.11.258c.055.048.107.1.167.143a.5.5,0,0,0,.616-.08c.04-.047.088-.088.131-.13" transform="translate(0.0003 0.0007)" style="fill: #059cf5"/>
        <path d="M81.4425,19.3468a.4616.4616,0,0,0-.639-.376.6679.6679,0,0,0-.304.279.3118.3118,0,0,0-.025.097Zm-.993.319a.4314.4314,0,0,0,.112.26c.05.043.094.094.148.132a.4976.4976,0,0,0,.641-.079c.038-.045.074-.092.108-.134.102.1.185.181.277.27a1.259,1.259,0,0,1-.335.288c-.044.019-.084.047-.129.063a.7342.7342,0,0,1-.147.036c-.039.006-.081-.002-.121.002a.73.73,0,0,1-.452-.105,1.3769,1.3769,0,0,1-.216-.185.5979.5979,0,0,1-.193-.338c-.015-.075-.049-.147-.06-.223a1.0517,1.0517,0,0,1,.335-.825.6989.6989,0,0,1,.473-.204.4847.4847,0,0,0,.066-.001.7374.7374,0,0,1,.472.112.7135.7135,0,0,1,.225.208,1.8933,1.8933,0,0,1,.139.264.1167.1167,0,0,1,.01.053v.401c-.154.01-.303.004-.453.005-.147.001-.294,0-.442,0Z" transform="translate(0.0003 0.0007)" style="fill: #059cf5"/>
        <path d="M98.7492,19.3473a.4606.4606,0,0,0-.639-.376.6651.6651,0,0,0-.303.279.2733.2733,0,0,0-.026.097Zm.36.319h-1.351a.41.41,0,0,0,.1.248,1.5138,1.5138,0,0,0,.164.146.4959.4959,0,0,0,.633-.079c.038-.045.076-.09.109-.13l.271.271a1.766,1.766,0,0,1-.286.259.8888.8888,0,0,1-.503.126.8108.8108,0,0,1-.558-.244.8887.8887,0,0,1-.26-.45.9773.9773,0,0,1-.002-.498.8938.8938,0,0,1,.299-.488.688.688,0,0,1,.473-.204.3748.3748,0,0,0,.067,0,.7233.7233,0,0,1,.482.119.7054.7054,0,0,1,.227.221,2.0924,2.0924,0,0,1,.116.226.1465.1465,0,0,1,.018.063c.002.132.001.264.001.414" transform="translate(0.0003 0.0007)" style="fill: #059cf5"/>
        <path d="M87.0781,19.3476a.8834.8834,0,0,0-.059-.182.5109.5109,0,0,0-.571-.207.7121.7121,0,0,0-.33.298.2775.2775,0,0,0-.021.091Zm-1.004.314a.5275.5275,0,0,0,.27.403.5.5,0,0,0,.624-.08c.04-.047.088-.088.129-.128.091.086.175.166.26.246a1.15,1.15,0,0,1-.516.39.212.212,0,0,1-.076.01c-.044.002-.089-.004-.132.001a.6652.6652,0,0,1-.471-.115,2.2669,2.2669,0,0,1-.192-.163.9247.9247,0,0,1-.266-.698,1.1431,1.1431,0,0,1,.059-.268.8505.8505,0,0,1,.461-.556.533.533,0,0,1,.336-.08.1693.1693,0,0,0,.055-.001.6788.6788,0,0,1,.485.145.7677.7677,0,0,1,.194.207.7.7,0,0,1,.132.5,1.6438,1.6438,0,0,0-.001.187Z" transform="translate(0.0003 0.0007)" style="fill: #059cf5"/>
        <path d="M78.9118,30.3257a1.0234,1.0234,0,0,0-.059-.182.5114.5114,0,0,0-.572-.207.7169.7169,0,0,0-.33.298.2562.2562,0,0,0-.02.091Zm.346.32h-1.351a.4053.4053,0,0,0,.107.255,1.8378,1.8378,0,0,0,.147.133.5019.5019,0,0,0,.643-.074c.038-.045.079-.087.114-.124l.265.265a1.6526,1.6526,0,0,1-.256.241,2.092,2.092,0,0,1-.236.12.193.193,0,0,1-.074.019c-.121.001-.243.001-.365-.001a.2065.2065,0,0,1-.063-.015,1.2047,1.2047,0,0,1-.516-.401.0676.0676,0,0,1-.018-.027,1.5365,1.5365,0,0,1-.119-.523,2.28,2.28,0,0,1,.061-.279.8491.8491,0,0,1,.453-.55.5588.5588,0,0,1,.357-.084.2256.2256,0,0,0,.045,0,.7027.7027,0,0,1,.618.276.6491.6491,0,0,1,.189.468c-.007.094-.001.189-.001.301" transform="translate(0.0003 0.0007)" style="fill: #059cf5"/>
        <path d="M93.8607,30.3272c0-.237-.218-.444-.572-.4-.16.02-.391.257-.38.4Zm.304.742a1.189,1.189,0,0,1-.505.391,1.5645,1.5645,0,0,1-.533-.005,1.2043,1.2043,0,0,1-.48-.379c-.009-.011-.023-.022-.026-.035a1.333,1.333,0,0,1-.121-.567,1.2052,1.2052,0,0,1,.128-.431.9686.9686,0,0,1,.341-.338.9074.9074,0,0,1,.453-.108.7425.7425,0,0,1,.624.294.6333.6333,0,0,1,.176.462c-.009.091-.002.183-.002.288h-1.351a.4055.4055,0,0,0,.108.259,1.5557,1.5557,0,0,0,.156.138.4986.4986,0,0,0,.634-.079c.037-.046.073-.093.118-.149.062.061.102.102.144.141.044.04.089.077.136.118" transform="translate(0.0003 0.0007)" style="fill: #059cf5"/>
        <path d="M77.6958,19.35a.364.364,0,0,0-.069-.217.5027.5027,0,0,0-.679-.102,1.23,1.23,0,0,0-.197.221c-.017.022-.014.06-.022.098Zm.361.317h-1.353a.4092.4092,0,0,0,.099.247,1.3278,1.3278,0,0,0,.164.146.4986.4986,0,0,0,.634-.077c.038-.044.083-.083.134-.132.045.043.085.084.128.122.045.039.092.075.149.122a2.1735,2.1735,0,0,1-.337.299.9.9,0,0,1-.474.114.8059.8059,0,0,1-.576-.253.8883.8883,0,0,1-.248-.432,1.0294,1.0294,0,0,1-.002-.52.8854.8854,0,0,1,.33-.506.6071.6071,0,0,1,.441-.173.2506.2506,0,0,0,.067-.001.68.68,0,0,1,.498.135.9889.9889,0,0,1,.214.219,1.11,1.11,0,0,1,.108.205.1738.1738,0,0,1,.023.072c.002.132.001.264.001.413" transform="translate(0.0003 0.0007)" style="fill: #059cf5"/>
        <path d="M102.6578,30.3258a.46.46,0,0,0-.637-.378.6818.6818,0,0,0-.304.278.2806.2806,0,0,0-.025.1Zm.297.756a1.1707,1.1707,0,0,1-.496.377.2018.2018,0,0,1-.073.021c-.125.002-.251.002-.376,0a.141.141,0,0,1-.053-.012,1.2139,1.2139,0,0,1-.524-.407.2424.2424,0,0,1-.036-.08c-.029-.095-.058-.19-.084-.286a.5988.5988,0,0,1-.001-.306c.006-.025.017-.049.021-.074a.8192.8192,0,0,1,.285-.495.722.722,0,0,1,.5-.219.2528.2528,0,0,0,.055,0,.7014.7014,0,0,1,.5.132.5838.5838,0,0,1,.17.154.7343.7343,0,0,1,.181.473c-.008.087-.002.176-.002.274a2.4908,2.4908,0,0,1-.344.009c-.11.002-.221.001-.331.001h-.68a.4067.4067,0,0,0,.117.265,1.65,1.65,0,0,0,.149.13.5.5,0,0,0,.633-.08c.038-.044.084-.082.134-.131.046.044.087.084.128.125s.082.083.127.129" transform="translate(0.0003 0.0007)" style="fill: #059cf5"/>
        <path d="M70.7442,30.3267h.966a.2041.2041,0,0,0,.002-.048.4712.4712,0,0,0-.643-.328.68.68,0,0,0-.296.271.3178.3178,0,0,0-.029.105m1.26.755a1.1616,1.1616,0,0,1-.519.39.2091.2091,0,0,1-.076.009,1.1594,1.1594,0,0,0-.132.002.7225.7225,0,0,1-.5-.134,1.2455,1.2455,0,0,1-.139-.124.6744.6744,0,0,1-.236-.412,1.4255,1.4255,0,0,1-.039-.138c-.006-.09-.003-.181,0-.272a.5132.5132,0,0,1,.021-.074.84.84,0,0,1,.294-.515.7182.7182,0,0,1,.492-.213.2528.2528,0,0,0,.055,0,.7069.7069,0,0,1,.5.131.6118.6118,0,0,1,.17.154.7177.7177,0,0,1,.18.463c-.008.091-.002.183-.002.291-.12.001-.233.003-.346.003-.11.001-.221.001-.331.001h-.672a.548.548,0,0,0,.515.47.4871.4871,0,0,0,.384-.158c.041-.042.083-.081.124-.121.091.087.175.168.257.247" transform="translate(0.0003 0.0007)" style="fill: #059cf5"/>
        <path d="M71.6422,18.987a.5766.5766,0,0,0-.139.022.6654.6654,0,0,0-.403.539.1155.1155,0,0,0,.004.055.7184.7184,0,0,0,.24.421.4565.4565,0,0,0,.423.101.5423.5423,0,0,0,.373-.347c.016-.049.036-.097.048-.147a.2322.2322,0,0,0,.009-.107.6662.6662,0,0,0-.215-.398.4972.4972,0,0,0-.34-.139m.01,1.51a.7432.7432,0,0,1-.6-.242.9564.9564,0,0,1-.27-.432.7772.7772,0,0,1,0-.517,1.06,1.06,0,0,1,.266-.435,1.5034,1.5034,0,0,1,.382-.237.1534.1534,0,0,1,.065-.01.9771.9771,0,0,0,.121-.001.6884.6884,0,0,1,.499.136,2.3527,2.3527,0,0,1,.204.184.5124.5124,0,0,1,.165.268c.018.067.044.132.066.199a.5008.5008,0,0,1,.001.304,1.0893,1.0893,0,0,1-.321.564,1.4234,1.4234,0,0,1-.37.215.5762.5762,0,0,1-.208.004" transform="translate(0.0003 0.0007)" style="fill: #059cf5"/>
        <path d="M100.9252,18.6578h.364v1.808h-.359c-.003-.066-.006-.127-.01-.2a1.8554,1.8554,0,0,1-.149.116.8328.8328,0,0,1-.157.081,1.0318,1.0318,0,0,1-.157.04.2156.2156,0,0,1-.044,0,.7728.7728,0,0,1-.554-.14.1562.1562,0,0,1-.081-.097c-.036-.112-.076-.223-.112-.336a.319.319,0,0,1-.017-.097q-.0015-.564,0-1.128a.2871.2871,0,0,1,.007-.044,2.6039,2.6039,0,0,1,.356-.006c.002.045.005.084.005.123.001.321.003.642-.001.963a.7652.7652,0,0,0,.082.306.1777.1777,0,0,0,.158.086.6511.6511,0,0,0,.518-.165.3906.3906,0,0,0,.154-.349c-.012-.276-.003-.553-.003-.829Z" transform="translate(0.0003 0.0007)" style="fill: #059cf5"/>
        <path d="M93.6071,18.6567h.354c.002.041.007.079.007.118.001.313.004.627-.002.94a.8273.8273,0,0,0,.073.32.1781.1781,0,0,0,.162.097.64.64,0,0,0,.518-.162.39.39,0,0,0,.154-.348c-.012-.276-.004-.553-.004-.83v-.131a2.2022,2.2022,0,0,1,.353-.004c.024.087.029,1.677.007,1.809h-.353c-.004-.067-.008-.128-.014-.212a.75.75,0,0,1-.315.217.4337.4337,0,0,1-.125.032.3471.3471,0,0,1-.056.001.7874.7874,0,0,1-.554-.138.1716.1716,0,0,1-.089-.105c-.032-.106-.07-.209-.104-.315a.3542.3542,0,0,1-.019-.107c-.002-.373-.001-.745-.001-1.117a.5356.5356,0,0,1,.008-.065" transform="translate(0.0003 0.0007)" style="fill: #059cf5"/>
        <path d="M93.9111,24.0232h.369v.123c0,.321.003.642-.001.963a.769.769,0,0,0,.078.296.1711.1711,0,0,0,.156.088.6435.6435,0,0,0,.51-.154.404.404,0,0,0,.163-.367c-.013-.273-.003-.546-.003-.819v-.128h.366v1.801H95.19c-.005-.064-.009-.126-.016-.209a.7663.7663,0,0,1-.315.216.2532.2532,0,0,1-.104.029c-.103.003-.207.006-.31-.001a.4272.4272,0,0,1-.144-.047.6947.6947,0,0,1-.228-.129.8948.8948,0,0,1-.097-.243.99.99,0,0,1-.067-.399c.006-.295.002-.59.002-.885Z" transform="translate(0.0003 0.0007)" style="fill: #059cf5"/>
        <path d="M100.2874,30.55c.227.29.459.584.707.9-.168,0-.31.003-.451-.003-.026-.001-.055-.033-.075-.058-.118-.146-.234-.294-.35-.442-.023-.028-.047-.055-.088-.104a.7059.7059,0,0,1-.051.078c-.12.154-.242.307-.36.462a.1518.1518,0,0,1-.139.07c-.121-.005-.241-.002-.356-.002l-.012-.018.001-.011c.226-.291.452-.581.686-.882-.233-.296-.465-.592-.713-.909.167,0,.306-.003.444.003.029.001.062.035.083.061.118.147.232.296.348.445.022.028.046.055.074.089.025-.026.046-.045.064-.067.121-.154.243-.306.36-.462a.1617.1617,0,0,1,.149-.071c.118.004.236.001.351.001l.008.015.001.01a.1593.1593,0,0,1-.015.029q-.33.423-.659.846l-.007.02" transform="translate(0.0003 0.0007)" style="fill: #059cf5"/>
        <path d="M99.5567,25.4127c.111-.053.213-.102.321-.153.017.022.034.04.047.061a.4.4,0,0,0,.518.177.4823.4823,0,0,0,.101-.044c.103-.072.126-.178.001-.254a.8866.8866,0,0,0-.235-.093,2.2111,2.2111,0,0,1-.526-.197.2092.2092,0,0,1-.099-.098c-.033-.078-.07-.154-.109-.229a.1135.1135,0,0,1,0-.125l.004-.01c.052-.105.105-.21.157-.315a3.3736,3.3736,0,0,1,.407-.14.59.59,0,0,1,.359.021.4456.4456,0,0,0,.104.037c.22.035.312.197.387.391-.098.046-.197.093-.295.138-.014-.011-.027-.017-.03-.025a.3553.3553,0,0,0-.24-.208.37.37,0,0,0-.279-.009c-.035.012-.068.029-.104.038a.1179.1179,0,0,0-.099.116.1351.1351,0,0,0,.073.138,1.6958,1.6958,0,0,0,.191.083,1.2759,1.2759,0,0,0,.194.047,1.3224,1.3224,0,0,1,.393.171.1883.1883,0,0,1,.059.063c.034.053.063.108.096.162a.27.27,0,0,1,.012.254,2.2711,2.2711,0,0,1-.129.256.1885.1885,0,0,1-.079.069,2.414,2.414,0,0,1-.289.11.6779.6779,0,0,1-.371-.001c-.102-.029-.202-.07-.303-.104a.1649.1649,0,0,1-.106-.087c-.039-.079-.084-.155-.131-.24" transform="translate(0.0003 0.0007)" style="fill: #059cf5"/>
        <path d="M91.9007,25.4129c.114-.054.215-.102.323-.153a.357.357,0,0,1,.041.052.4262.4262,0,0,0,.634.134.132.132,0,0,0-.011-.246,1.1352,1.1352,0,0,0-.298-.111,2.06,2.06,0,0,1-.462-.18.195.195,0,0,1-.098-.098c-.035-.081-.073-.16-.113-.239a.0956.0956,0,0,1-.001-.104.176.176,0,0,0,.009-.02c.052-.106.105-.211.157-.316a3.31,3.31,0,0,1,.407-.139.587.587,0,0,1,.358.021.5173.5173,0,0,0,.104.037c.22.035.313.195.387.391-.098.046-.197.092-.294.138-.014-.011-.027-.017-.03-.025a.3553.3553,0,0,0-.24-.208.3607.3607,0,0,0-.279-.009.99.99,0,0,1-.104.037.1194.1194,0,0,0-.099.116.1351.1351,0,0,0,.072.138.9288.9288,0,0,0,.192.083,1.8222,1.8222,0,0,1,.548.195.2825.2825,0,0,1,.11.104,1.3755,1.3755,0,0,0,.078.134.2793.2793,0,0,1,.014.274c-.034.081-.08.158-.117.238a.154.154,0,0,1-.096.084c-.087.031-.171.067-.259.097a.6681.6681,0,0,1-.391.006c-.106-.028-.209-.071-.313-.109a.15.15,0,0,1-.072-.044c-.054-.087-.101-.178-.157-.278" transform="translate(0.0003 0.0007)" style="fill: #059cf5"/>
        <path d="M85.7039,25.4113c.12-.056.222-.104.327-.153a.5.5,0,0,1,.041.062.38.38,0,0,0,.403.207.5318.5318,0,0,0,.235-.088.1352.1352,0,0,0-.017-.24,1.1029,1.1029,0,0,0-.235-.092,2.214,2.214,0,0,1-.526-.198.2029.2029,0,0,1-.099-.097c-.033-.078-.07-.154-.109-.229a.1117.1117,0,0,1-.001-.125l.004-.01c.052-.105.104-.21.157-.315a3.3591,3.3591,0,0,1,.406-.14.5979.5979,0,0,1,.359.02c.085.034.171.067.259.095a.1779.1779,0,0,1,.113.096c.039.075.081.148.128.234-.105.049-.204.096-.307.144a.5182.5182,0,0,1-.041-.055.4078.4078,0,0,0-.417-.208.6479.6479,0,0,0-.239.079c-.076.037-.069.171.012.224a.9253.9253,0,0,0,.189.087,1.0863,1.0863,0,0,0,.193.047,1.2627,1.2627,0,0,1,.404.174.1876.1876,0,0,1,.06.062c.034.052.064.108.096.161a.2965.2965,0,0,1,.016.255l-.005.01c-.051.098-.102.195-.154.293a2.7284,2.7284,0,0,1-.37.141.6411.6411,0,0,1-.36-.014c-.097-.034-.194-.07-.292-.101a.1546.1546,0,0,1-.097-.083c-.04-.078-.084-.154-.133-.243" transform="translate(0.0003 0.0007)" style="fill: #059cf5"/>
        <path d="M103.6377,20.05c.115-.054.217-.102.324-.152a.4528.4528,0,0,1,.047.065.3813.3813,0,0,0,.384.205.5564.5564,0,0,0,.247-.087.1354.1354,0,0,0-.017-.246,1.0642,1.0642,0,0,0-.214-.086,2.2457,2.2457,0,0,1-.538-.199.2165.2165,0,0,1-.106-.105c-.041-.095-.119-.187-.12-.281s.077-.187.112-.284a.2138.2138,0,0,1,.17-.152.5891.5891,0,0,0,.146-.051.7459.7459,0,0,1,.401-.051,2.0842,2.0842,0,0,1,.21.062.4555.4555,0,0,1,.357.306.9294.9294,0,0,0,.042.083c-.104.049-.205.096-.305.143-.013-.014-.025-.02-.027-.03-.038-.119-.139-.162-.242-.206a.3557.3557,0,0,0-.268-.01,1.2116,1.2116,0,0,1-.115.041.1184.1184,0,0,0-.098.117.1331.1331,0,0,0,.076.136,1.06,1.06,0,0,0,.213.087,1.7725,1.7725,0,0,1,.527.191.2688.2688,0,0,1,.108.106c.022.042.048.083.073.124a.297.297,0,0,1,.012.294.8465.8465,0,0,1-.147.27.8608.8608,0,0,1-.27.118.6719.6719,0,0,1-.495.006c-.038-.014-.077-.026-.115-.04-.068-.026-.156-.036-.2-.085a1.6347,1.6347,0,0,1-.172-.289" transform="translate(0.0003 0.0007)" style="fill: #059cf5"/>
        <path d="M87.8972,20.0465c.109-.051.211-.099.319-.149.019.027.034.047.047.068a.4245.4245,0,0,0,.406.204.6552.6552,0,0,0,.224-.088.1377.1377,0,0,0-.019-.247.9955.9955,0,0,0-.203-.083,2.3385,2.3385,0,0,1-.548-.2.23.23,0,0,1-.11-.116.9141.9141,0,0,1-.114-.282c-.001-.09.075-.18.109-.273a.2152.2152,0,0,1,.17-.152.5891.5891,0,0,0,.146-.051.7435.7435,0,0,1,.4-.051,2.0937,2.0937,0,0,1,.211.061.4555.4555,0,0,1,.357.305c.01.027.024.052.04.086-.104.049-.203.095-.306.143a.3562.3562,0,0,1-.035-.049.3881.3881,0,0,0-.39-.214.7047.7047,0,0,0-.271.08c-.077.035-.067.174.016.223a.8065.8065,0,0,0,.222.094,1.7745,1.7745,0,0,1,.526.19.2687.2687,0,0,1,.109.105c.023.045.051.089.078.133a.2854.2854,0,0,1,.01.284c-.036.076-.078.15-.113.227a.1472.1472,0,0,1-.095.084,1.3679,1.3679,0,0,0-.165.063.72.72,0,0,1-.589.007l-.02-.008c-.283-.1-.283-.1-.412-.394" transform="translate(0.0003 0.0007)" style="fill: #059cf5"/>
        <path d="M76.9019,25.4118c.117-.055.22-.103.326-.153a.648.648,0,0,1,.041.059.3763.3763,0,0,0,.39.21.559.559,0,0,0,.246-.086.1353.1353,0,0,0-.012-.242,1.139,1.139,0,0,0-.235-.093,2.2522,2.2522,0,0,1-.526-.196.2145.2145,0,0,1-.105-.107c-.04-.094-.118-.187-.119-.281s.077-.187.113-.283a.21.21,0,0,1,.161-.148,1.0285,1.0285,0,0,0,.167-.057.7168.7168,0,0,1,.569.005l.01.004c.282.103.282.103.415.397-.101.047-.202.094-.306.143a.4558.4558,0,0,1-.036-.053.3915.3915,0,0,0-.393-.211.6612.6612,0,0,0-.271.083c-.075.036-.06.172.024.222a.7494.7494,0,0,0,.201.088,1.822,1.822,0,0,1,.538.192.2846.2846,0,0,1,.117.111c.022.043.048.083.073.124a.311.311,0,0,1,.01.296l-.005.009c-.049.091-.098.181-.147.271a2.5884,2.5884,0,0,1-.361.136.6405.6405,0,0,1-.36-.013c-.098-.034-.195-.069-.293-.101a.1555.1555,0,0,1-.098-.081c-.04-.079-.084-.155-.134-.245" transform="translate(0.0003 0.0007)" style="fill: #059cf5"/>
        <path d="M74.7552,19.042c-.089.09-.171.174-.259.263-.055-.054-.111-.111-.17-.166a.99.99,0,0,0-.103-.081.5227.5227,0,0,0-.618.08.8674.8674,0,0,0-.195.387.1473.1473,0,0,0-.002.066.6227.6227,0,0,0,.414.527.46.46,0,0,0,.483-.106c.065-.064.128-.131.199-.204.084.095.161.182.243.276a1.2532,1.2532,0,0,1-.545.411.2462.2462,0,0,1-.077.008,1.1345,1.1345,0,0,0-.143.001.7444.7444,0,0,1-.499-.139.3625.3625,0,0,1-.069-.055.9234.9234,0,0,1-.341-.538.5521.5521,0,0,1-.035-.26c.009-.068.035-.134.05-.202a.897.897,0,0,1,.27-.444,1.5244,1.5244,0,0,1,.373-.231.19.19,0,0,1,.076-.011c.044-.002.089.004.132-.001a.7083.7083,0,0,1,.482.117.8079.8079,0,0,1,.115.084c.077.073.151.15.219.218" transform="translate(0.0003 0.0007)" style="fill: #059cf5"/>
        <path d="M89.6686,25.8319h-.318c-.256-.597-.513-1.197-.774-1.806.041-.004.066-.008.091-.008.1-.001.199-.001.305-.001.177.421.352.837.527,1.252h.024c.172-.413.344-.825.519-1.244h.4c-.26.608-.516,1.205-.774,1.807" transform="translate(0.0003 0.0007)" style="fill: #059cf5"/>
        <path d="M73.5779,31.0822v.364a.97.97,0,0,1-.456-.053.4948.4948,0,0,1-.294-.337,1.5014,1.5014,0,0,1-.073-.465c.006-.191.002-.382.002-.586h-.326c-.007-.128-.006-.243-.001-.372h.325v-.576h.371v.563c.154.023.301-.002.453.017v.36h-.441c-.003.041-.009.073-.009.104-.001.199-.009.399.003.597a.8811.8811,0,0,0,.08.295.1858.1858,0,0,0,.178.089c.059.001.118,0,.188,0" transform="translate(0.0003 0.0007)" style="fill: #059cf5"/>
        <path d="M96.418,18.6555h.45v.363h-.442c-.004.05-.008.086-.008.122-.001.188.003.376-.001.564a.7011.7011,0,0,0,.081.307.1855.1855,0,0,0,.177.092c.062.003.123,0,.191,0v.364a.9858.9858,0,0,1-.442-.046.5029.5029,0,0,1-.313-.361,1.4833,1.4833,0,0,1-.068-.433c.007-.162.002-.324.002-.487-.001-.035-.004-.071-.007-.117h-.311v-.368h.309c.022-.195-.003-.383.016-.575h.366Z" transform="translate(0.0003 0.0007)" style="fill: #059cf5"/>
        <path d="M78.4223,18.6536h.319V18.08h.373v.57h.449v.368c-.073.001-.145.003-.217.004-.07.001-.139,0-.218,0-.004.039-.01.071-.01.102-.001.203-.008.406.003.608a.8093.8093,0,0,0,.076.285.1886.1886,0,0,0,.18.087c.058.001.116,0,.182,0v.349a.6485.6485,0,0,1-.393-.015.83.83,0,0,1-.259-.143.9124.9124,0,0,1-.109-.273.8126.8126,0,0,1-.054-.324c.004-.181.001-.361.001-.542,0-.04-.004-.079-.006-.132h-.317Z" transform="translate(0.0003 0.0007)" style="fill: #059cf5"/>
        <path d="M84.7308,24.016h.444v.365h-.431c-.01.025-.018.035-.018.045-.001.232-.009.464.002.696a.6482.6482,0,0,0,.082.26.182.182,0,0,0,.171.082h.187a2.0289,2.0289,0,0,1,.004.366,1.0579,1.0579,0,0,1-.446-.049.4952.4952,0,0,1-.307-.352,1.4392,1.4392,0,0,1-.068-.432c.007-.162.002-.324.002-.486v-.123h-.327a3.1573,3.1573,0,0,1,.001-.364c.107-.004.211-.009.323-.013v-.574c.124-.009.24-.004.366-.003.02.19-.002.377.015.582" transform="translate(0.0003 0.0007)" style="fill: #059cf5"/>
        <path d="M99.123,25.4641v.369c-.128,0-.252,0-.376-.001a.059.059,0,0,1-.039-.015,2.0983,2.0983,0,0,1-.204-.23.8158.8158,0,0,1-.125-.492c.009-.601.003-1.202.003-1.803v-.139h.37v.134c0,.627-.001,1.253.001,1.88a.5137.5137,0,0,0,.026.15.1892.1892,0,0,0,.233.148.6675.6675,0,0,1,.111-.001" transform="translate(0.0003 0.0007)" style="fill: #059cf5"/>
        <path d="M80.8809,28.77h.365c.001.043.004.085.004.128q0,.939.001,1.878a.3747.3747,0,0,0,.016.13c.06.16.085.175.258.177.029,0,.058.003.094.005v.363c-.125,0-.246,0-.366-.001a.0834.0834,0,0,1-.05-.021,1.2218,1.2218,0,0,1-.215-.248.9015.9015,0,0,1-.11-.464c.007-.603.003-1.208.003-1.812Z" transform="translate(0.0003 0.0007)" style="fill: #059cf5"/>
        <path d="M82.8129,25.8294h-.35c-.023-.085-.032-1.587-.01-1.804a2.2338,2.2338,0,0,1,.348-.005c.008.045.015.083.024.136.067-.045.126-.081.182-.122a.3335.3335,0,0,1,.324-.03,1.8158,1.8158,0,0,1,.257.129.1271.1271,0,0,1,.059.06c.04.106.074.215.115.338-.116.041-.224.08-.344.123-.026-.063-.047-.117-.07-.17a.18.18,0,0,0-.302-.079c-.076.059-.178.106-.216.184a.6881.6881,0,0,0-.017.282c-.001.277,0,.554,0,.83Z" transform="translate(0.0003 0.0007)" style="fill: #059cf5"/>
        <path d="M102.9571,19.2933c-.029-.068-.051-.122-.075-.176a.18.18,0,0,0-.295-.076c-.056.042-.109.089-.167.127a.161.161,0,0,0-.075.158c.003.335.001.67.001,1.006v.131a1.7149,1.7149,0,0,1-.35.005c-.025-.111-.022-1.717.004-1.816h.336l.018.124a.2138.2138,0,0,0,.142-.073.3427.3427,0,0,1,.277-.079.555.555,0,0,1,.126.032c.047.019.09.052.138.068a.271.271,0,0,1,.189.221c.016.071.044.139.072.223-.113.041-.221.081-.341.125" transform="translate(0.0003 0.0007)" style="fill: #059cf5"/>
        <path d="M83.6053,31.4455h-.349c-.028-.089-.031-2.563-.004-2.676h.353Z" transform="translate(0.0003 0.0007)" style="fill: #059cf5"/>
        <path d="M98.5921,31.4434h-.353v-1.806a2.3542,2.3542,0,0,1,.346-.004c.022.087.028,1.671.007,1.81" transform="translate(0.0003 0.0007)" style="fill: #059cf5"/>
        <path d="M75.711,20.4624a.2876.2876,0,0,1-.051.01c-.096.001-.191.001-.302.001-.013-.126-.005-.246-.006-.366s-.001-.243-.001-.365v-.718c0-.121.001-.241.001-.366h.353c.025.087.03,1.685.006,1.804" transform="translate(0.0003 0.0007)" style="fill: #059cf5"/>
        <path d="M90.9131,24.0231h.347c.022.084.027,1.676.005,1.804h-.352Z" transform="translate(0.0003 0.0007)" style="fill: #059cf5"/>
        <path d="M77.7639,17.6857c.043.118.081.221.125.34-.415.155-.827.31-1.248.468-.044-.117-.084-.226-.128-.344.418-.155.827-.307,1.251-.464" transform="translate(0.0003 0.0007)" style="fill: #059cf5"/>
        <path d="M81.5121,17.6852c.043.119.082.225.124.341-.42.157-.827.31-1.249.468-.042-.116-.082-.224-.126-.345.419-.155.827-.307,1.251-.464" transform="translate(0.0003 0.0007)" style="fill: #059cf5"/>
        <path d="M81.9177,29.0676c.12-.116.236-.227.359-.345a.3335.3335,0,0,1,.05.041c.063.062.127.124.187.188.039.043.097.088.102.136a.6012.6012,0,0,1-.026.313,1.2242,1.2242,0,0,1-.357.459c-.078-.082-.155-.164-.243-.256.068-.067.145-.144.229-.228-.104-.107-.204-.208-.301-.308" transform="translate(0.0003 0.0007)" style="fill: #059cf5"/>
        <path d="M91.4205,23.4207l-.322.322c-.108-.106-.223-.221-.336-.332.104-.102.219-.214.325-.318.106.105.222.219.333.328" transform="translate(0.0003 0.0007)" style="fill: #059cf5"/>
        <path d="M98.4179,28.704c.112.107.227.219.338.325-.113.113-.227.227-.332.333-.108-.109-.223-.225-.335-.339.103-.101.219-.212.329-.319" transform="translate(0.0003 0.0007)" style="fill: #059cf5"/>
        <path d="M75.1865,18.0622c.122-.116.238-.227.344-.328.106.103.223.217.338.328-.104.101-.218.213-.345.337-.106-.105-.221-.221-.337-.337" transform="translate(0.0003 0.0007)" style="fill: #059cf5"/>
        <path d="M317.7158.0178h1.444v.224c0,2.479-.003,4.958.005,7.437.001.213-.059.265-.257.258-.386-.016-.773-.005-1.172-.005a.5394.5394,0,0,1-.018-.129,1.3419,1.3419,0,0,0-.255-.915c-.598-.975-1.18-1.961-1.768-2.942a.481.481,0,0,0-.079-.117c-.088-.08-.161-.064-.187.058a.99.99,0,0,0-.009.204c0,1.205-.004,2.411.004,3.616.001.182-.051.235-.227.23-.398-.012-.798-.004-1.209-.004V.0188h1.409a.4408.4408,0,0,1,.021.125,1.4535,1.4535,0,0,0,.289,1.005c.568.914,1.109,1.845,1.668,2.765a1.4338,1.4338,0,0,0,.244.242,1.3184,1.3184,0,0,0,.093-.33c.007-1.185.004-2.37.004-3.555Z" transform="translate(0.0003 0.0007)" style="fill: #059cf5"/>
        <path d="M298.22,3.1249q0-.552-.001-1.104a.5756.5756,0,0,0-.515-.541q-.552-.012-1.103,0a.5949.5949,0,0,0-.516.547q-.0015,1.074-.001,2.147a.5849.5849,0,0,0,.544.583c.354.011.709.011,1.063.002a.5878.5878,0,0,0,.529-.572V3.1249m1.435,3.334v1.462c-.075.004-.146.012-.217.012-1.256.001-2.513-.003-3.77.005-.189.001-.279-.047-.246-.249a.2078.2078,0,0,0,0-.061.9792.9792,0,0,1,.503-1.138c.181-.097.162-.187-.012-.324-.37-.291-.74-.583-1.116-.867a.3632.3632,0,0,1-.16-.324q.0075-1.86,0-3.721a.3424.3424,0,0,1,.153-.306c.364-.278.718-.568,1.083-.844a.4886.4886,0,0,1,.271-.095q1.014-.012,2.026,0a.49.49,0,0,1,.272.096c.371.28.737.566,1.094.863a.3729.3729,0,0,1,.123.25q.0105,1.902,0,3.802a.3729.3729,0,0,1-.123.25c-.369.303-.752.589-1.124.89a.786.786,0,0,0-.135.224.9126.9126,0,0,0,.234.072c.373.007.747.003,1.144.003" transform="translate(0.0003 0.0007)" style="fill: #059cf5"/>
        <path d="M329.028,4.7394c.167,0,.334.002.501-.001.228-.003.271-.046.218-.265q-.288-1.1775-.593-2.349c-.015-.056-.075-.1-.113-.15-.047.049-.116.091-.136.149-.059.18-.099.367-.146.551q-.222.879-.442,1.757c-.062.249-.024.303.211.307.166.003.333.001.5.001m2.575,3.18h-1.431v-.631c0-.286-.005-.572.001-.858.004-.158-.061-.219-.214-.218q-.933.006-1.864,0c-.154-.001-.214.064-.212.221.007.422.003.845.003,1.267v.216h-1.423a.3985.3985,0,0,1-.02-.087c-.001-.592-.032-1.187.01-1.776a6.5663,6.5663,0,0,1,.247-1.09c.394-1.582.793-3.163,1.183-4.746.039-.16.099-.221.267-.218.595.011,1.189.009,1.784.001.147-.001.209.048.245.196q.702,2.859,1.415,5.716a.9061.9061,0,0,1,.022.202q.0015.8175,0,1.634c0,.053-.008.106-.013.171" transform="translate(0.0003 0.0007)" style="fill: #059cf5"/>
        <path d="M301.3377.006c.444,0,.877-.003,1.31.006.039,0,.092.075.11.126a.5791.5791,0,0,1,.005.182V5.878a.5738.5738,0,0,0,.56.58c.34.003.681.006,1.022-.004a.6323.6323,0,0,0,.256-.086.5777.5777,0,0,0,.304-.602c-.011-1.832-.005-3.664-.005-5.497V.017h1.434c.003.073.009.138.009.204q0,3.228.003,6.457a.3412.3412,0,0,1-.146.308c-.365.276-.718.568-1.084.842a.5178.5178,0,0,1-.29.1q-1.0035.012-2.005,0a.4589.4589,0,0,1-.257-.082q-.5715-.432-1.126-.885a.3234.3234,0,0,1-.114-.217q-.009-3.309-.004-6.62a1.1117,1.1117,0,0,1,.018-.118" transform="translate(0.0003 0.0007)" style="fill: #059cf5"/>
        <path d="M312.3092.0293c0,.45.004.892-.007,1.333-.001.04-.103.109-.159.111q-.52.015-1.043.003c-.176-.005-.236.073-.235.243q.003,2.2485-.001,4.497c0,.173.062.248.236.245.347-.007.695-.007,1.042.004.057.002.158.072.159.113.012.441.008.882.008,1.342-.083.004-.148.011-.212.011-1.291.001-2.581-.004-3.871.006-.21.001-.262-.064-.252-.267.016-.333.011-.668.001-1.001-.004-.159.044-.219.204-.214.341.01.682-.001,1.023.006.164.003.223-.063.222-.23q-.006-2.259,0-4.518c.001-.175-.054-.244-.231-.239-.347.01-.695-.001-1.043.005-.127.002-.177-.037-.174-.174.007-.375.005-.749.001-1.124-.002-.113.02-.179.151-.179,1.364.004,2.728.003,4.091.005a.5051.5051,0,0,1,.09.022" transform="translate(0.0003 0.0007)" style="fill: #059cf5"/>
        <path d="M322.47,7.9319V1.7969c0-.31-.01-.319-.317-.319-.44-.001-.88,0-1.356,0V.8749c0-.218.01-.437-.003-.654-.01-.171.049-.221.215-.22,1.01.007,2.019.004,3.029.004.427,0,.855.009,1.283-.004.187-.006.262.039.252.245-.016.333-.013.668-.001,1.001.007.175-.038.241-.221.234-.387-.014-.775-.005-1.163-.004-.265.001-.273.009-.273.273.001,1.976-.003,3.951.005,5.927.001.208-.052.269-.256.26-.387-.017-.774-.005-1.194-.005" transform="translate(0.0003 0.0007)" style="fill: #059cf5"/>
        <path d="M337.44,6.4583v1.464c-.069.004-.134.01-.2.01-1.249.001-2.498-.003-3.747.005-.193.001-.246-.057-.246-.253.007-2.478.004-4.957.004-7.435V.0173h1.444v6.114c0,.314.012.327.313.327h2.432" transform="translate(0.0003 0.0007)" style="fill: #059cf5"/>
        <path d="M304.47,15.0726a3.0533,3.0533,0,0,0,.113.438.8786.8786,0,0,0,1.63.021,1.3336,1.3336,0,0,0-.004-1.109.8668.8668,0,0,0-1.248-.413,1.12,1.12,0,0,0-.491,1.063m1.793,1.173a1.3443,1.3443,0,0,1-1.397.283,1.3956,1.3956,0,0,1-.973-1.276,1.6375,1.6375,0,0,1,.621-1.645,1.3921,1.3921,0,0,1,1.677.061.9582.9582,0,0,0,.102.056c0-.101-.001-.172,0-.242,0-.457-.001-.913,0-1.369.001-.229.094-.348.271-.353.191-.007.308.113.308.344q.0045,2.073,0,4.147c0,.167-.05.312-.242.346-.183.032-.271-.048-.367-.352" transform="translate(0.0003 0.0007)" style="fill: #059cf5"/>
        <path d="M302.2969,14.66c.017-.433-.47-.774-.872-.793a.9833.9833,0,0,0-1.075.793Zm-.784.475c-.334,0-.669-.001-1.003,0-.209.001-.233.039-.163.243a1.0842,1.0842,0,0,0,1.089.707,1.6169,1.6169,0,0,0,.827-.279c.051-.033.1-.068.153-.098a.2691.2691,0,0,1,.391.059.2786.2786,0,0,1-.085.41,3.5066,3.5066,0,0,1-.855.376,1.8889,1.8889,0,0,1-1.437-.192,1.6244,1.6244,0,0,1-.693-1.773,1.5505,1.5505,0,0,1,1.354-1.21,1.6691,1.6691,0,0,1,1.393.419,1.3449,1.3449,0,0,1,.435.977c.008.265-.069.352-.343.358-.354.008-.709.002-1.063.002Z" transform="translate(0.0003 0.0007)" style="fill: #059cf5"/>
        <path d="M321.3175,14.9826a1.0521,1.0521,0,1,0,1.056-1.094,1.0565,1.0565,0,0,0-1.056,1.094m2.704-.012a1.6522,1.6522,0,1,1-1.661-1.615,1.5988,1.5988,0,0,1,1.661,1.615" transform="translate(0.0003 0.0007)" style="fill: #059cf5"/>
        <path d="M330.8979,16.6065a2.8987,2.8987,0,0,1-1.262-.264,1.1536,1.1536,0,0,1-.174-.1.2911.2911,0,0,1-.112-.392.2686.2686,0,0,1,.383-.107c.185.076.358.183.547.249a1.7529,1.7529,0,0,0,1.102.034.3563.3563,0,0,0,.177-.087c.07-.091.165-.207.156-.303a.386.386,0,0,0-.21-.262,4.5567,4.5567,0,0,0-.62-.15c-.325-.076-.655-.133-.97-.239a.6936.6936,0,0,1-.494-.715.7583.7583,0,0,1,.493-.749,2.4837,2.4837,0,0,1,1.986.083.2839.2839,0,0,1,.177.397c-.081.174-.229.172-.378.124a3.007,3.007,0,0,0-.583-.206,4.0049,4.0049,0,0,0-.868.025.301.301,0,0,0,.001.595c.318.076.641.126.961.195a4.278,4.278,0,0,1,.56.15.7035.7035,0,0,1,.517.634.8481.8481,0,0,1-.42.86,1.9668,1.9668,0,0,1-.969.228" transform="translate(0.0003 0.0007)" style="fill: #059cf5"/>
        <path d="M313.82,13.9588c0,.527-.034,1.045.01,1.557a.5857.5857,0,0,0,.815.53c.154-.041.303-.103.454-.159.149-.056.284-.045.361.111a.2787.2787,0,0,1-.117.372,1.57,1.57,0,0,1-1.019.231c-.768-.044-1.09-.429-1.107-1.299-.008-.381-.009-.763.001-1.145.005-.18-.066-.223-.227-.205a4.4933,4.4933,0,0,1-.479.026c-.198.002-.322-.096-.331-.252-.01-.174.097-.278.313-.288a4.3133,4.3133,0,0,1,.521-.001c.166.012.208-.058.202-.213-.009-.245-.006-.491,0-.736.005-.24.103-.346.303-.342.188.003.27.105.272.347.002.252.006.504-.001.756-.004.141.045.191.185.188.355-.008.709-.013,1.063.004a.4465.4465,0,0,1,.309.137c.129.173-.017.39-.26.396-.247.006-.494-.011-.741-.014-.173-.003-.346-.001-.527-.001" transform="translate(0.0003 0.0007)" style="fill: #059cf5"/>
        <path d="M325.8635,13.682a1.314,1.314,0,0,1,1.096-.306,1.0613,1.0613,0,0,1,.982,1.055c.022.62.013,1.24.011,1.86a.2754.2754,0,0,1-.273.312.2824.2824,0,0,1-.3-.31c-.011-.367-.005-.735-.006-1.103,0-.177.008-.355-.003-.532a.7162.7162,0,0,0-.716-.77.7278.7278,0,0,0-.798.734c-.028.311-.013.626-.016.939-.002.218.001.436,0,.654-.002.265-.088.383-.281.387-.201.005-.29-.115-.291-.395-.001-.381,0-.763,0-1.144,0-.416-.002-.832.001-1.247.001-.18-.035-.388.212-.444.231-.053.32.108.382.31" transform="translate(0.0003 0.0007)" style="fill: #059cf5"/>
        <path d="M318,13.9705h-.896a1.3257,1.3257,0,0,1-.178-.008.2355.2355,0,0,1-.218-.267.22.22,0,0,1,.218-.245c.48-.011.962-.016,1.442,0,.206.007.237.189.237.363.001.633,0,1.267.001,1.9,0,.32,0,.316.313.292.159-.012.32-.012.48-.01.169.001.287.071.288.262.002.193-.121.263-.286.267-.261.006-.522.004-.782.004q-.7725,0-1.543-.001a1.1464,1.1464,0,0,1-.22-.014.2441.2441,0,0,1-.223-.266.2314.2314,0,0,1,.242-.246c.247-.009.494.008.741.009.485.001.395.046.399-.389.005-.531,0-1.062-.001-1.593a.2339.2339,0,0,0-.014-.058" transform="translate(0.0003 0.0007)" style="fill: #059cf5"/>
        <path d="M309.591,13.971h-.91a.9612.9612,0,0,1-.178-.008.2451.2451,0,0,1-.22-.27.2212.2212,0,0,1,.221-.243c.48-.011.961-.017,1.441,0,.206.007.236.19.236.364q.0015.9495.001,1.9c0,.318.001.314.314.291a4.8,4.8,0,0,1,.48-.009c.197.006.291.095.288.262-.003.192-.122.263-.288.266-.274.006-.548.004-.822.004q-.741.0015-1.483.001c-.053,0-.107.001-.16-.003-.202-.015-.309-.113-.301-.28.01-.195.141-.25.303-.25.307.001.614.016.92.009.054-.001.151-.078.151-.121.01-.639.007-1.277.007-1.913" transform="translate(0.0003 0.0007)" style="fill: #059cf5"/>
        <path d="M301.9111,11.6125c.086.065.221.115.247.2a.4257.4257,0,0,1-.057.348,4.49,4.49,0,0,1-.528.462,2.6188,2.6188,0,0,1-.395.309.3577.3577,0,0,1-.301.013c-.124-.072-.078-.21-.001-.302q.39-.462.797-.908a.8409.8409,0,0,1,.238-.122" transform="translate(0.0003 0.0007)" style="fill: #059cf5"/>
        <path d="M318.2914,12.82c-.321-.002-.521-.182-.515-.464s.203-.446.532-.443a.4383.4383,0,0,1,.491.46.4484.4484,0,0,1-.508.447" transform="translate(0.0003 0.0007)" style="fill: #059cf5"/>
        <path d="M309.8637,11.9128c.327,0,.514.168.511.46a.4512.4512,0,0,1-.508.448.4566.4566,0,0,1-.515-.444c-.005-.287.191-.464.512-.464" transform="translate(0.0003 0.0007)" style="fill: #059cf5"/>
      </g>
      <polygon points="256.943 4.309 257.076 4.46 257.646 3.884 257.646 6.029 257.853 6.029 257.853 3.609 257.632 3.608 256.943 4.309" style="fill: #059cf5"/>
      <polygon points="255.851 3.608 255.851 6.029 256.057 6.029 256.057 3.926 256.971 5.067 257.134 4.942 256.07 3.606 255.851 3.608" style="fill: #059cf5"/>
      <g style="clip-path: url(#clip-path)">
        <path d="M259.1566,9.2065a4.6494,4.6494,0,0,1-4.684-4.604,4.6847,4.6847,0,0,1,9.368,0,4.6494,4.6494,0,0,1-4.684,4.604m0-9.004a4.4439,4.4439,0,0,0-4.477,4.4,4.4782,4.4782,0,0,0,8.955,0,4.4448,4.4448,0,0,0-4.478-4.4" transform="translate(0.0003 0.0007)" style="fill: #059cf5"/>
        <path d="M259.783.5849l-.2.031c0,.006-.023.524-.072,1.24-.367-.201-.646-.216-.849-.06-.332.255-.195.779.053,1.732.08.305.171.652.262,1.051.05.217.099.448.147.685a3.7014,3.7014,0,0,1-.092.414,3.3111,3.3111,0,0,0,.465,2.787c.071.09.126.128.185.128l.043-.007c.088-.033.151-.056-.008-1.194-.089-.632-.226-1.425-.368-2.135.161-.887.274-2.108.343-3.046a.68.68,0,0,0,.148.089.3024.3024,0,0,0,.086.014.1969.1969,0,0,0,.166-.085c.192-.273-.188-1.328-.309-1.644m-.552,5.148a24.5477,24.5477,0,0,1,.376,2.54,3.1049,3.1049,0,0,1-.376-2.54m-.006-.993c-.016-.07-.031-.138-.047-.205-.092-.402-.182-.751-.263-1.058-.219-.84-.351-1.348-.125-1.522a.3055.3055,0,0,1,.195-.062,1.0556,1.0556,0,0,1,.51.188c-.057.789-.146,1.812-.27,2.659m.703-2.629-.002.102v-.102a.0561.0561,0,0,1-.018-.003,1.06,1.06,0,0,1-.1-.065c-.03-.02-.063-.043-.099-.067.023-.317.04-.6.053-.824a2.06,2.06,0,0,1,.166.959" transform="translate(0.0003 0.0007)" style="fill: #059cf5"/>
        <path d="M261.9265,3.7955a1.12,1.12,0,0,0-.805-.241h-.019c-.036,0-.281.009-.281.009l-.154.002v2.459h.207V3.7675c.076-.003.209-.009.245-.009a.95.95,0,0,1,.662.181.4122.4122,0,0,1,.118.31.4913.4913,0,0,1-.143.376.7783.7783,0,0,1-.51.157h-.105v.203h.099c.003,0,.016.001.037.001a.95.95,0,0,0,.619-.213.68.68,0,0,0,.21-.524.6094.6094,0,0,0-.18-.454" transform="translate(0.0003 0.0007)" style="fill: #059cf5"/>
        <path d="M237.2645,13.4081h1.69c.857,0,1.192.513,1.192,1.318a1.1436,1.1436,0,0,1-1.248,1.295h-.696v1.795h-.938Zm.938,1.935h.522a.5509.5509,0,0,0,.472-.592c0-.36-.1-.666-.522-.666h-.472Z" transform="translate(0.0003 0.0007)" style="fill: #059cf5"/>
      </g>
      <polygon points="241.26 17.816 241.26 13.408 243.707 13.408 243.707 14.086 242.198 14.086 242.198 15.172 243.59 15.172 243.59 15.85 242.198 15.85 242.198 17.138 243.757 17.138 243.757 17.816 241.26 17.816" style="fill: #059cf5"/>
      <g style="clip-path: url(#clip-path)">
        <path d="M246.1266,17.7993h-.938v-4.408h1.733a1.0106,1.0106,0,0,1,1.05,1.154.9544.9544,0,0,1-.833,1.081v.012a.7905.7905,0,0,1,.814.867,5.9343,5.9343,0,0,0,.106,1.294h-.92a1.9951,1.9951,0,0,1-.099-.855c0-.525.05-.97-.671-.97h-.242Zm0-2.503h.416c.373,0,.478-.366.478-.647,0-.421-.18-.58-.478-.58h-.416Z" transform="translate(0.0003 0.0007)" style="fill: #059cf5"/>
        <path d="M251.4382,14.7632c.006-.409-.062-.769-.559-.769-.584,0-.584.775-.584,1.63,0,1.38.137,1.624.671,1.624a1.4956,1.4956,0,0,0,.466-.086v-.977h-.51v-.677h1.448v2.234a8.7,8.7,0,0,1-1.267.147c-1.578,0-1.758-.641-1.758-2.314,0-1.111.056-2.24,1.59-2.24a1.27,1.27,0,0,1,1.435,1.428Z" transform="translate(0.0003 0.0007)" style="fill: #059cf5"/>
        <path d="M254.859,17.8157h-.938v-4.408h1.733a1.0106,1.0106,0,0,1,1.05,1.154.9544.9544,0,0,1-.832,1.081v.012a.79.79,0,0,1,.813.867,5.9343,5.9343,0,0,0,.106,1.294h-.919a1.98,1.98,0,0,1-.1-.855c0-.525.05-.97-.671-.97h-.242Zm0-2.503h.416c.373,0,.478-.366.478-.647,0-.421-.18-.58-.478-.58h-.416Z" transform="translate(0.0003 0.0007)" style="fill: #059cf5"/>
      </g>
      <path d="M257.8944,17.8153l1.243-4.407h1.236l1.217,4.407h-.987l-.249-.977h-1.28l-.254.977Zm1.808-3.559h-.012l-.429,1.905h.894Z" transform="translate(0.0003 0.0007)" style="fill: #059cf5"/>
      <g style="clip-path: url(#clip-path)">
        <path d="M262.6814,13.4081h1.69c.857,0,1.192.513,1.192,1.318a1.1436,1.1436,0,0,1-1.248,1.295h-.696v1.795h-.938Zm.938,1.935h.522a.5509.5509,0,0,0,.472-.592c0-.36-.099-.666-.522-.666h-.472Z" transform="translate(0.0003 0.0007)" style="fill: #059cf5"/>
      </g>
      <polygon points="268.68 15.173 268.68 13.409 269.618 13.409 269.618 17.817 268.68 17.817 268.68 15.851 267.605 15.851 267.605 17.817 266.667 17.817 266.667 13.409 267.605 13.409 267.605 15.173 268.68 15.173" style="fill: #059cf5"/>
      <rect x="271.2004" y="13.4087" width="0.938" height="4.408" style="fill: #059cf5"/>
      <g style="clip-path: url(#clip-path)">
        <path d="M273.5442,15.6118c0-1.166,0-2.277,1.547-2.277.956,0,1.341.519,1.304,1.465h-.919c0-.586-.106-.806-.385-.806-.528,0-.597.489-.597,1.618s.069,1.618.597,1.618c.435,0,.416-.55.428-.898h.926c0,1.179-.478,1.557-1.354,1.557-1.547,0-1.547-1.123-1.547-2.277" transform="translate(0.0003 0.0007)" style="fill: #059cf5"/>
      </g>
      <path d="M278.5659,13.4085l-1.242,4.407h.925l.255-.977h1.28l.248.977h.988l-1.218-4.407Zm.553.848h.013l.453,1.905h-.895Z" transform="translate(0.0003 0.0007)" style="fill: #059cf5"/>
      <rect x="237.1873" y="22.2617" width="43.784" height="0.525" style="fill: #059cf5"/>
      <g style="clip-path: url(#clip-path)">
        <path d="M281.8874,13.96h.154a.1055.1055,0,0,0,.108-.118.102.102,0,0,0-.108-.111h-.154Zm0,.419h-.12V13.65h.295a.1849.1849,0,0,1,.207.182.1775.1775,0,0,1-.161.168v.004c.092.01.125.038.13.185a.9561.9561,0,0,0,.029.19h-.118a.76.76,0,0,1-.031-.242.0956.0956,0,0,0-.111-.083h-.12Zm-.428-.365a.5481.5481,0,1,0,.55-.539.5421.5421,0,0,0-.55.539m1.192-.002a.6441.6441,0,1,1-.642-.631.6368.6368,0,0,1,.642.631" transform="translate(0.0003 0.0007)" style="fill: #059cf5"/>
      </g>
    </g>
  </g>
</svg>
