<svg xmlns="http://www.w3.org/2000/svg" xmlns:xlink="http://www.w3.org/1999/xlink" viewBox="0 0 185.732 186.26">
  <defs>
    <clipPath id="clip-path">
      <rect width="185.732" height="186.26" style="fill: none"/>
    </clipPath>
  </defs>
  <g id="Calque_2" data-name="Calque 2">
    <g id="Calque_1-2" data-name="Calque 1">
      <g>
        <g style="clip-path: url(#clip-path)">
          <path d="M0,186.26V56.146C0,47.838,3.214,40.962,9.293,36.26c5.779-4.469,13.913-6.831,23.523-6.831,14.767,0,27.259,5.574,35.138,10.25a78.12,78.12,0,0,1,13.171,9.742c3.293-4.573,8.991-9.283,15.408-12.711,9.506-5.078,20.508-7.653,32.698-7.653,17.151,0,37.234,5.887,40.326,6.826l13.965-17.03L169.56,1.475c-3.111,1.032-22.902,7.358-40.389,7.358C111.73,8.833,92.924,2.54,89.88,1.48L75.931,18.852,87.837,32.628l-.948.818L74.302,18.882,89.463,0l.422.154c.204.074,20.563,7.426,39.286,7.426C147.9,7.58,169.355.225,169.57.15l.417-.144L185.135,18.86,169.99,37.33l-.404-.128c-.218-.069-22.008-6.893-40.355-6.893-11.982,0-22.785,2.525-32.108,7.506-6.53,3.488-12.282,8.316-15.385,12.915l-.427.633-.537-.543A73.6743,73.6743,0,0,0,67.282,40.737C59.545,36.15,47.284,30.682,32.816,30.682c-9.331,0-17.199,2.271-22.756,6.569C4.298,41.706,1.252,48.24,1.252,56.146V184.428L41.573,168.71l.455,1.167Z" style="fill: #059cf5"/>
          <path d="M98.8563,113.0287v5.433a.5415.5415,0,0,0,.604.604v1.372h-.412a1.6778,1.6778,0,0,1-1.839-1.921v-5.488h-.548v-1.098h.548v-.686a1.53,1.53,0,0,0,.961-1.509h.686v2.195h.604v1.098Z" style="fill: #059cf5"/>
          <path d="M107.5682,115.4987a2.6406,2.6406,0,0,0-5.186,0Zm1.647,1.317h-6.833a2.5041,2.5041,0,0,0,2.634,2.14,2.42,2.42,0,0,0,2.415-1.536h1.729a4.3278,4.3278,0,0,1-8.452-1.235,4.33,4.33,0,0,1,4.254-4.254,4.2749,4.2749,0,0,1,4.253,4.254Z" style="fill: #059cf5"/>
          <path d="M118.2977,114.95h-1.701a1.8445,1.8445,0,0,0-2.031-1.482,1.92,1.92,0,0,0-2.03,2.196v4.774h-1.647v-8.506h1.647v1.427a2.8234,2.8234,0,0,1,2.25-1.427h.548c1.592,0,2.758,1.591,2.964,3.018" style="fill: #059cf5"/>
          <path d="M127.0237,114.95h-1.701a1.8445,1.8445,0,0,0-2.031-1.482,1.92,1.92,0,0,0-2.031,2.196v4.774h-1.646v-8.506h1.646v1.427a2.8265,2.8265,0,0,1,2.251-1.427h.548c1.592,0,2.758,1.591,2.964,3.018" style="fill: #059cf5"/>
        </g>
        <path d="M129.987,120.438H128.34v-8.507h1.647Zm0-9.605H128.34v-1.646h1.647Z" style="fill: #059cf5"/>
        <g style="clip-path: url(#clip-path)">
          <path d="M133.7186,113.0287v5.433a.5415.5415,0,0,0,.604.604v1.372h-.412a1.6771,1.6771,0,0,1-1.838-1.921v-5.488h-.549v-1.098h.549v-.686a1.53,1.53,0,0,0,.96-1.509h.686v2.195h.604v1.098Z" style="fill: #059cf5"/>
          <path d="M142.4172,116.1844a2.6114,2.6114,0,1,0-2.607,2.772,2.5164,2.5164,0,0,0,2.607-2.772m-6.86,0a4.2535,4.2535,0,1,1,4.253,4.253,4.2657,4.2657,0,0,1-4.253-4.253" style="fill: #059cf5"/>
        </g>
        <path d="M147.356,120.438h-1.647v-8.507h1.647Zm0-9.605h-1.647v-1.646h1.647Z" style="fill: #059cf5"/>
        <path d="M156.7413,114.95H155.04a1.8445,1.8445,0,0,0-2.031-1.482,1.92,1.92,0,0,0-2.031,2.196v4.774h-1.646v-8.506h1.646v1.427a2.8265,2.8265,0,0,1,2.251-1.427h.548c1.592,0,2.758,1.591,2.964,3.018" style="fill: #059cf5"/>
        <path d="M164.3285,115.4987a2.6412,2.6412,0,0,0-5.187,0Zm1.646,1.317h-6.833a2.5041,2.5041,0,0,0,2.634,2.14,2.419,2.419,0,0,0,2.415-1.536h1.729a4.3278,4.3278,0,0,1-8.452-1.235,4.33,4.33,0,0,1,4.254-4.254,4.2749,4.2749,0,0,1,4.253,4.254Z" style="fill: #059cf5"/>
        <path d="M170.0358,115.3748h2.14c2.059,0,3.499.672,3.499,2.538,0,1.427-1.002,2.525-3.073,2.525h-1.839a3.3247,3.3247,0,0,1-3.595-3.018h1.702a1.7748,1.7748,0,0,0,2.03,1.646h1.88c.782,0,1.303-.329,1.303-1.125,0-.961-.686-1.139-1.852-1.139h-2.03c-1.812,0-3.033-.645-3.033-2.401a2.633,2.633,0,0,1,2.895-2.47h1.606a3.6194,3.6194,0,0,1,3.787,3.019h-1.647a1.95,1.95,0,0,0-2.14-1.647h-1.77c-.727,0-1.194.357-1.194,1.071,0,.672.467,1.001,1.331,1.001" style="fill: #059cf5"/>
        <path d="M24.6845,125.1713a4.2655,4.2655,0,0,1,4.253-4.253,4.1056,4.1056,0,0,1,4.007,3.018h-1.674a2.2765,2.2765,0,0,0-2.333-1.537,2.7772,2.7772,0,0,0,0,5.544,2.2765,2.2765,0,0,0,2.333-1.537h1.674a4.1056,4.1056,0,0,1-4.007,3.018,4.2655,4.2655,0,0,1-4.253-4.253" style="fill: #059cf5"/>
        <path d="M41.04,126.1588v-1.207c-.343.768-1.222.851-1.935.851H37.28c-.823,0-1.344.37-1.344,1.097s.521,1.098,1.344,1.098h1.304c1.33,0,2.456-1.029,2.456-1.839m1.646-1.948v5.214H41.04v-1.619a3.2374,3.2374,0,0,1-2.772,1.619h-1.372a2.4491,2.4491,0,0,1-2.579-2.442c0-1.633,1.179-2.498,2.963-2.498h2.785c.673,0,.975-.274.975-.727,0-.823-.865-1.358-2.374-1.358a2.4506,2.4506,0,0,0-2.621,1.537h-1.728a4.487,4.487,0,0,1,4.267-3.019h.274c2.374,0,3.828,1.509,3.828,3.293" style="fill: #059cf5"/>
        <path d="M51.9328,123.9363h-1.701a1.8445,1.8445,0,0,0-2.031-1.482,1.92,1.92,0,0,0-2.031,2.196v4.774h-1.646v-8.506H46.17v1.427a2.8265,2.8265,0,0,1,2.251-1.427h.548c1.592,0,2.758,1.591,2.964,3.018" style="fill: #059cf5"/>
        <path d="M59.52,124.4855a2.6406,2.6406,0,0,0-5.186,0Zm1.647,1.317h-6.833a2.5041,2.5041,0,0,0,2.634,2.14,2.42,2.42,0,0,0,2.415-1.536h1.729a4.3278,4.3278,0,0,1-8.452-1.235,4.33,4.33,0,0,1,4.254-4.254,4.2749,4.2749,0,0,1,4.253,4.254Z" style="fill: #059cf5"/>
        <path d="M74.6064,76.3338a4.2655,4.2655,0,0,1,4.253-4.253,4.1056,4.1056,0,0,1,4.007,3.018h-1.674a2.2765,2.2765,0,0,0-2.333-1.537,2.7772,2.7772,0,0,0,0,5.544,2.2765,2.2765,0,0,0,2.333-1.537h1.674a4.1056,4.1056,0,0,1-4.007,3.018,4.2655,4.2655,0,0,1-4.253-4.253" style="fill: #059cf5"/>
        <path d="M90.9333,76.3338a2.6119,2.6119,0,1,0-2.607,2.772,2.5164,2.5164,0,0,0,2.607-2.772m-6.86,0a4.2535,4.2535,0,1,1,4.253,4.253,4.265,4.265,0,0,1-4.253-4.253" style="fill: #059cf5"/>
        <path d="M94.2262,72.08h1.646v1.441a2.943,2.943,0,0,1,2.333-1.441h.549a3.0221,3.0221,0,0,1,2.716,1.921,3.1226,3.1226,0,0,1,2.607-1.921h.549a3.1784,3.1784,0,0,1,2.991,3.293v5.214h-1.646v-4.844a2.113,2.113,0,1,0-4.226,0v4.844h-1.647v-4.844a2.113,2.113,0,1,0-4.226,0v4.844h-1.646Z" style="fill: #059cf5"/>
        <path d="M109.4555,72.08h1.647v1.441a2.94,2.94,0,0,1,2.332-1.441h.549a3.0221,3.0221,0,0,1,2.716,1.921,3.1226,3.1226,0,0,1,2.607-1.921h.549a3.1791,3.1791,0,0,1,2.991,3.293v5.214h-1.646v-4.844a2.113,2.113,0,1,0-4.226,0v4.844h-1.647v-4.844a2.1125,2.1125,0,1,0-4.225,0v4.844h-1.647Z" style="fill: #059cf5"/>
        <path d="M132.0663,72.08v8.507h-1.647v-1.455a2.9365,2.9365,0,0,1-2.332,1.455h-.412a3.1913,3.1913,0,0,1-3.128-3.293V72.08h1.647v4.775a2.1141,2.1141,0,1,0,4.225,0V72.08Z" style="fill: #059cf5"/>
        <path d="M134.0419,72.08h1.647v1.468a2.9655,2.9655,0,0,1,2.359-1.468h.549a3.1826,3.1826,0,0,1,3.019,3.293v5.214h-1.647v-4.775a2.1407,2.1407,0,1,0-4.28,0v4.775h-1.647Z" style="fill: #059cf5"/>
        <path d="M145.9648,75.5243h2.14c2.059,0,3.499.672,3.499,2.538,0,1.427-1.002,2.525-3.073,2.525h-1.839a3.3248,3.3248,0,0,1-3.595-3.019h1.702a1.7749,1.7749,0,0,0,2.03,1.647h1.88c.782,0,1.303-.33,1.303-1.125,0-.961-.686-1.139-1.852-1.139h-2.031c-1.811,0-3.032-.645-3.032-2.401a2.633,2.633,0,0,1,2.895-2.47h1.606a3.6194,3.6194,0,0,1,3.787,3.019h-1.647a1.95,1.95,0,0,0-2.14-1.647h-1.77c-.727,0-1.194.357-1.194,1.07,0,.673.467,1.002,1.331,1.002" style="fill: #059cf5"/>
        <path d="M113.4163,101.6857h-1.253c0-6.467,5.258-13.392,13.083-13.392a118.0658,118.0658,0,0,0,22.983-2.553c7.248-1.644,15.888-4.778,15.888-10.369,0-5.034-7.216-8.852-20.868-11.041a208.4849,208.4849,0,0,0-30.613-2.077,208.4849,208.4849,0,0,0-30.613,2.077c-13.652,2.189-20.868,6.007-20.868,11.041,0,5.023,7.231,8.804,20.91,10.934a214.2341,214.2341,0,0,0,30.971,1.988v1.252a215.5253,215.5253,0,0,1-31.164-2.002c-14.578-2.27-21.97-6.365-21.97-12.172,0-5.814,7.376-9.945,21.922-12.278a209.7364,209.7364,0,0,1,30.812-2.093c15.856,0,52.734,1.401,52.734,14.371,0,5.152-5.674,9.052-16.864,11.59a119.5328,119.5328,0,0,1-23.26,2.584c-7.076,0-11.83,6.277-11.83,12.14" style="fill: #059cf5"/>
        <rect width="185.732" height="186.26" style="fill: none"/>
        <polygon points="87.001 100.92 87.001 127.714 137.381 127.714 137.381 126.462 88.253 126.462 88.253 102.172 184.254 102.172 184.254 126.462 149.952 126.462 50.381 165.276 50.835 166.443 150.188 127.714 185.507 127.714 185.507 100.92 87.001 100.92" style="fill: #059cf5"/>
        <path d="M91.325,17.7887H89.624a1.8445,1.8445,0,0,0-2.031-1.482,1.92,1.92,0,0,0-2.031,2.195v4.775H83.916v-8.506h1.646v1.427a2.8265,2.8265,0,0,1,2.251-1.427h.548c1.592,0,2.758,1.591,2.964,3.018" style="fill: #059cf5"/>
        <path d="M98.9117,18.3377a2.6409,2.6409,0,0,0-5.186,0Zm1.647,1.317h-6.833a2.5041,2.5041,0,0,0,2.634,2.14,2.4185,2.4185,0,0,0,2.415-1.536h1.729a4.3278,4.3278,0,0,1-8.452-1.235,4.33,4.33,0,0,1,4.254-4.253,4.2741,4.2741,0,0,1,4.253,4.253Z" style="fill: #059cf5"/>
        <path d="M104.62,18.2141h2.14c2.059,0,3.499.672,3.499,2.538,0,1.427-1.001,2.525-3.073,2.525h-1.839a3.3248,3.3248,0,0,1-3.595-3.019h1.702a1.7749,1.7749,0,0,0,2.03,1.647h1.88c.782,0,1.304-.33,1.304-1.125,0-.961-.686-1.139-1.853-1.139h-2.03c-1.811,0-3.033-.645-3.033-2.401a2.6333,2.6333,0,0,1,2.896-2.47h1.605a3.6194,3.6194,0,0,1,3.787,3.019h-1.647a1.95,1.95,0,0,0-2.14-1.647h-1.77c-.727,0-1.194.357-1.194,1.07,0,.673.467,1.002,1.331,1.002" style="fill: #059cf5"/>
        <path d="M114.1413,18.2141h2.141c2.058,0,3.498.672,3.498,2.538,0,1.427-1.001,2.525-3.073,2.525h-1.839a3.3248,3.3248,0,0,1-3.595-3.019h1.702a1.7749,1.7749,0,0,0,2.03,1.647h1.88c.782,0,1.304-.33,1.304-1.125,0-.961-.686-1.139-1.853-1.139h-2.03c-1.811,0-3.033-.645-3.033-2.401a2.6333,2.6333,0,0,1,2.896-2.47h1.605a3.6194,3.6194,0,0,1,3.787,3.019h-1.647a1.95,1.95,0,0,0-2.14-1.647h-1.77c-.727,0-1.194.357-1.194,1.07,0,.673.467,1.002,1.331,1.002" style="fill: #059cf5"/>
        <path d="M127.82,19.0236a2.6114,2.6114,0,1,0-5.213,0,2.6114,2.6114,0,1,0,5.213,0m-6.86,0a4.2535,4.2535,0,1,1,4.253,4.253,4.265,4.265,0,0,1-4.253-4.253" style="fill: #059cf5"/>
        <path d="M138.4947,14.77v8.507h-1.647v-1.455a2.9365,2.9365,0,0,1-2.332,1.455h-.412a3.1913,3.1913,0,0,1-3.128-3.293V14.77h1.647v4.775a2.1141,2.1141,0,1,0,4.225,0V14.77Z" style="fill: #059cf5"/>
        <path d="M147.8793,17.7887h-1.701a1.8445,1.8445,0,0,0-2.031-1.482,1.92,1.92,0,0,0-2.031,2.195v4.775H140.47v-8.506h1.646v1.427a2.8265,2.8265,0,0,1,2.251-1.427h.548c1.592,0,2.758,1.591,2.964,3.018" style="fill: #059cf5"/>
        <path d="M148.606,19.0236a4.2655,4.2655,0,0,1,4.253-4.253,4.1056,4.1056,0,0,1,4.007,3.018h-1.674a2.2765,2.2765,0,0,0-2.333-1.537,2.51,2.51,0,0,0-2.606,2.772,2.51,2.51,0,0,0,2.606,2.772,2.2765,2.2765,0,0,0,2.333-1.537h1.674a4.1056,4.1056,0,0,1-4.007,3.018,4.2655,4.2655,0,0,1-4.253-4.253" style="fill: #059cf5"/>
        <path d="M164.9337,18.3377a2.6415,2.6415,0,0,0-5.187,0Zm1.646,1.317h-6.833a2.5041,2.5041,0,0,0,2.634,2.14,2.4177,2.4177,0,0,0,2.415-1.536h1.729a4.3278,4.3278,0,0,1-8.452-1.235,4.33,4.33,0,0,1,4.254-4.253,4.2741,4.2741,0,0,1,4.253,4.253Z" style="fill: #059cf5"/>
        <path d="M170.641,18.2141h2.14c2.059,0,3.499.672,3.499,2.538,0,1.427-1.002,2.525-3.073,2.525h-1.839a3.3248,3.3248,0,0,1-3.595-3.019h1.702a1.7749,1.7749,0,0,0,2.03,1.647h1.88c.782,0,1.303-.33,1.303-1.125,0-.961-.686-1.139-1.852-1.139h-2.031c-1.811,0-3.032-.645-3.032-2.401a2.633,2.633,0,0,1,2.895-2.47h1.606a3.6194,3.6194,0,0,1,3.787,3.019h-1.647a1.95,1.95,0,0,0-2.14-1.647h-1.77c-.727,0-1.194.357-1.194,1.07,0,.673.467,1.002,1.331,1.002" style="fill: #059cf5"/>
        <rect width="185.732" height="186.26" style="fill: none"/>
        <polygon points="113.509 61.771 93.712 39.223 92.771 40.05 111.961 61.906 113.509 61.771" style="fill: #059cf5"/>
        <path d="M170.8645,127.1246l-1.652.037,15.249,17.373v40.201H42.1775v-34.937a12.1347,12.1347,0,0,1,12.152-12.068h7.826a13.4532,13.4532,0,0,0,7.048-24.801c-1.94-1.224-26.557-14.708-27.604-15.281l-.308-.173-.305.173c-.997.573-24.433,14.036-26.368,15.257a13.4684,13.4684,0,0,0,7.048,24.825h20.002v-1.27H21.6665a12.1979,12.1979,0,0,1-6.38-22.485c1.796-1.133,23.199-13.441,26.019-15.062,2.915,1.596,25.437,13.931,27.23,15.062a12.1979,12.1979,0,0,1-6.38,22.485H54.33a13.42,13.42,0,0,0-13.423,13.338v36.207h144.825v-41.943Z" style="fill: #059cf5"/>
        <polygon points="148.385 101.514 136.665 88.161 135.124 88.323 146.487 101.269 148.385 101.514" style="fill: #059cf5"/>
      </g>
    </g>
  </g>
</svg>
