<?xml version="1.0" encoding="utf-8"?>
<svg version="1.1" xmlns="http://www.w3.org/2000/svg" xmlns:xlink="http://www.w3.org/1999/xlink" x="0px" y="0px"
	 viewBox="0 0 100 100" style="enable-background:new 0 0 100 100;" xml:space="preserve">
<style type="text/css">
	.st0{fill:#00DCAA;}
	.st1{fill:#FFFFFF;}
</style>
<g id="Calque_1">
	<rect class="st0" width="100" height="100"/>
</g>
<g id="Calque_2">
	<g>
		<path class="st1" d="M52.13,62.53L98,46.98V65.7c-4.73-5.21-17.8-11.2-30.11-5.47c-12.14,5.64-6.42,17.85,4.67,30.09L98,65.7
			L93.27,98c-10.15,0-14.71-1.48-21.3-6.43C68,88.62,50.8,87.58,26,98l33.13-16.89l-22.99,4.21c7.18-3.13,16.87-9.29,17.97-11.2
			c1.4-2.34-4.96-5.17-16.81-7.99l18.44,2.82L42.73,64.7c0.35-1.09,1.75-4.04,4.26-5.04C50.2,58.4,52.83,60.01,52.13,62.53 M2,61.7
			L12,98l17-17c0,0-26.94,0.93-13.99-4.41c5.25-2.17,10.45-3,19.32-4.08l4.2-5.25l-22.7,6.3c8.99-3.08,38.52-13.76,24.16-15.76
			c-8.11-1.13-6.3-9.34,0.47-14.5l2.98,0.17L32.46,35.3c0,0-20.13,5.51-22.47,3.21c-1.69-1.69,6.13-6.38,15.99-7.6L6.38,29.27
			L2,60.31c4.9-4.73,32.39-26.36,34.84-18.84C39.41,49.33,18.81,56.66,2,61.7 M55.05,31.39L37.89,2h26.38
			c-3.79,1.09-20.83,9.68-11.79,19.1c8.64,8.99,27.9-1.22,34.2-6.43L72.67,2L98,16.24c0,4.26-1.52,11.38-9.98,9.47
			c-12.08-2.74-0.76,6.9-0.76,6.9l-17.1-7.47l20.43,19.19c-7.47-3.43-12.02-3.86-16.34-1.39c-3.15,1.82-7.29,5.86-14.59,13.72
			l6.89-28.83l-7.76,8.81c-2.68-0.78-7.12-2.13-6.83-3.39C52.07,32.65,52.95,31.87,55.05,31.39 M22.78,10.04
			c-6.71,2-14.65-3-17.27-8.04L2,30.05l6.59-7.95c3.79-2.26,7.53-2.34,8.11-0.74c0.58,1.56-0.93,4.12-3.15,5.77l13.25-6.56
			l3.68,12.59c-0.64-11.16-0.99-19.71,3.85-12.29c24.34,37.04,9.45,17.93,9.45,17.93l2.28,19.41l8.64-13.07
			c-4.2-5.04-22.64-28.61-21.94-31.96c0.41-2,6.65,0.48,12.37,8.68L35,3L21.2,2C25.81,2.74,30.6,7.69,22.78,10.04"/>
	</g>
</g>
</svg>
